Khula-Regular.ufo
<glyph name="exclam.deva" format="1">
  <advance width="817"/>
  <unicode hex="0021"/>
  <outline>
    <contour>
      <point x="456" y="363" type="line"/>
      <point x="362" y="363" type="line"/>
      <point x="316" y="1316" type="line"/>
      <point x="502" y="1316" type="line"/>
    </contour>
    <contour>
      <point x="300" y="95" type="curve" smooth="yes"/>
      <point x="300" y="177"/>
      <point x="336" y="218"/>
      <point x="408" y="218" type="curve" smooth="yes"/>
      <point x="477" y="218"/>
      <point x="517" y="175"/>
      <point x="517" y="95" type="curve" smooth="yes"/>
      <point x="517" y="19"/>
      <point x="476" y="-26"/>
      <point x="408" y="-26" type="curve" smooth="yes"/>
      <point x="345" y="-26"/>
      <point x="300" y="10"/>
    </contour>
  </outline>
</glyph>
<glyph name="exclam" format="1">
  <advance width="577"/>
  <unicode hex="0021"/>
  <outline>
    <contour>
      <point x="336" y="363" type="line"/>
      <point x="242" y="363" type="line"/>
      <point x="196" y="1316" type="line"/>
      <point x="382" y="1316" type="line"/>
    </contour>
    <contour>
      <point x="180" y="95" type="curve" smooth="yes"/>
      <point x="180" y="177"/>
      <point x="216" y="218"/>
      <point x="288" y="218" type="curve" smooth="yes"/>
      <point x="357" y="218"/>
      <point x="397" y="175"/>
      <point x="397" y="95" type="curve" smooth="yes"/>
      <point x="397" y="19"/>
      <point x="356" y="-26"/>
      <point x="288" y="-26" type="curve" smooth="yes"/>
      <point x="225" y="-26"/>
      <point x="180" y="10"/>
    </contour>
  </outline>
</glyph>
<glyph name="quotedbl.deva" format="1">
  <advance width="1125"/>
  <unicode hex="0022"/>
  <outline>
    <contour>
      <point x="480" y="1316" type="line"/>
      <point x="444" y="841" type="line"/>
      <point x="350" y="841" type="line"/>
      <point x="313" y="1316" type="line"/>
    </contour>
    <contour>
      <point x="812" y="1316" type="line"/>
      <point x="775" y="841" type="line"/>
      <point x="682" y="841" type="line"/>
      <point x="645" y="1316" type="line"/>
    </contour>
  </outline>
</glyph>
<glyph name="quotedbl" format="1">
  <advance width="819"/>
  <unicode hex="0022"/>
  <outline>
    <contour>
      <point x="327" y="1316" type="line"/>
      <point x="291" y="841" type="line"/>
      <point x="197" y="841" type="line"/>
      <point x="160" y="1316" type="line"/>
    </contour>
    <contour>
      <point x="659" y="1316" type="line"/>
      <point x="622" y="841" type="line"/>
      <point x="529" y="841" type="line"/>
      <point x="492" y="1316" type="line"/>
    </contour>
  </outline>
</glyph>
<glyph name="percent" format="1">
  <advance width="1517"/>
  <unicode hex="0025"/>
  <outline>
    <contour>
      <point x="218" y="923" type="curve" smooth="yes"/>
      <point x="218" y="719"/>
      <point x="259" y="617"/>
      <point x="359" y="617" type="curve" smooth="yes"/>
      <point x="458" y="617"/>
      <point x="507" y="719"/>
      <point x="507" y="923" type="curve" smooth="yes"/>
      <point x="507" y="1126"/>
      <point x="458" y="1228"/>
      <point x="359" y="1228" type="curve" smooth="yes"/>
      <point x="259" y="1228"/>
      <point x="218" y="1127"/>
    </contour>
    <contour>
      <point x="630" y="923" type="curve" smooth="yes"/>
      <point x="630" y="650"/>
      <point x="536" y="508"/>
      <point x="359" y="508" type="curve" smooth="yes"/>
      <point x="191" y="508"/>
      <point x="94" y="656"/>
      <point x="94" y="923" type="curve" smooth="yes"/>
      <point x="94" y="1196"/>
      <point x="184" y="1335"/>
      <point x="359" y="1335" type="curve" smooth="yes"/>
      <point x="534" y="1335"/>
      <point x="630" y="1186"/>
    </contour>
    <contour>
      <point x="1010" y="396" type="curve" smooth="yes"/>
      <point x="1010" y="191"/>
      <point x="1051" y="90"/>
      <point x="1152" y="90" type="curve" smooth="yes"/>
      <point x="1253" y="90"/>
      <point x="1300" y="188"/>
      <point x="1300" y="396" type="curve" smooth="yes"/>
      <point x="1300" y="601"/>
      <point x="1253" y="698"/>
      <point x="1152" y="698" type="curve" smooth="yes"/>
      <point x="1051" y="698"/>
      <point x="1010" y="601"/>
    </contour>
    <contour>
      <point x="1423" y="396" type="curve" smooth="yes"/>
      <point x="1423" y="124"/>
      <point x="1329" y="-18"/>
      <point x="1152" y="-18" type="curve" smooth="yes"/>
      <point x="981" y="-18"/>
      <point x="886" y="129"/>
      <point x="886" y="396" type="curve" smooth="yes"/>
      <point x="886" y="668"/>
      <point x="977" y="807"/>
      <point x="1152" y="807" type="curve" smooth="yes"/>
      <point x="1323" y="807"/>
      <point x="1423" y="663"/>
    </contour>
    <contour>
      <point x="1191" y="1316" type="line"/>
      <point x="461" y="0" type="line"/>
      <point x="328" y="0" type="line"/>
      <point x="1058" y="1316" type="line"/>
    </contour>
  </outline>
</glyph>
<glyph name="quotesingle.deva" format="1">
  <advance width="793"/>
  <unicode hex="0027"/>
  <outline>
    <contour>
      <point x="480" y="1316" type="line"/>
      <point x="444" y="841" type="line"/>
      <point x="350" y="841" type="line"/>
      <point x="313" y="1316" type="line"/>
    </contour>
  </outline>
</glyph>
<glyph name="quotesingle" format="1">
  <advance width="527"/>
  <unicode hex="0027"/>
  <outline>
    <contour>
      <point x="347" y="1316" type="line"/>
      <point x="311" y="841" type="line"/>
      <point x="217" y="841" type="line"/>
      <point x="180" y="1316" type="line"/>
    </contour>
  </outline>
</glyph>
<glyph name="parenleft.deva" format="1">
  <advance width="646"/>
  <unicode hex="0028"/>
  <outline>
    <contour>
      <point x="90" y="606" type="curve" smooth="yes"/>
      <point x="90" y="923"/>
      <point x="185" y="1208"/>
      <point x="361" y="1417" type="curve"/>
      <point x="506" y="1417" type="line"/>
      <point x="334" y="1185"/>
      <point x="246" y="900"/>
      <point x="246" y="608" type="curve" smooth="yes"/>
      <point x="246" y="464"/>
      <point x="268" y="323"/>
      <point x="313" y="185" type="curve" smooth="yes"/>
      <point x="358" y="48"/>
      <point x="422" y="-78"/>
      <point x="505" y="-191" type="curve"/>
      <point x="361" y="-191" type="line"/>
      <point x="184" y="13"/>
      <point x="90" y="293"/>
    </contour>
  </outline>
</glyph>
<glyph name="parenleft" format="1">
  <advance width="545"/>
  <unicode hex="0028"/>
  <outline>
    <contour>
      <point x="74" y="505" type="curve" smooth="yes"/>
      <point x="74" y="822"/>
      <point x="169" y="1107"/>
      <point x="345" y="1316" type="curve"/>
      <point x="490" y="1316" type="line"/>
      <point x="318" y="1084"/>
      <point x="230" y="799"/>
      <point x="230" y="507" type="curve" smooth="yes"/>
      <point x="230" y="363"/>
      <point x="252" y="222"/>
      <point x="297" y="84" type="curve" smooth="yes"/>
      <point x="342" y="-53"/>
      <point x="406" y="-179"/>
      <point x="489" y="-292" type="curve"/>
      <point x="345" y="-292" type="line"/>
      <point x="168" y="-88"/>
      <point x="74" y="192"/>
    </contour>
  </outline>
</glyph>
<glyph name="parenright.deva" format="1">
  <advance width="647"/>
  <unicode hex="0029"/>
  <outline>
    <contour>
      <point x="557" y="605" type="curve" smooth="yes"/>
      <point x="557" y="289"/>
      <point x="461" y="11"/>
      <point x="286" y="-192" type="curve"/>
      <point x="142" y="-192" type="line"/>
      <point x="225" y="-79"/>
      <point x="289" y="47"/>
      <point x="333" y="184" type="curve" smooth="yes"/>
      <point x="378" y="322"/>
      <point x="400" y="463"/>
      <point x="400" y="607" type="curve" smooth="yes"/>
      <point x="400" y="899"/>
      <point x="312" y="1184"/>
      <point x="140" y="1416" type="curve"/>
      <point x="286" y="1416" type="line"/>
      <point x="462" y="1205"/>
      <point x="557" y="921"/>
    </contour>
  </outline>
</glyph>
<glyph name="parenright" format="1">
  <advance width="545"/>
  <unicode hex="0029"/>
  <outline>
    <contour>
      <point x="472" y="505" type="curve" smooth="yes"/>
      <point x="472" y="189"/>
      <point x="376" y="-89"/>
      <point x="201" y="-292" type="curve"/>
      <point x="57" y="-292" type="line"/>
      <point x="140" y="-179"/>
      <point x="204" y="-53"/>
      <point x="248" y="84" type="curve" smooth="yes"/>
      <point x="293" y="222"/>
      <point x="315" y="363"/>
      <point x="315" y="507" type="curve" smooth="yes"/>
      <point x="315" y="799"/>
      <point x="227" y="1084"/>
      <point x="55" y="1316" type="curve"/>
      <point x="201" y="1316" type="line"/>
      <point x="377" y="1105"/>
      <point x="472" y="821"/>
    </contour>
  </outline>
</glyph>
<glyph name="asterisk.deva" format="1">
  <advance width="1097"/>
  <unicode hex="002A"/>
  <outline>
    <contour>
      <point x="634" y="1400" type="line"/>
      <point x="596" y="1045" type="line"/>
      <point x="954" y="1145" type="line"/>
      <point x="977" y="981" type="line"/>
      <point x="634" y="953" type="line"/>
      <point x="857" y="660" type="line"/>
      <point x="703" y="575" type="line"/>
      <point x="544" y="901" type="line"/>
      <point x="400" y="575" type="line"/>
      <point x="242" y="660" type="line"/>
      <point x="460" y="953" type="line"/>
      <point x="120" y="981" type="line"/>
      <point x="146" y="1145" type="line"/>
      <point x="498" y="1045" type="line"/>
      <point x="460" y="1400" type="line"/>
    </contour>
  </outline>
</glyph>
<glyph name="asterisk" format="1">
  <advance width="1017"/>
  <unicode hex="002A"/>
  <outline>
    <contour>
      <point x="591" y="1400" type="line"/>
      <point x="553" y="1045" type="line"/>
      <point x="911" y="1145" type="line"/>
      <point x="934" y="981" type="line"/>
      <point x="591" y="953" type="line"/>
      <point x="814" y="660" type="line"/>
      <point x="660" y="575" type="line"/>
      <point x="501" y="901" type="line"/>
      <point x="357" y="575" type="line"/>
      <point x="199" y="660" type="line"/>
      <point x="417" y="953" type="line"/>
      <point x="77" y="981" type="line"/>
      <point x="103" y="1145" type="line"/>
      <point x="455" y="1045" type="line"/>
      <point x="417" y="1400" type="line"/>
    </contour>
  </outline>
</glyph>
<glyph name="plus" format="1">
  <advance width="1054"/>
  <unicode hex="002B"/>
  <outline>
    <contour>
      <point x="588" y="712" type="line"/>
      <point x="958" y="712" type="line"/>
      <point x="958" y="588" type="line"/>
      <point x="588" y="588" type="line"/>
      <point x="588" y="204" type="line"/>
      <point x="463" y="204" type="line"/>
      <point x="463" y="588" type="line"/>
      <point x="94" y="588" type="line"/>
      <point x="94" y="712" type="line"/>
      <point x="463" y="712" type="line"/>
      <point x="463" y="1097" type="line"/>
      <point x="588" y="1097" type="line"/>
    </contour>
  </outline>
</glyph>
<glyph name="comma.deva" format="1">
  <advance width="511"/>
  <unicode hex="002C"/>
  <outline>
    <contour>
      <point x="378" y="214" type="line"/>
      <point x="391" y="193" type="line"/>
      <point x="376" y="133"/>
      <point x="353" y="63"/>
      <point x="324" y="-16" type="curve" smooth="yes"/>
      <point x="295" y="-95"/>
      <point x="264" y="-169"/>
      <point x="232" y="-238" type="curve"/>
      <point x="120" y="-238" type="line"/>
      <point x="136" y="-175"/>
      <point x="154" y="-98"/>
      <point x="173" y="-6" type="curve" smooth="yes"/>
      <point x="192" y="85"/>
      <point x="206" y="159"/>
      <point x="214" y="214" type="curve"/>
    </contour>
  </outline>
</glyph>
<glyph name="hyphen.deva" format="1">
  <advance width="671"/>
  <unicode hex="002D"/>
  <outline>
    <contour>
      <point x="115" y="526" type="line"/>
      <point x="115" y="662" type="line"/>
      <point x="556" y="662" type="line"/>
      <point x="556" y="526" type="line"/>
    </contour>
  </outline>
</glyph>
<glyph name="hyphen" format="1">
  <advance width="593"/>
  <unicode hex="002D"/>
  <outline>
    <contour>
      <point x="76" y="426" type="line"/>
      <point x="76" y="562" type="line"/>
      <point x="517" y="562" type="line"/>
      <point x="517" y="426" type="line"/>
    </contour>
  </outline>
</glyph>
<glyph name="period" format="1">
  <advance width="490"/>
  <unicode hex="002E"/>
  <outline>
    <contour>
      <point x="137" y="95" type="curve" smooth="yes"/>
      <point x="137" y="176"/>
      <point x="175" y="218"/>
      <point x="243" y="218" type="curve" smooth="yes"/>
      <point x="312" y="218"/>
      <point x="354" y="176"/>
      <point x="354" y="95" type="curve" smooth="yes"/>
      <point x="354" y="18"/>
      <point x="311" y="-26"/>
      <point x="243" y="-26" type="curve" smooth="yes"/>
      <point x="182" y="-26"/>
      <point x="137" y="10"/>
    </contour>
  </outline>
</glyph>
<glyph name="slash.deva" format="1">
  <advance width="677"/>
  <unicode hex="002F"/>
  <outline>
    <contour>
      <point x="658" y="1316" type="line"/>
      <point x="167" y="0" type="line"/>
      <point x="18" y="0" type="line"/>
      <point x="508" y="1316" type="line"/>
    </contour>
  </outline>
</glyph>
<glyph name="zero" format="1">
  <advance width="1054"/>
  <unicode hex="0030"/>
  <outline>
    <contour>
      <point x="962" y="660" type="curve" smooth="yes"/>
      <point x="962" y="205"/>
      <point x="821" y="-18"/>
      <point x="526" y="-18" type="curve" smooth="yes"/>
      <point x="242" y="-18"/>
      <point x="92" y="216"/>
      <point x="92" y="660" type="curve" smooth="yes"/>
      <point x="92" y="1117"/>
      <point x="233" y="1336"/>
      <point x="526" y="1336" type="curve" smooth="yes"/>
      <point x="811" y="1336"/>
      <point x="962" y="1099"/>
    </contour>
    <contour>
      <point x="243" y="660" type="curve" smooth="yes"/>
      <point x="243" y="469"/>
      <point x="265" y="329"/>
      <point x="310" y="242" type="curve" smooth="yes"/>
      <point x="355" y="155"/>
      <point x="427" y="111"/>
      <point x="526" y="111" type="curve" smooth="yes"/>
      <point x="725" y="111"/>
      <point x="809" y="281"/>
      <point x="809" y="660" type="curve" smooth="yes"/>
      <point x="809" y="1037"/>
      <point x="725" y="1207"/>
      <point x="526" y="1207" type="curve" smooth="yes"/>
      <point x="427" y="1207"/>
      <point x="355" y="1164"/>
      <point x="310" y="1077" type="curve" smooth="yes"/>
      <point x="265" y="990"/>
      <point x="243" y="851"/>
    </contour>
  </outline>
</glyph>
<glyph name="one" format="1">
  <advance width="1054"/>
  <unicode hex="0031"/>
  <outline>
    <contour>
      <point x="643" y="0" type="line"/>
      <point x="498" y="0" type="line"/>
      <point x="498" y="938" type="line" smooth="yes"/>
      <point x="498" y="1016"/>
      <point x="500" y="1090"/>
      <point x="505" y="1159" type="curve"/>
      <point x="492" y="1146"/>
      <point x="478" y="1133"/>
      <point x="462" y="1119" type="curve" smooth="yes"/>
      <point x="447" y="1106"/>
      <point x="375" y="1047"/>
      <point x="248" y="944" type="curve"/>
      <point x="169" y="1047" type="line"/>
      <point x="517" y="1316" type="line"/>
      <point x="643" y="1316" type="line"/>
    </contour>
  </outline>
</glyph>
<glyph name="three" format="1">
  <advance width="1054"/>
  <unicode hex="0033"/>
  <outline>
    <contour>
      <point x="905" y="1006" type="curve" smooth="yes"/>
      <point x="905" y="838"/>
      <point x="807" y="729"/>
      <point x="634" y="693" type="curve"/>
      <point x="634" y="686" type="line"/>
      <point x="846" y="659"/>
      <point x="946" y="548"/>
      <point x="946" y="373" type="curve" smooth="yes"/>
      <point x="946" y="121"/>
      <point x="765" y="-18"/>
      <point x="445" y="-18" type="curve" smooth="yes"/>
      <point x="305" y="-18"/>
      <point x="193" y="0"/>
      <point x="85" y="53" type="curve"/>
      <point x="85" y="195" type="line"/>
      <point x="198" y="139"/>
      <point x="335" y="109"/>
      <point x="450" y="109" type="curve" smooth="yes"/>
      <point x="677" y="109"/>
      <point x="791" y="198"/>
      <point x="791" y="376" type="curve" smooth="yes"/>
      <point x="791" y="536"/>
      <point x="666" y="616"/>
      <point x="415" y="616" type="curve" smooth="yes"/>
      <point x="285" y="616" type="line"/>
      <point x="285" y="744" type="line"/>
      <point x="417" y="744" type="line" smooth="yes"/>
      <point x="520" y="744"/>
      <point x="601" y="767"/>
      <point x="661" y="812" type="curve" smooth="yes"/>
      <point x="721" y="857"/>
      <point x="751" y="920"/>
      <point x="751" y="1001" type="curve" smooth="yes"/>
      <point x="751" y="1129"/>
      <point x="656" y="1207"/>
      <point x="505" y="1207" type="curve" smooth="yes"/>
      <point x="447" y="1207"/>
      <point x="392" y="1199"/>
      <point x="341" y="1183" type="curve" smooth="yes"/>
      <point x="290" y="1168"/>
      <point x="232" y="1139"/>
      <point x="167" y="1097" type="curve"/>
      <point x="92" y="1198" type="line"/>
      <point x="200" y="1283"/>
      <point x="345" y="1335"/>
      <point x="501" y="1335" type="curve" smooth="yes"/>
      <point x="629" y="1335"/>
      <point x="728" y="1306"/>
      <point x="799" y="1247" type="curve" smooth="yes"/>
      <point x="870" y="1188"/>
      <point x="905" y="1108"/>
    </contour>
  </outline>
</glyph>
<glyph name="four" format="1">
  <advance width="1054"/>
  <unicode hex="0034"/>
  <outline>
    <contour>
      <point x="1017" y="302" type="line"/>
      <point x="822" y="302" type="line"/>
      <point x="822" y="0" type="line"/>
      <point x="679" y="0" type="line"/>
      <point x="679" y="302" type="line"/>
      <point x="39" y="302" type="line"/>
      <point x="39" y="433" type="line"/>
      <point x="663" y="1323" type="line"/>
      <point x="822" y="1323" type="line"/>
      <point x="822" y="438" type="line"/>
      <point x="1017" y="438" type="line"/>
    </contour>
    <contour>
      <point x="679" y="438" type="line"/>
      <point x="679" y="876" type="line" smooth="yes"/>
      <point x="679" y="961"/>
      <point x="682" y="1058"/>
      <point x="688" y="1166" type="curve"/>
      <point x="680" y="1166" type="line"/>
      <point x="651" y="1109"/>
      <point x="624" y="1061"/>
      <point x="599" y="1023" type="curve"/>
      <point x="188" y="438" type="line"/>
    </contour>
  </outline>
</glyph>
<glyph name="eight" format="1">
  <advance width="1054"/>
  <unicode hex="0038"/>
  <outline>
    <contour>
      <point x="526" y="1335" type="curve" smooth="yes"/>
      <point x="646" y="1335"/>
      <point x="741" y="1307"/>
      <point x="811" y="1251" type="curve" smooth="yes"/>
      <point x="881" y="1195"/>
      <point x="916" y="1118"/>
      <point x="916" y="1020" type="curve" smooth="yes"/>
      <point x="916" y="889"/>
      <point x="840" y="784"/>
      <point x="663" y="697" type="curve"/>
      <point x="770" y="646"/>
      <point x="845" y="592"/>
      <point x="890" y="536" type="curve" smooth="yes"/>
      <point x="935" y="480"/>
      <point x="958" y="415"/>
      <point x="958" y="341" type="curve" smooth="yes"/>
      <point x="958" y="232"/>
      <point x="920" y="144"/>
      <point x="844" y="79" type="curve" smooth="yes"/>
      <point x="768" y="14"/>
      <point x="664" y="-18"/>
      <point x="531" y="-18" type="curve" smooth="yes"/>
      <point x="250" y="-18"/>
      <point x="94" y="109"/>
      <point x="94" y="336" type="curve" smooth="yes"/>
      <point x="94" y="487"/>
      <point x="186" y="604"/>
      <point x="369" y="688" type="curve"/>
      <point x="204" y="781"/>
      <point x="137" y="888"/>
      <point x="137" y="1021" type="curve" smooth="yes"/>
      <point x="137" y="1117"/>
      <point x="172" y="1193"/>
      <point x="242" y="1250" type="curve" smooth="yes"/>
      <point x="313" y="1307"/>
      <point x="407" y="1335"/>
    </contour>
    <contour>
      <point x="241" y="332" type="curve" smooth="yes"/>
      <point x="241" y="188"/>
      <point x="346" y="103"/>
      <point x="527" y="103" type="curve" smooth="yes"/>
      <point x="706" y="103"/>
      <point x="811" y="192"/>
      <point x="811" y="339" type="curve" smooth="yes"/>
      <point x="811" y="398"/>
      <point x="787" y="449"/>
      <point x="740" y="494" type="curve" smooth="yes"/>
      <point x="693" y="539"/>
      <point x="612" y="583"/>
      <point x="496" y="626" type="curve"/>
      <point x="317" y="550"/>
      <point x="241" y="461"/>
    </contour>
    <contour>
      <point x="524" y="1213" type="curve" smooth="yes"/>
      <point x="373" y="1213"/>
      <point x="283" y="1135"/>
      <point x="283" y="1015" type="curve" smooth="yes"/>
      <point x="283" y="960"/>
      <point x="301" y="912"/>
      <point x="336" y="873" type="curve" smooth="yes"/>
      <point x="372" y="834"/>
      <point x="438" y="794"/>
      <point x="533" y="754" type="curve"/>
      <point x="704" y="826"/>
      <point x="769" y="904"/>
      <point x="769" y="1015" type="curve" smooth="yes"/>
      <point x="769" y="1136"/>
      <point x="676" y="1213"/>
    </contour>
  </outline>
</glyph>
<glyph name="colon.deva" format="1">
  <advance width="675"/>
  <unicode hex="003A"/>
  <outline>
    <contour>
      <point x="229" y="95" type="curve" smooth="yes"/>
      <point x="229" y="176"/>
      <point x="267" y="218"/>
      <point x="335" y="218" type="curve" smooth="yes"/>
      <point x="404" y="218"/>
      <point x="446" y="176"/>
      <point x="446" y="95" type="curve" smooth="yes"/>
      <point x="446" y="18"/>
      <point x="403" y="-26"/>
      <point x="335" y="-26" type="curve" smooth="yes"/>
      <point x="274" y="-26"/>
      <point x="229" y="10"/>
    </contour>
    <contour>
      <point x="229" y="890" type="curve" smooth="yes"/>
      <point x="229" y="971"/>
      <point x="264" y="1012"/>
      <point x="335" y="1012" type="curve" smooth="yes"/>
      <point x="409" y="1012"/>
      <point x="446" y="971"/>
      <point x="446" y="890" type="curve" smooth="yes"/>
      <point x="446" y="813"/>
      <point x="403" y="769"/>
      <point x="335" y="769" type="curve" smooth="yes"/>
      <point x="274" y="769"/>
      <point x="229" y="803"/>
    </contour>
  </outline>
</glyph>
<glyph name="colon" format="1">
  <advance width="510"/>
  <unicode hex="003A"/>
  <outline>
    <contour>
      <point x="157" y="95" type="curve" smooth="yes"/>
      <point x="157" y="176"/>
      <point x="195" y="218"/>
      <point x="263" y="218" type="curve" smooth="yes"/>
      <point x="332" y="218"/>
      <point x="374" y="176"/>
      <point x="374" y="95" type="curve" smooth="yes"/>
      <point x="374" y="18"/>
      <point x="331" y="-26"/>
      <point x="263" y="-26" type="curve" smooth="yes"/>
      <point x="202" y="-26"/>
      <point x="157" y="10"/>
    </contour>
    <contour>
      <point x="157" y="890" type="curve" smooth="yes"/>
      <point x="157" y="971"/>
      <point x="192" y="1012"/>
      <point x="263" y="1012" type="curve" smooth="yes"/>
      <point x="337" y="1012"/>
      <point x="374" y="971"/>
      <point x="374" y="890" type="curve" smooth="yes"/>
      <point x="374" y="813"/>
      <point x="331" y="769"/>
      <point x="263" y="769" type="curve" smooth="yes"/>
      <point x="202" y="769"/>
      <point x="157" y="803"/>
    </contour>
  </outline>
</glyph>
<glyph name="semicolon.deva" format="1">
  <advance width="587"/>
  <unicode hex="003B"/>
  <outline>
    <contour>
      <point x="412" y="214" type="line"/>
      <point x="425" y="193" type="line"/>
      <point x="410" y="133"/>
      <point x="387" y="63"/>
      <point x="358" y="-16" type="curve" smooth="yes"/>
      <point x="329" y="-95"/>
      <point x="298" y="-169"/>
      <point x="266" y="-238" type="curve"/>
      <point x="154" y="-238" type="line"/>
      <point x="170" y="-175"/>
      <point x="188" y="-98"/>
      <point x="207" y="-6" type="curve" smooth="yes"/>
      <point x="226" y="85"/>
      <point x="240" y="159"/>
      <point x="248" y="214" type="curve"/>
    </contour>
    <contour>
      <point x="229" y="890" type="curve" smooth="yes"/>
      <point x="229" y="971"/>
      <point x="265" y="1012"/>
      <point x="336" y="1012" type="curve" smooth="yes"/>
      <point x="410" y="1012"/>
      <point x="447" y="971"/>
      <point x="447" y="890" type="curve" smooth="yes"/>
      <point x="447" y="813"/>
      <point x="405" y="769"/>
      <point x="336" y="769" type="curve" smooth="yes"/>
      <point x="267" y="769"/>
      <point x="229" y="813"/>
    </contour>
  </outline>
</glyph>
<glyph name="semicolon" format="1">
  <advance width="510"/>
  <unicode hex="003B"/>
  <outline>
    <contour>
      <point x="335" y="214" type="line"/>
      <point x="348" y="193" type="line"/>
      <point x="333" y="133"/>
      <point x="310" y="63"/>
      <point x="281" y="-16" type="curve" smooth="yes"/>
      <point x="252" y="-95"/>
      <point x="221" y="-169"/>
      <point x="189" y="-238" type="curve"/>
      <point x="77" y="-238" type="line"/>
      <point x="93" y="-175"/>
      <point x="111" y="-98"/>
      <point x="130" y="-6" type="curve" smooth="yes"/>
      <point x="149" y="85"/>
      <point x="163" y="159"/>
      <point x="171" y="214" type="curve"/>
    </contour>
    <contour>
      <point x="152" y="890" type="curve" smooth="yes"/>
      <point x="152" y="971"/>
      <point x="188" y="1012"/>
      <point x="259" y="1012" type="curve" smooth="yes"/>
      <point x="333" y="1012"/>
      <point x="370" y="971"/>
      <point x="370" y="890" type="curve" smooth="yes"/>
      <point x="370" y="813"/>
      <point x="328" y="769"/>
      <point x="259" y="769" type="curve" smooth="yes"/>
      <point x="190" y="769"/>
      <point x="152" y="813"/>
    </contour>
  </outline>
</glyph>
<glyph name="less" format="1">
  <advance width="1054"/>
  <unicode hex="003C"/>
  <outline>
    <contour>
      <point x="958" y="218" type="line"/>
      <point x="94" y="598" type="line"/>
      <point x="94" y="686" type="line"/>
      <point x="958" y="1117" type="line"/>
      <point x="958" y="983" type="line"/>
      <point x="255" y="649" type="line"/>
      <point x="958" y="354" type="line"/>
    </contour>
  </outline>
</glyph>
<glyph name="equal" format="1">
  <advance width="1054"/>
  <unicode hex="003D"/>
  <outline>
    <contour>
      <point x="107" y="772" type="line"/>
      <point x="107" y="895" type="line"/>
      <point x="944" y="895" type="line"/>
      <point x="944" y="772" type="line"/>
    </contour>
    <contour>
      <point x="107" y="404" type="line"/>
      <point x="107" y="527" type="line"/>
      <point x="944" y="527" type="line"/>
      <point x="944" y="404" type="line"/>
    </contour>
  </outline>
</glyph>
<glyph name="greater" format="1">
  <advance width="1054"/>
  <unicode hex="003E"/>
  <outline>
    <contour>
      <point x="94" y="354" type="line"/>
      <point x="798" y="647" type="line"/>
      <point x="94" y="983" type="line"/>
      <point x="94" y="1117" type="line"/>
      <point x="958" y="686" type="line"/>
      <point x="958" y="598" type="line"/>
      <point x="94" y="218" type="line"/>
    </contour>
  </outline>
</glyph>
<glyph name="question.deva" format="1">
  <advance width="1168"/>
  <unicode hex="003F"/>
  <outline>
    <contour>
      <point x="486" y="363" type="line"/>
      <point x="486" y="411" type="line" smooth="yes"/>
      <point x="486" y="482"/>
      <point x="497" y="539"/>
      <point x="518" y="584" type="curve" smooth="yes"/>
      <point x="540" y="629"/>
      <point x="580" y="677"/>
      <point x="639" y="728" type="curve" smooth="yes"/>
      <point x="720" y="797"/>
      <point x="772" y="849"/>
      <point x="793" y="884" type="curve" smooth="yes"/>
      <point x="814" y="919"/>
      <point x="825" y="961"/>
      <point x="825" y="1010" type="curve" smooth="yes"/>
      <point x="825" y="1133"/>
      <point x="744" y="1201"/>
      <point x="597" y="1201" type="curve" smooth="yes"/>
      <point x="550" y="1201"/>
      <point x="503" y="1195"/>
      <point x="458" y="1184" type="curve" smooth="yes"/>
      <point x="413" y="1173"/>
      <point x="362" y="1153"/>
      <point x="303" y="1124" type="curve"/>
      <point x="250" y="1246" type="line"/>
      <point x="363" y="1305"/>
      <point x="482" y="1335"/>
      <point x="606" y="1335" type="curve" smooth="yes"/>
      <point x="835" y="1335"/>
      <point x="968" y="1216"/>
      <point x="968" y="1012" type="curve" smooth="yes"/>
      <point x="968" y="968"/>
      <point x="962" y="929"/>
      <point x="950" y="896" type="curve" smooth="yes"/>
      <point x="939" y="863"/>
      <point x="922" y="831"/>
      <point x="899" y="801" type="curve" smooth="yes"/>
      <point x="876" y="772"/>
      <point x="827" y="724"/>
      <point x="752" y="658" type="curve" smooth="yes"/>
      <point x="691" y="606"/>
      <point x="651" y="563"/>
      <point x="631" y="529" type="curve" smooth="yes"/>
      <point x="612" y="495"/>
      <point x="602" y="449"/>
      <point x="602" y="392" type="curve" smooth="yes"/>
      <point x="602" y="363" type="line"/>
    </contour>
    <contour>
      <point x="442" y="95" type="curve" smooth="yes"/>
      <point x="442" y="177"/>
      <point x="478" y="218"/>
      <point x="550" y="218" type="curve" smooth="yes"/>
      <point x="619" y="218"/>
      <point x="659" y="175"/>
      <point x="659" y="95" type="curve" smooth="yes"/>
      <point x="659" y="19"/>
      <point x="618" y="-26"/>
      <point x="550" y="-26" type="curve" smooth="yes"/>
      <point x="487" y="-26"/>
      <point x="442" y="10"/>
    </contour>
  </outline>
</glyph>
<glyph name="question" format="1">
  <advance width="921"/>
  <unicode hex="003F"/>
  <outline>
    <contour>
      <point x="360" y="363" type="line"/>
      <point x="360" y="411" type="line" smooth="yes"/>
      <point x="360" y="482"/>
      <point x="371" y="539"/>
      <point x="392" y="584" type="curve" smooth="yes"/>
      <point x="414" y="629"/>
      <point x="454" y="677"/>
      <point x="513" y="728" type="curve" smooth="yes"/>
      <point x="594" y="797"/>
      <point x="646" y="849"/>
      <point x="667" y="884" type="curve" smooth="yes"/>
      <point x="688" y="919"/>
      <point x="699" y="961"/>
      <point x="699" y="1010" type="curve" smooth="yes"/>
      <point x="699" y="1133"/>
      <point x="618" y="1201"/>
      <point x="471" y="1201" type="curve" smooth="yes"/>
      <point x="424" y="1201"/>
      <point x="377" y="1195"/>
      <point x="332" y="1184" type="curve" smooth="yes"/>
      <point x="287" y="1173"/>
      <point x="236" y="1153"/>
      <point x="177" y="1124" type="curve"/>
      <point x="124" y="1246" type="line"/>
      <point x="237" y="1305"/>
      <point x="356" y="1335"/>
      <point x="480" y="1335" type="curve" smooth="yes"/>
      <point x="709" y="1335"/>
      <point x="842" y="1216"/>
      <point x="842" y="1012" type="curve" smooth="yes"/>
      <point x="842" y="968"/>
      <point x="836" y="929"/>
      <point x="824" y="896" type="curve" smooth="yes"/>
      <point x="813" y="863"/>
      <point x="796" y="831"/>
      <point x="773" y="801" type="curve" smooth="yes"/>
      <point x="750" y="772"/>
      <point x="701" y="724"/>
      <point x="626" y="658" type="curve" smooth="yes"/>
      <point x="565" y="606"/>
      <point x="525" y="563"/>
      <point x="505" y="529" type="curve" smooth="yes"/>
      <point x="486" y="495"/>
      <point x="476" y="449"/>
      <point x="476" y="392" type="curve" smooth="yes"/>
      <point x="476" y="363" type="line"/>
    </contour>
    <contour>
      <point x="316" y="95" type="curve" smooth="yes"/>
      <point x="316" y="177"/>
      <point x="352" y="218"/>
      <point x="424" y="218" type="curve" smooth="yes"/>
      <point x="493" y="218"/>
      <point x="533" y="175"/>
      <point x="533" y="95" type="curve" smooth="yes"/>
      <point x="533" y="19"/>
      <point x="492" y="-26"/>
      <point x="424" y="-26" type="curve" smooth="yes"/>
      <point x="361" y="-26"/>
      <point x="316" y="10"/>
    </contour>
  </outline>
</glyph>
<glyph name="C" format="1">
  <advance width="1163"/>
  <unicode hex="0043"/>
  <outline>
    <contour>
      <point x="744" y="1198" type="curve" smooth="yes"/>
      <point x="599" y="1198"/>
      <point x="485" y="1150"/>
      <point x="401" y="1053" type="curve" smooth="yes"/>
      <point x="318" y="957"/>
      <point x="276" y="825"/>
      <point x="276" y="658" type="curve" smooth="yes"/>
      <point x="276" y="486"/>
      <point x="316" y="353"/>
      <point x="397" y="259" type="curve" smooth="yes"/>
      <point x="478" y="165"/>
      <point x="593" y="118"/>
      <point x="742" y="118" type="curve" smooth="yes"/>
      <point x="834" y="118"/>
      <point x="939" y="134"/>
      <point x="1057" y="167" type="curve"/>
      <point x="1057" y="33" type="line"/>
      <point x="966" y="-1"/>
      <point x="853" y="-18"/>
      <point x="719" y="-18" type="curve" smooth="yes"/>
      <point x="525" y="-18"/>
      <point x="375" y="41"/>
      <point x="270" y="158" type="curve" smooth="yes"/>
      <point x="165" y="276"/>
      <point x="112" y="443"/>
      <point x="112" y="660" type="curve"/>
      <point x="108" y="1065"/>
      <point x="358" y="1339"/>
      <point x="746" y="1335" type="curve"/>
      <point x="884" y="1335"/>
      <point x="1005" y="1310"/>
      <point x="1108" y="1259" type="curve"/>
      <point x="1043" y="1128" type="line"/>
      <point x="944" y="1175"/>
      <point x="844" y="1198"/>
    </contour>
  </outline>
</glyph>
<glyph name="E" format="1">
  <advance width="1025"/>
  <unicode hex="0045"/>
  <outline>
    <contour>
      <point x="914" y="0" type="line"/>
      <point x="181" y="0" type="line"/>
      <point x="181" y="1316" type="line"/>
      <point x="914" y="1316" type="line"/>
      <point x="914" y="1180" type="line"/>
      <point x="334" y="1180" type="line"/>
      <point x="334" y="756" type="line"/>
      <point x="879" y="756" type="line"/>
      <point x="879" y="621" type="line"/>
      <point x="334" y="621" type="line"/>
      <point x="334" y="137" type="line"/>
      <point x="914" y="137" type="line"/>
    </contour>
  </outline>
</glyph>
<glyph name="G" format="1">
  <advance width="1342"/>
  <unicode hex="0047"/>
  <outline>
    <contour>
      <point x="760" y="689" type="line"/>
      <point x="1207" y="689" type="line"/>
      <point x="1207" y="49" type="line"/>
      <point x="1137" y="27"/>
      <point x="1066" y="10"/>
      <point x="994" y="-1" type="curve" smooth="yes"/>
      <point x="922" y="-12"/>
      <point x="839" y="-18"/>
      <point x="744" y="-18" type="curve" smooth="yes"/>
      <point x="545" y="-18"/>
      <point x="389" y="41"/>
      <point x="278" y="159" type="curve" smooth="yes"/>
      <point x="167" y="278"/>
      <point x="112" y="444"/>
      <point x="112" y="658" type="curve"/>
      <point x="107" y="1069"/>
      <point x="379" y="1341"/>
      <point x="795" y="1335" type="curve"/>
      <point x="935" y="1335"/>
      <point x="1066" y="1309"/>
      <point x="1187" y="1257" type="curve"/>
      <point x="1128" y="1122" type="line"/>
      <point x="1009" y="1173"/>
      <point x="894" y="1198"/>
      <point x="785" y="1198" type="curve" smooth="yes"/>
      <point x="624" y="1198"/>
      <point x="499" y="1150"/>
      <point x="409" y="1055" type="curve" smooth="yes"/>
      <point x="319" y="960"/>
      <point x="274" y="827"/>
      <point x="274" y="658" type="curve" smooth="yes"/>
      <point x="274" y="302"/>
      <point x="451" y="116"/>
      <point x="787" y="116" type="curve" smooth="yes"/>
      <point x="878" y="116"/>
      <point x="967" y="127"/>
      <point x="1054" y="148" type="curve"/>
      <point x="1054" y="553" type="line"/>
      <point x="760" y="553" type="line"/>
    </contour>
  </outline>
</glyph>
<glyph name="I" format="1">
  <advance width="514"/>
  <unicode hex="0049"/>
  <outline>
    <contour>
      <point x="181" y="0" type="line"/>
      <point x="181" y="1316" type="line"/>
      <point x="334" y="1316" type="line"/>
      <point x="334" y="0" type="line"/>
    </contour>
  </outline>
</glyph>
<glyph name="K" format="1">
  <advance width="1131"/>
  <unicode hex="004B"/>
  <outline>
    <contour>
      <point x="1131" y="0" type="line"/>
      <point x="951" y="0" type="line"/>
      <point x="472" y="638" type="line"/>
      <point x="334" y="516" type="line"/>
      <point x="334" y="0" type="line"/>
      <point x="181" y="0" type="line"/>
      <point x="181" y="1316" type="line"/>
      <point x="334" y="1316" type="line"/>
      <point x="334" y="663" type="line"/>
      <point x="931" y="1316" type="line"/>
      <point x="1111" y="1316" type="line"/>
      <point x="582" y="744" type="line"/>
    </contour>
  </outline>
</glyph>
<glyph name="L" format="1">
  <advance width="957"/>
  <unicode hex="004C"/>
  <outline>
    <contour>
      <point x="181" y="0" type="line"/>
      <point x="181" y="1316" type="line"/>
      <point x="334" y="1316" type="line"/>
      <point x="334" y="139" type="line"/>
      <point x="914" y="139" type="line"/>
      <point x="914" y="0" type="line"/>
    </contour>
  </outline>
</glyph>
<glyph name="M" format="1">
  <advance width="1664"/>
  <unicode hex="004D"/>
  <outline>
    <contour>
      <point x="763" y="0" type="line"/>
      <point x="317" y="1166" type="line"/>
      <point x="310" y="1166" type="line"/>
      <point x="318" y="1074"/>
      <point x="322" y="964"/>
      <point x="322" y="837" type="curve" smooth="yes"/>
      <point x="322" y="0" type="line"/>
      <point x="181" y="0" type="line"/>
      <point x="181" y="1316" type="line"/>
      <point x="411" y="1316" type="line"/>
      <point x="828" y="230" type="line"/>
      <point x="835" y="230" type="line"/>
      <point x="1255" y="1316" type="line"/>
      <point x="1484" y="1316" type="line"/>
      <point x="1484" y="0" type="line"/>
      <point x="1331" y="0" type="line"/>
      <point x="1331" y="848" type="line" smooth="yes"/>
      <point x="1331" y="945"/>
      <point x="1335" y="1051"/>
      <point x="1344" y="1165" type="curve"/>
      <point x="1336" y="1165" type="line"/>
      <point x="886" y="0" type="line"/>
    </contour>
  </outline>
</glyph>
<glyph name="N" format="1">
  <advance width="1390"/>
  <unicode hex="004E"/>
  <outline>
    <contour>
      <point x="1209" y="0" type="line"/>
      <point x="1034" y="0" type="line"/>
      <point x="315" y="1104" type="line"/>
      <point x="308" y="1104" type="line"/>
      <point x="317" y="975"/>
      <point x="322" y="856"/>
      <point x="322" y="748" type="curve" smooth="yes"/>
      <point x="322" y="0" type="line"/>
      <point x="181" y="0" type="line"/>
      <point x="181" y="1316" type="line"/>
      <point x="354" y="1316" type="line"/>
      <point x="1071" y="216" type="line"/>
      <point x="1078" y="216" type="line"/>
      <point x="1077" y="232"/>
      <point x="1074" y="284"/>
      <point x="1070" y="372" type="curve" smooth="yes"/>
      <point x="1066" y="460"/>
      <point x="1065" y="523"/>
      <point x="1066" y="561" type="curve"/>
      <point x="1066" y="1316" type="line"/>
      <point x="1209" y="1316" type="line"/>
    </contour>
  </outline>
</glyph>
<glyph name="R" format="1">
  <advance width="1139"/>
  <unicode hex="0052"/>
  <outline>
    <contour>
      <point x="334" y="547" type="line"/>
      <point x="334" y="0" type="line"/>
      <point x="181" y="0" type="line"/>
      <point x="181" y="1316" type="line"/>
      <point x="542" y="1316" type="line" smooth="yes"/>
      <point x="865" y="1316"/>
      <point x="1015" y="1192"/>
      <point x="1015" y="944" type="curve" smooth="yes"/>
      <point x="1015" y="770"/>
      <point x="927" y="652"/>
      <point x="751" y="591" type="curve"/>
      <point x="1108" y="0" type="line"/>
      <point x="927" y="0" type="line"/>
      <point x="608" y="547" type="line"/>
    </contour>
    <contour>
      <point x="334" y="679" type="line"/>
      <point x="544" y="679" type="line" smooth="yes"/>
      <point x="760" y="679"/>
      <point x="857" y="764"/>
      <point x="857" y="936" type="curve" smooth="yes"/>
      <point x="857" y="1109"/>
      <point x="760" y="1182"/>
      <point x="533" y="1182" type="curve" smooth="yes"/>
      <point x="334" y="1182" type="line"/>
    </contour>
  </outline>
</glyph>
<glyph name="T" format="1">
  <advance width="1020"/>
  <unicode hex="0054"/>
  <outline>
    <contour>
      <point x="586" y="0" type="line"/>
      <point x="433" y="0" type="line"/>
      <point x="433" y="1180" type="line"/>
      <point x="16" y="1180" type="line"/>
      <point x="16" y="1316" type="line"/>
      <point x="1003" y="1316" type="line"/>
      <point x="1003" y="1180" type="line"/>
      <point x="586" y="1180" type="line"/>
    </contour>
  </outline>
</glyph>
<glyph name="W" format="1">
  <advance width="1706"/>
  <unicode hex="0057"/>
  <outline>
    <contour>
      <point x="1329" y="0" type="line"/>
      <point x="1178" y="0" type="line"/>
      <point x="913" y="881" type="line"/>
      <point x="900" y="920"/>
      <point x="886" y="970"/>
      <point x="870" y="1029" type="curve" smooth="yes"/>
      <point x="855" y="1088"/>
      <point x="847" y="1124"/>
      <point x="846" y="1136" type="curve"/>
      <point x="833" y="1057"/>
      <point x="812" y="970"/>
      <point x="783" y="876" type="curve"/>
      <point x="526" y="0" type="line"/>
      <point x="374" y="0" type="line"/>
      <point x="24" y="1316" type="line"/>
      <point x="186" y="1316" type="line"/>
      <point x="394" y="503" type="line" smooth="yes"/>
      <point x="423" y="389"/>
      <point x="444" y="286"/>
      <point x="457" y="193" type="curve"/>
      <point x="473" y="303"/>
      <point x="497" y="411"/>
      <point x="529" y="516" type="curve"/>
      <point x="765" y="1316" type="line"/>
      <point x="927" y="1316" type="line"/>
      <point x="1174" y="508" type="line" smooth="yes"/>
      <point x="1203" y="415"/>
      <point x="1228" y="310"/>
      <point x="1247" y="193" type="curve"/>
      <point x="1258" y="278"/>
      <point x="1280" y="382"/>
      <point x="1312" y="505" type="curve" smooth="yes"/>
      <point x="1519" y="1316" type="line"/>
      <point x="1681" y="1316" type="line"/>
    </contour>
  </outline>
</glyph>
<glyph name="X" format="1">
  <advance width="1064"/>
  <unicode hex="0058"/>
  <outline>
    <contour>
      <point x="1057" y="0" type="line"/>
      <point x="883" y="0" type="line"/>
      <point x="529" y="579" type="line"/>
      <point x="169" y="0" type="line"/>
      <point x="7" y="0" type="line"/>
      <point x="445" y="688" type="line"/>
      <point x="37" y="1316" type="line"/>
      <point x="206" y="1316" type="line"/>
      <point x="533" y="795" type="line"/>
      <point x="862" y="1316" type="line"/>
      <point x="1025" y="1316" type="line"/>
      <point x="617" y="693" type="line"/>
    </contour>
  </outline>
</glyph>
<glyph name="bracketleft" format="1">
  <advance width="607"/>
  <unicode hex="005B"/>
  <outline>
    <contour>
      <point x="561" y="-292" type="line"/>
      <point x="149" y="-292" type="line"/>
      <point x="149" y="1316" type="line"/>
      <point x="561" y="1316" type="line"/>
      <point x="561" y="1189" type="line"/>
      <point x="301" y="1189" type="line"/>
      <point x="301" y="-164" type="line"/>
      <point x="561" y="-164" type="line"/>
    </contour>
  </outline>
</glyph>
<glyph name="bracketright.deva" format="1">
  <advance width="607"/>
  <unicode hex="005D"/>
  <outline>
    <contour>
      <point x="46" y="-64" type="line"/>
      <point x="306" y="-64" type="line"/>
      <point x="306" y="1289" type="line"/>
      <point x="46" y="1289" type="line"/>
      <point x="46" y="1416" type="line"/>
      <point x="457" y="1416" type="line"/>
      <point x="457" y="-192" type="line"/>
      <point x="46" y="-192" type="line"/>
    </contour>
  </outline>
</glyph>
<glyph name="bracketright" format="1">
  <advance width="607"/>
  <unicode hex="005D"/>
  <outline>
    <contour>
      <point x="46" y="-64" type="line"/>
      <point x="306" y="-64" type="line"/>
      <point x="306" y="1289" type="line"/>
      <point x="46" y="1289" type="line"/>
      <point x="46" y="1416" type="line"/>
      <point x="457" y="1416" type="line"/>
      <point x="457" y="-192" type="line"/>
      <point x="46" y="-192" type="line"/>
    </contour>
  </outline>
</glyph>
<glyph name="grave" format="1">
  <advance width="1073"/>
  <unicode hex="0060"/>
  <outline>
    <contour>
      <point x="681" y="1241" type="line"/>
      <point x="672" y="1247"/>
      <point x="610" y="1257"/>
      <point x="591" y="1270" type="curve" smooth="yes"/>
      <point x="529" y="1320"/>
      <point x="469" y="1371"/>
      <point x="413" y="1423" type="curve"/>
      <point x="371" y="1466"/>
      <point x="342" y="1503"/>
      <point x="327" y="1524" type="curve"/>
      <point x="417" y="1536" type="line"/>
      <point x="424" y="1526"/>
      <point x="536" y="1510"/>
      <point x="557" y="1487" type="curve"/>
      <point x="569" y="1465"/>
      <point x="605" y="1419"/>
      <point x="638" y="1375" type="curve"/>
      <point x="671" y="1332"/>
      <point x="703" y="1287"/>
      <point x="736" y="1252" type="curve"/>
    </contour>
  </outline>
</glyph>
<glyph name="a" format="1">
  <advance width="1025"/>
  <unicode hex="0061"/>
  <outline>
    <contour>
      <point x="765" y="0" type="line"/>
      <point x="735" y="140" type="line"/>
      <point x="728" y="140" type="line"/>
      <point x="679" y="79"/>
      <point x="630" y="37"/>
      <point x="581" y="15" type="curve" smooth="yes"/>
      <point x="532" y="-7"/>
      <point x="471" y="-18"/>
      <point x="398" y="-18" type="curve" smooth="yes"/>
      <point x="202" y="-18"/>
      <point x="85" y="86"/>
      <point x="85" y="273" type="curve" smooth="yes"/>
      <point x="85" y="472"/>
      <point x="244" y="576"/>
      <point x="562" y="586" type="curve" smooth="yes"/>
      <point x="730" y="591" type="line"/>
      <point x="730" y="652" type="line" smooth="yes"/>
      <point x="730" y="808"/>
      <point x="667" y="879"/>
      <point x="520" y="879" type="curve" smooth="yes"/>
      <point x="438" y="879"/>
      <point x="345" y="854"/>
      <point x="241" y="804" type="curve"/>
      <point x="195" y="918" type="line"/>
      <point x="292" y="971"/>
      <point x="413" y="1003"/>
      <point x="529" y="1003" type="curve" smooth="yes"/>
      <point x="765" y="1003"/>
      <point x="876" y="904"/>
      <point x="876" y="673" type="curve" smooth="yes"/>
      <point x="876" y="0" type="line"/>
    </contour>
    <contour>
      <point x="427" y="105" type="curve" smooth="yes"/>
      <point x="614" y="105"/>
      <point x="726" y="212"/>
      <point x="726" y="396" type="curve" smooth="yes"/>
      <point x="726" y="485" type="line"/>
      <point x="577" y="479" type="line" smooth="yes"/>
      <point x="340" y="470"/>
      <point x="241" y="408"/>
      <point x="241" y="271" type="curve" smooth="yes"/>
      <point x="241" y="163"/>
      <point x="310" y="105"/>
    </contour>
  </outline>
</glyph>
<glyph name="c" format="1">
  <advance width="877"/>
  <unicode hex="0063"/>
  <outline>
    <contour>
      <point x="553" y="-18" type="curve" smooth="yes"/>
      <point x="410" y="-18"/>
      <point x="299" y="26"/>
      <point x="220" y="114" type="curve" smooth="yes"/>
      <point x="142" y="202"/>
      <point x="103" y="326"/>
      <point x="103" y="487" type="curve" smooth="yes"/>
      <point x="103" y="652"/>
      <point x="143" y="779"/>
      <point x="222" y="869" type="curve" smooth="yes"/>
      <point x="302" y="959"/>
      <point x="415" y="1004"/>
      <point x="562" y="1004" type="curve" smooth="yes"/>
      <point x="610" y="1004"/>
      <point x="658" y="999"/>
      <point x="705" y="989" type="curve" smooth="yes"/>
      <point x="752" y="979"/>
      <point x="789" y="967"/>
      <point x="816" y="953" type="curve"/>
      <point x="770" y="826" type="line"/>
      <point x="705" y="853"/>
      <point x="619" y="872"/>
      <point x="559" y="872" type="curve" smooth="yes"/>
      <point x="358" y="872"/>
      <point x="258" y="744"/>
      <point x="258" y="489" type="curve" smooth="yes"/>
      <point x="258" y="246"/>
      <point x="357" y="112"/>
      <point x="549" y="112" type="curve" smooth="yes"/>
      <point x="631" y="112"/>
      <point x="715" y="130"/>
      <point x="802" y="166" type="curve"/>
      <point x="802" y="33" type="line"/>
      <point x="736" y="-1"/>
      <point x="653" y="-18"/>
    </contour>
  </outline>
</glyph>
<glyph name="d" format="1">
  <advance width="1129"/>
  <unicode hex="0064"/>
  <outline>
    <contour>
      <point x="830" y="132" type="line"/>
      <point x="822" y="132" type="line"/>
      <point x="753" y="32"/>
      <point x="649" y="-18"/>
      <point x="512" y="-18" type="curve" smooth="yes"/>
      <point x="383" y="-18"/>
      <point x="283" y="26"/>
      <point x="211" y="114" type="curve" smooth="yes"/>
      <point x="139" y="203"/>
      <point x="103" y="328"/>
      <point x="103" y="490" type="curve" smooth="yes"/>
      <point x="103" y="653"/>
      <point x="139" y="779"/>
      <point x="211" y="869" type="curve" smooth="yes"/>
      <point x="283" y="959"/>
      <point x="383" y="1004"/>
      <point x="512" y="1004" type="curve" smooth="yes"/>
      <point x="646" y="1004"/>
      <point x="749" y="956"/>
      <point x="820" y="859" type="curve"/>
      <point x="832" y="859" type="line"/>
      <point x="825" y="930" type="line"/>
      <point x="822" y="999" type="line"/>
      <point x="822" y="1400" type="line"/>
      <point x="971" y="1400" type="line"/>
      <point x="971" y="0" type="line"/>
      <point x="850" y="0" type="line"/>
    </contour>
    <contour>
      <point x="531" y="107" type="curve" smooth="yes"/>
      <point x="735" y="107"/>
      <point x="822" y="212"/>
      <point x="822" y="459" type="curve" smooth="yes"/>
      <point x="822" y="490" type="line" smooth="yes"/>
      <point x="822" y="630"/>
      <point x="799" y="730"/>
      <point x="752" y="789" type="curve" smooth="yes"/>
      <point x="705" y="849"/>
      <point x="631" y="879"/>
      <point x="529" y="879" type="curve" smooth="yes"/>
      <point x="354" y="879"/>
      <point x="258" y="737"/>
      <point x="258" y="489" type="curve" smooth="yes"/>
      <point x="258" y="237"/>
      <point x="352" y="107"/>
    </contour>
  </outline>
</glyph>
<glyph name="e" format="1">
  <advance width="1034"/>
  <unicode hex="0065"/>
  <outline>
    <contour>
      <point x="575" y="-18" type="curve" smooth="yes"/>
      <point x="429" y="-18"/>
      <point x="314" y="26"/>
      <point x="229" y="115" type="curve" smooth="yes"/>
      <point x="145" y="204"/>
      <point x="103" y="327"/>
      <point x="103" y="485" type="curve" smooth="yes"/>
      <point x="103" y="644"/>
      <point x="142" y="771"/>
      <point x="220" y="864" type="curve" smooth="yes"/>
      <point x="299" y="957"/>
      <point x="404" y="1004"/>
      <point x="536" y="1004" type="curve" smooth="yes"/>
      <point x="660" y="1004"/>
      <point x="758" y="963"/>
      <point x="830" y="882" type="curve" smooth="yes"/>
      <point x="902" y="801"/>
      <point x="938" y="694"/>
      <point x="938" y="561" type="curve" smooth="yes"/>
      <point x="938" y="466" type="line"/>
      <point x="258" y="466" type="line"/>
      <point x="265" y="234"/>
      <point x="379" y="112"/>
      <point x="580" y="112" type="curve" smooth="yes"/>
      <point x="687" y="112"/>
      <point x="792" y="134"/>
      <point x="895" y="179" type="curve"/>
      <point x="895" y="46" type="line"/>
      <point x="842" y="23"/>
      <point x="792" y="7"/>
      <point x="745" y="-3" type="curve" smooth="yes"/>
      <point x="698" y="-13"/>
      <point x="642" y="-18"/>
    </contour>
    <contour>
      <point x="535" y="879" type="curve" smooth="yes"/>
      <point x="376" y="879"/>
      <point x="278" y="769"/>
      <point x="262" y="588" type="curve"/>
      <point x="778" y="588" type="line"/>
      <point x="778" y="776"/>
      <point x="691" y="879"/>
    </contour>
  </outline>
</glyph>
<glyph name="f" format="1">
  <advance width="625"/>
  <unicode hex="0066"/>
  <outline>
    <contour>
      <point x="603" y="870" type="line"/>
      <point x="352" y="870" type="line"/>
      <point x="352" y="0" type="line"/>
      <point x="202" y="0" type="line"/>
      <point x="202" y="870" type="line"/>
      <point x="26" y="870" type="line"/>
      <point x="26" y="938" type="line"/>
      <point x="202" y="992" type="line"/>
      <point x="202" y="1047" type="line" smooth="yes"/>
      <point x="202" y="1289"/>
      <point x="308" y="1410"/>
      <point x="520" y="1410" type="curve" smooth="yes"/>
      <point x="572" y="1410"/>
      <point x="633" y="1400"/>
      <point x="704" y="1379" type="curve"/>
      <point x="665" y="1259" type="line"/>
      <point x="608" y="1278"/>
      <point x="558" y="1287"/>
      <point x="517" y="1287" type="curve" smooth="yes"/>
      <point x="405" y="1287"/>
      <point x="352" y="1215"/>
      <point x="352" y="1050" type="curve" smooth="yes"/>
      <point x="352" y="986" type="line"/>
      <point x="603" y="986" type="line"/>
    </contour>
  </outline>
</glyph>
<glyph name="g" format="1">
  <advance width="1010"/>
  <unicode hex="0067"/>
  <outline>
    <contour>
      <point x="966" y="986" type="line"/>
      <point x="966" y="892" type="line"/>
      <point x="783" y="870" type="line"/>
      <point x="816" y="829"/>
      <point x="848" y="758"/>
      <point x="848" y="673" type="curve" smooth="yes"/>
      <point x="848" y="576"/>
      <point x="815" y="499"/>
      <point x="749" y="441" type="curve" smooth="yes"/>
      <point x="683" y="384"/>
      <point x="592" y="355"/>
      <point x="477" y="355" type="curve" smooth="yes"/>
      <point x="448" y="355"/>
      <point x="420" y="358"/>
      <point x="394" y="363" type="curve"/>
      <point x="331" y="329"/>
      <point x="299" y="287"/>
      <point x="299" y="236" type="curve" smooth="yes"/>
      <point x="299" y="181"/>
      <point x="338" y="157"/>
      <point x="446" y="157" type="curve" smooth="yes"/>
      <point x="621" y="157" type="line" smooth="yes"/>
      <point x="834" y="157"/>
      <point x="953" y="65"/>
      <point x="953" y="-107" type="curve" smooth="yes"/>
      <point x="953" y="-326"/>
      <point x="774" y="-443"/>
      <point x="438" y="-443" type="curve" smooth="yes"/>
      <point x="181" y="-443"/>
      <point x="35" y="-343"/>
      <point x="35" y="-167" type="curve" smooth="yes"/>
      <point x="35" y="-47"/>
      <point x="115" y="46"/>
      <point x="255" y="77" type="curve"/>
      <point x="204" y="100"/>
      <point x="166" y="150"/>
      <point x="166" y="214" type="curve" smooth="yes"/>
      <point x="166" y="286"/>
      <point x="202" y="336"/>
      <point x="285" y="387" type="curve"/>
      <point x="234" y="408"/>
      <point x="193" y="443"/>
      <point x="160" y="494" type="curve" smooth="yes"/>
      <point x="128" y="545"/>
      <point x="112" y="602"/>
      <point x="112" y="667" type="curve" smooth="yes"/>
      <point x="112" y="883"/>
      <point x="248" y="1004"/>
      <point x="485" y="1004" type="curve" smooth="yes"/>
      <point x="536" y="1004"/>
      <point x="583" y="998"/>
      <point x="625" y="986" type="curve"/>
    </contour>
    <contour>
      <point x="179" y="-166" type="curve" smooth="yes"/>
      <point x="179" y="-273"/>
      <point x="272" y="-329"/>
      <point x="440" y="-329" type="curve" smooth="yes"/>
      <point x="691" y="-329"/>
      <point x="809" y="-248"/>
      <point x="809" y="-120" type="curve" smooth="yes"/>
      <point x="809" y="-67"/>
      <point x="792" y="-30"/>
      <point x="759" y="-9" type="curve" smooth="yes"/>
      <point x="726" y="12"/>
      <point x="664" y="22"/>
      <point x="573" y="22" type="curve" smooth="yes"/>
      <point x="394" y="22" type="line" smooth="yes"/>
      <point x="258" y="22"/>
      <point x="179" y="-45"/>
    </contour>
    <contour>
      <point x="260" y="670" type="curve" smooth="yes"/>
      <point x="260" y="533"/>
      <point x="342" y="461"/>
      <point x="481" y="461" type="curve" smooth="yes"/>
      <point x="627" y="461"/>
      <point x="700" y="532"/>
      <point x="700" y="673" type="curve" smooth="yes"/>
      <point x="700" y="821"/>
      <point x="626" y="895"/>
      <point x="479" y="895" type="curve" smooth="yes"/>
      <point x="338" y="895"/>
      <point x="260" y="819"/>
    </contour>
  </outline>
</glyph>
<glyph name="h" format="1">
  <advance width="1131"/>
  <unicode hex="0068"/>
  <outline>
    <contour>
      <point x="833" y="0" type="line"/>
      <point x="833" y="638" type="line" smooth="yes"/>
      <point x="833" y="799"/>
      <point x="763" y="877"/>
      <point x="607" y="877" type="curve" smooth="yes"/>
      <point x="399" y="877"/>
      <point x="308" y="772"/>
      <point x="308" y="516" type="curve" smooth="yes"/>
      <point x="308" y="0" type="line"/>
      <point x="158" y="0" type="line"/>
      <point x="158" y="1400" type="line"/>
      <point x="308" y="1400" type="line"/>
      <point x="308" y="976" type="line" smooth="yes"/>
      <point x="308" y="925"/>
      <point x="306" y="883"/>
      <point x="301" y="850" type="curve"/>
      <point x="310" y="850" type="line"/>
      <point x="369" y="945"/>
      <point x="482" y="1003"/>
      <point x="621" y="1003" type="curve" smooth="yes"/>
      <point x="862" y="1003"/>
      <point x="983" y="894"/>
      <point x="983" y="643" type="curve" smooth="yes"/>
      <point x="983" y="0" type="line"/>
    </contour>
  </outline>
</glyph>
<glyph name="i" format="1">
  <advance width="466"/>
  <unicode hex="0069"/>
  <outline>
    <contour>
      <point x="308" y="0" type="line"/>
      <point x="158" y="0" type="line"/>
      <point x="158" y="986" type="line"/>
      <point x="308" y="986" type="line"/>
    </contour>
    <contour>
      <point x="146" y="1254" type="curve" smooth="yes"/>
      <point x="146" y="1322"/>
      <point x="183" y="1353"/>
      <point x="234" y="1353" type="curve" smooth="yes"/>
      <point x="282" y="1353"/>
      <point x="322" y="1321"/>
      <point x="322" y="1254" type="curve" smooth="yes"/>
      <point x="322" y="1186"/>
      <point x="282" y="1154"/>
      <point x="234" y="1154" type="curve" smooth="yes"/>
      <point x="183" y="1154"/>
      <point x="146" y="1186"/>
    </contour>
  </outline>
</glyph>
<glyph name="j" format="1">
  <advance width="466"/>
  <unicode hex="006A"/>
  <outline>
    <contour>
      <point x="39" y="-443" type="curve" smooth="yes"/>
      <point x="-18" y="-443"/>
      <point x="-65" y="-435"/>
      <point x="-100" y="-420" type="curve"/>
      <point x="-100" y="-299" type="line"/>
      <point x="-59" y="-311"/>
      <point x="-18" y="-317"/>
      <point x="22" y="-317" type="curve" smooth="yes"/>
      <point x="117" y="-317"/>
      <point x="158" y="-266"/>
      <point x="158" y="-162" type="curve" smooth="yes"/>
      <point x="158" y="986" type="line"/>
      <point x="308" y="986" type="line"/>
      <point x="308" y="-151" type="line" smooth="yes"/>
      <point x="308" y="-346"/>
      <point x="218" y="-443"/>
    </contour>
    <contour>
      <point x="146" y="1254" type="curve" smooth="yes"/>
      <point x="146" y="1322"/>
      <point x="183" y="1353"/>
      <point x="234" y="1353" type="curve" smooth="yes"/>
      <point x="282" y="1353"/>
      <point x="322" y="1321"/>
      <point x="322" y="1254" type="curve" smooth="yes"/>
      <point x="322" y="1186"/>
      <point x="282" y="1154"/>
      <point x="234" y="1154" type="curve" smooth="yes"/>
      <point x="183" y="1154"/>
      <point x="146" y="1186"/>
    </contour>
  </outline>
</glyph>
<glyph name="k" format="1">
  <advance width="967"/>
  <unicode hex="006B"/>
  <outline>
    <contour>
      <point x="306" y="505" type="line"/>
      <point x="332" y="542"/>
      <point x="371" y="590"/>
      <point x="424" y="649" type="curve"/>
      <point x="742" y="986" type="line"/>
      <point x="920" y="986" type="line"/>
      <point x="520" y="566" type="line"/>
      <point x="948" y="0" type="line"/>
      <point x="767" y="0" type="line"/>
      <point x="418" y="466" type="line"/>
      <point x="306" y="369" type="line"/>
      <point x="306" y="0" type="line"/>
      <point x="158" y="0" type="line"/>
      <point x="158" y="1400" type="line"/>
      <point x="306" y="1400" type="line"/>
      <point x="306" y="658" type="line" smooth="yes"/>
      <point x="306" y="625"/>
      <point x="304" y="574"/>
      <point x="299" y="505" type="curve"/>
    </contour>
  </outline>
</glyph>
<glyph name="o" format="1">
  <advance width="1113"/>
  <unicode hex="006F"/>
  <outline>
    <contour>
      <point x="1010" y="494" type="curve" smooth="yes"/>
      <point x="1010" y="333"/>
      <point x="969" y="208"/>
      <point x="888" y="117" type="curve" smooth="yes"/>
      <point x="807" y="27"/>
      <point x="696" y="-18"/>
      <point x="553" y="-18" type="curve"/>
      <point x="287" y="-21"/>
      <point x="99" y="182"/>
      <point x="103" y="494" type="curve"/>
      <point x="103" y="655"/>
      <point x="143" y="780"/>
      <point x="224" y="869" type="curve" smooth="yes"/>
      <point x="305" y="959"/>
      <point x="416" y="1004"/>
      <point x="559" y="1004" type="curve" smooth="yes"/>
      <point x="697" y="1004"/>
      <point x="807" y="958"/>
      <point x="888" y="866" type="curve" smooth="yes"/>
      <point x="969" y="775"/>
      <point x="1010" y="651"/>
    </contour>
    <contour>
      <point x="258" y="494" type="curve" smooth="yes"/>
      <point x="258" y="242"/>
      <point x="360" y="107"/>
      <point x="556" y="107" type="curve" smooth="yes"/>
      <point x="752" y="107"/>
      <point x="855" y="241"/>
      <point x="855" y="494" type="curve" smooth="yes"/>
      <point x="855" y="745"/>
      <point x="753" y="877"/>
      <point x="554" y="877" type="curve" smooth="yes"/>
      <point x="359" y="877"/>
      <point x="258" y="749"/>
    </contour>
  </outline>
</glyph>
<glyph name="q" format="1">
  <advance width="1129"/>
  <unicode hex="0071"/>
  <outline>
    <contour>
      <point x="531" y="107" type="curve" smooth="yes"/>
      <point x="630" y="107"/>
      <point x="703" y="134"/>
      <point x="748" y="187" type="curve" smooth="yes"/>
      <point x="794" y="240"/>
      <point x="819" y="330"/>
      <point x="822" y="457" type="curve"/>
      <point x="822" y="490" type="line" smooth="yes"/>
      <point x="822" y="628"/>
      <point x="798" y="727"/>
      <point x="751" y="788" type="curve" smooth="yes"/>
      <point x="704" y="849"/>
      <point x="630" y="879"/>
      <point x="529" y="879" type="curve" smooth="yes"/>
      <point x="354" y="879"/>
      <point x="258" y="737"/>
      <point x="258" y="489" type="curve" smooth="yes"/>
      <point x="258" y="240"/>
      <point x="351" y="107"/>
    </contour>
    <contour>
      <point x="508" y="-18" type="curve" smooth="yes"/>
      <point x="381" y="-18"/>
      <point x="282" y="27"/>
      <point x="210" y="116" type="curve" smooth="yes"/>
      <point x="139" y="205"/>
      <point x="103" y="330"/>
      <point x="103" y="490" type="curve" smooth="yes"/>
      <point x="103" y="652"/>
      <point x="139" y="778"/>
      <point x="211" y="868" type="curve" smooth="yes"/>
      <point x="283" y="959"/>
      <point x="383" y="1004"/>
      <point x="512" y="1004" type="curve" smooth="yes"/>
      <point x="647" y="1004"/>
      <point x="751" y="953"/>
      <point x="823" y="851" type="curve"/>
      <point x="832" y="851" type="line"/>
      <point x="853" y="986" type="line"/>
      <point x="971" y="986" type="line"/>
      <point x="971" y="-443" type="line"/>
      <point x="822" y="-443" type="line"/>
      <point x="822" y="-21" type="line" smooth="yes"/>
      <point x="822" y="39"/>
      <point x="825" y="90"/>
      <point x="832" y="132" type="curve"/>
      <point x="820" y="132" type="line"/>
      <point x="751" y="32"/>
      <point x="647" y="-18"/>
    </contour>
  </outline>
</glyph>
<glyph name="r" format="1">
  <advance width="752"/>
  <unicode hex="0072"/>
  <outline>
    <contour>
      <point x="608" y="1004" type="curve" smooth="yes"/>
      <point x="652" y="1004"/>
      <point x="691" y="1001"/>
      <point x="726" y="994" type="curve"/>
      <point x="706" y="855" type="line"/>
      <point x="665" y="864"/>
      <point x="629" y="868"/>
      <point x="598" y="868" type="curve" smooth="yes"/>
      <point x="518" y="868"/>
      <point x="450" y="836"/>
      <point x="393" y="771" type="curve" smooth="yes"/>
      <point x="336" y="706"/>
      <point x="308" y="626"/>
      <point x="308" y="529" type="curve" smooth="yes"/>
      <point x="308" y="0" type="line"/>
      <point x="158" y="0" type="line"/>
      <point x="158" y="986" type="line"/>
      <point x="282" y="986" type="line"/>
      <point x="299" y="804" type="line"/>
      <point x="306" y="804" type="line"/>
      <point x="379" y="932"/>
      <point x="485" y="1004"/>
    </contour>
  </outline>
</glyph>
<glyph name="t" format="1">
  <advance width="651"/>
  <unicode hex="0074"/>
  <outline>
    <contour>
      <point x="477" y="105" type="curve" smooth="yes"/>
      <point x="530" y="105"/>
      <point x="583" y="115"/>
      <point x="612" y="123" type="curve"/>
      <point x="612" y="9" type="line"/>
      <point x="596" y="1"/>
      <point x="572" y="-5"/>
      <point x="540" y="-10" type="curve" smooth="yes"/>
      <point x="509" y="-15"/>
      <point x="480" y="-18"/>
      <point x="455" y="-18" type="curve" smooth="yes"/>
      <point x="264" y="-18"/>
      <point x="169" y="82"/>
      <point x="169" y="283" type="curve" smooth="yes"/>
      <point x="169" y="870" type="line"/>
      <point x="28" y="870" type="line"/>
      <point x="28" y="942" type="line"/>
      <point x="169" y="1004" type="line"/>
      <point x="232" y="1215" type="line"/>
      <point x="319" y="1215" type="line"/>
      <point x="319" y="986" type="line"/>
      <point x="605" y="986" type="line"/>
      <point x="605" y="870" type="line"/>
      <point x="319" y="870" type="line"/>
      <point x="319" y="290" type="line" smooth="yes"/>
      <point x="319" y="171"/>
      <point x="378" y="105"/>
    </contour>
  </outline>
</glyph>
<glyph name="u" format="1">
  <advance width="1131"/>
  <unicode hex="0075"/>
  <outline>
    <contour>
      <point x="299" y="986" type="line"/>
      <point x="299" y="346" type="line" smooth="yes"/>
      <point x="299" y="186"/>
      <point x="370" y="107"/>
      <point x="526" y="107" type="curve" smooth="yes"/>
      <point x="731" y="107"/>
      <point x="823" y="212"/>
      <point x="823" y="468" type="curve" smooth="yes"/>
      <point x="823" y="986" type="line"/>
      <point x="973" y="986" type="line"/>
      <point x="973" y="0" type="line"/>
      <point x="850" y="0" type="line"/>
      <point x="828" y="132" type="line"/>
      <point x="820" y="132" type="line"/>
      <point x="759" y="35"/>
      <point x="646" y="-18"/>
      <point x="507" y="-18" type="curve" smooth="yes"/>
      <point x="267" y="-18"/>
      <point x="148" y="90"/>
      <point x="148" y="341" type="curve" smooth="yes"/>
      <point x="148" y="986" type="line"/>
    </contour>
  </outline>
</glyph>
<glyph name="v" format="1">
  <advance width="923"/>
  <unicode hex="0076"/>
  <outline>
    <contour>
      <point x="374" y="0" type="line"/>
      <point x="0" y="986" type="line"/>
      <point x="160" y="986" type="line"/>
      <point x="373" y="401" type="line"/>
      <point x="421" y="264"/>
      <point x="449" y="176"/>
      <point x="457" y="135" type="curve"/>
      <point x="464" y="135" type="line"/>
      <point x="471" y="167"/>
      <point x="492" y="233"/>
      <point x="527" y="332" type="curve" smooth="yes"/>
      <point x="562" y="432"/>
      <point x="641" y="650"/>
      <point x="763" y="986" type="curve"/>
      <point x="923" y="986" type="line"/>
      <point x="549" y="0" type="line"/>
    </contour>
  </outline>
</glyph>
<glyph name="x" format="1">
  <advance width="966"/>
  <unicode hex="0078"/>
  <outline>
    <contour>
      <point x="396" y="505" type="line"/>
      <point x="53" y="986" type="line"/>
      <point x="223" y="986" type="line"/>
      <point x="483" y="608" type="line"/>
      <point x="742" y="986" type="line"/>
      <point x="911" y="986" type="line"/>
      <point x="568" y="505" type="line"/>
      <point x="929" y="0" type="line"/>
      <point x="760" y="0" type="line"/>
      <point x="483" y="400" type="line"/>
      <point x="204" y="0" type="line"/>
      <point x="35" y="0" type="line"/>
    </contour>
  </outline>
</glyph>
<glyph name="z" format="1">
  <advance width="862"/>
  <unicode hex="007A"/>
  <outline>
    <contour>
      <point x="789" y="0" type="line"/>
      <point x="74" y="0" type="line"/>
      <point x="74" y="102" type="line"/>
      <point x="612" y="870" type="line"/>
      <point x="107" y="870" type="line"/>
      <point x="107" y="986" type="line"/>
      <point x="776" y="986" type="line"/>
      <point x="776" y="870" type="line"/>
      <point x="245" y="116" type="line"/>
      <point x="789" y="116" type="line"/>
    </contour>
  </outline>
</glyph>
<glyph name="braceleft" format="1">
  <advance width="698"/>
  <unicode hex="007B"/>
  <outline>
    <contour>
      <point x="427" y="11" type="line" smooth="yes"/>
      <point x="427" y="-112"/>
      <point x="499" y="-163"/>
      <point x="634" y="-166" type="curve"/>
      <point x="634" y="-292" type="line"/>
      <point x="406" y="-289"/>
      <point x="276" y="-183"/>
      <point x="276" y="2" type="curve" smooth="yes"/>
      <point x="276" y="274" type="line" smooth="yes"/>
      <point x="276" y="399"/>
      <point x="199" y="448"/>
      <point x="55" y="448" type="curve"/>
      <point x="55" y="575" type="line"/>
      <point x="211" y="578"/>
      <point x="276" y="631"/>
      <point x="276" y="746" type="curve" smooth="yes"/>
      <point x="276" y="1021" type="line" smooth="yes"/>
      <point x="276" y="1114"/>
      <point x="308" y="1187"/>
      <point x="373" y="1238" type="curve" smooth="yes"/>
      <point x="438" y="1290"/>
      <point x="525" y="1316"/>
      <point x="634" y="1316" type="curve"/>
      <point x="634" y="1191" type="line"/>
      <point x="496" y="1187"/>
      <point x="427" y="1127"/>
      <point x="427" y="1012" type="curve" smooth="yes"/>
      <point x="427" y="746" type="line" smooth="yes"/>
      <point x="427" y="617"/>
      <point x="360" y="541"/>
      <point x="227" y="517" type="curve"/>
      <point x="227" y="507" type="line"/>
      <point x="360" y="484"/>
      <point x="427" y="407"/>
      <point x="427" y="278" type="curve" smooth="yes"/>
    </contour>
  </outline>
</glyph>
<glyph name="braceright" format="1">
  <advance width="698"/>
  <unicode hex="007D"/>
  <outline>
    <contour>
      <point x="470" y="517" type="line"/>
      <point x="336" y="541"/>
      <point x="269" y="617"/>
      <point x="269" y="746" type="curve" smooth="yes"/>
      <point x="269" y="1012" type="line" smooth="yes"/>
      <point x="269" y="1127"/>
      <point x="201" y="1187"/>
      <point x="65" y="1191" type="curve"/>
      <point x="65" y="1316" type="line"/>
      <point x="175" y="1316"/>
      <point x="262" y="1290"/>
      <point x="325" y="1237" type="curve" smooth="yes"/>
      <point x="388" y="1185"/>
      <point x="420" y="1113"/>
      <point x="420" y="1021" type="curve" smooth="yes"/>
      <point x="420" y="746" type="line" smooth="yes"/>
      <point x="420" y="630"/>
      <point x="487" y="578"/>
      <point x="643" y="575" type="curve"/>
      <point x="643" y="448" type="line"/>
      <point x="498" y="448"/>
      <point x="420" y="399"/>
      <point x="420" y="274" type="curve" smooth="yes"/>
      <point x="420" y="2" type="line" smooth="yes"/>
      <point x="420" y="-182"/>
      <point x="293" y="-289"/>
      <point x="65" y="-292" type="curve"/>
      <point x="65" y="-166" type="line"/>
      <point x="198" y="-163"/>
      <point x="269" y="-112"/>
      <point x="269" y="11" type="curve" smooth="yes"/>
      <point x="269" y="278" type="line" smooth="yes"/>
      <point x="269" y="415"/>
      <point x="334" y="483"/>
      <point x="470" y="507" type="curve"/>
    </contour>
  </outline>
</glyph>
<glyph name="asciitilde.deva" format="1">
  <advance width="1054"/>
  <unicode hex="007E"/>
  <outline>
    <contour>
      <point x="304" y="642" type="curve" smooth="yes"/>
      <point x="240" y="642"/>
      <point x="158" y="597"/>
      <point x="94" y="533" type="curve"/>
      <point x="94" y="669" type="line"/>
      <point x="154" y="734"/>
      <point x="227" y="767"/>
      <point x="313" y="767" type="curve" smooth="yes"/>
      <point x="354" y="767"/>
      <point x="391" y="763"/>
      <point x="425" y="754" type="curve" smooth="yes"/>
      <point x="459" y="746"/>
      <point x="503" y="730"/>
      <point x="556" y="707" type="curve" smooth="yes"/>
      <point x="636" y="674"/>
      <point x="690" y="658"/>
      <point x="746" y="658" type="curve" smooth="yes"/>
      <point x="811" y="658"/>
      <point x="894" y="698"/>
      <point x="958" y="767" type="curve"/>
      <point x="958" y="632" type="line"/>
      <point x="897" y="566"/>
      <point x="824" y="533"/>
      <point x="739" y="533" type="curve" smooth="yes"/>
      <point x="652" y="533"/>
      <point x="583" y="552"/>
      <point x="496" y="591" type="curve"/>
      <point x="451" y="610"/>
      <point x="414" y="624"/>
      <point x="387" y="631" type="curve" smooth="yes"/>
      <point x="360" y="638"/>
      <point x="333" y="642"/>
    </contour>
  </outline>
</glyph>
<glyph name="copyright" format="1">
  <advance width="1534"/>
  <unicode hex="00A9"/>
  <outline>
    <contour>
      <point x="804" y="953" type="curve" smooth="yes"/>
      <point x="653" y="953"/>
      <point x="570" y="842"/>
      <point x="570" y="658" type="curve" smooth="yes"/>
      <point x="570" y="457"/>
      <point x="645" y="361"/>
      <point x="802" y="361" type="curve" smooth="yes"/>
      <point x="853" y="361"/>
      <point x="917" y="374"/>
      <point x="992" y="401" type="curve"/>
      <point x="992" y="290" type="line"/>
      <point x="935" y="266"/>
      <point x="879" y="247"/>
      <point x="795" y="247" type="curve" smooth="yes"/>
      <point x="562" y="247"/>
      <point x="433" y="398"/>
      <point x="433" y="658" type="curve" smooth="yes"/>
      <point x="433" y="783"/>
      <point x="466" y="883"/>
      <point x="532" y="956" type="curve" smooth="yes"/>
      <point x="599" y="1030"/>
      <point x="689" y="1067"/>
      <point x="804" y="1067" type="curve" smooth="yes"/>
      <point x="881" y="1067"/>
      <point x="954" y="1049"/>
      <point x="1025" y="1013" type="curve"/>
      <point x="973" y="907" type="line"/>
      <point x="908" y="938"/>
      <point x="852" y="953"/>
    </contour>
    <contour>
      <point x="90" y="658" type="curve" smooth="yes"/>
      <point x="90" y="778"/>
      <point x="120" y="890"/>
      <point x="180" y="995" type="curve" smooth="yes"/>
      <point x="240" y="1100"/>
      <point x="322" y="1183"/>
      <point x="427" y="1244" type="curve" smooth="yes"/>
      <point x="532" y="1305"/>
      <point x="646" y="1335"/>
      <point x="767" y="1335" type="curve" smooth="yes"/>
      <point x="887" y="1335"/>
      <point x="999" y="1305"/>
      <point x="1104" y="1245" type="curve" smooth="yes"/>
      <point x="1209" y="1185"/>
      <point x="1292" y="1102"/>
      <point x="1353" y="997" type="curve" smooth="yes"/>
      <point x="1414" y="892"/>
      <point x="1444" y="779"/>
      <point x="1444" y="658" type="curve" smooth="yes"/>
      <point x="1444" y="540"/>
      <point x="1415" y="429"/>
      <point x="1356" y="325" type="curve" smooth="yes"/>
      <point x="1298" y="221"/>
      <point x="1216" y="138"/>
      <point x="1111" y="75" type="curve" smooth="yes"/>
      <point x="1006" y="13"/>
      <point x="892" y="-18"/>
      <point x="767" y="-18" type="curve" smooth="yes"/>
      <point x="642" y="-18"/>
      <point x="527" y="13"/>
      <point x="422" y="75" type="curve" smooth="yes"/>
      <point x="317" y="137"/>
      <point x="236" y="220"/>
      <point x="177" y="324" type="curve" smooth="yes"/>
      <point x="119" y="428"/>
      <point x="90" y="539"/>
    </contour>
    <contour>
      <point x="184" y="658" type="curve" smooth="yes"/>
      <point x="184" y="554"/>
      <point x="210" y="457"/>
      <point x="262" y="366" type="curve"/>
      <point x="315" y="276"/>
      <point x="386" y="205"/>
      <point x="476" y="153" type="curve"/>
      <point x="567" y="102"/>
      <point x="664" y="76"/>
      <point x="767" y="76" type="curve" smooth="yes"/>
      <point x="871" y="76"/>
      <point x="968" y="102"/>
      <point x="1057" y="154" type="curve" smooth="yes"/>
      <point x="1147" y="206"/>
      <point x="1218" y="276"/>
      <point x="1270" y="365" type="curve" smooth="yes"/>
      <point x="1323" y="454"/>
      <point x="1349" y="552"/>
      <point x="1349" y="658" type="curve" smooth="yes"/>
      <point x="1349" y="762"/>
      <point x="1323" y="859"/>
      <point x="1270" y="948" type="curve"/>
      <point x="1218" y="1038"/>
      <point x="1147" y="1109"/>
      <point x="1058" y="1161" type="curve" smooth="yes"/>
      <point x="969" y="1214"/>
      <point x="872" y="1240"/>
      <point x="767" y="1240" type="curve" smooth="yes"/>
      <point x="662" y="1240"/>
      <point x="565" y="1214"/>
      <point x="476" y="1162" type="curve" smooth="yes"/>
      <point x="387" y="1110"/>
      <point x="316" y="1039"/>
      <point x="263" y="950" type="curve" smooth="yes"/>
      <point x="210" y="861"/>
      <point x="184" y="763"/>
    </contour>
  </outline>
</glyph>
<glyph name="invertedcandrabindu" format="1">
  <advance width="0"/>
  <unicode hex="0900"/>
  <outline>
    <component base="candrabindudeva" xScale="-1.0" yScale="-1.0" xOffset="-637" yOffset="3227"/>
    <contour>
      <point x="-391" y="1279" type="move" name="_top"/>
    </contour>
  </outline>
</glyph>
<glyph name="anusvaradeva" format="1">
  <advance width="0"/>
  <unicode hex="0902"/>
  <outline>
    <contour>
      <point x="-315" y="1691" type="curve" smooth="yes"/>
      <point x="-252" y="1691"/>
      <point x="-219" y="1649"/>
      <point x="-219" y="1591" type="curve" smooth="yes"/>
      <point x="-219" y="1535"/>
      <point x="-252" y="1491"/>
      <point x="-315" y="1491" type="curve" smooth="yes"/>
      <point x="-376" y="1491"/>
      <point x="-410" y="1534"/>
      <point x="-410" y="1591" type="curve" smooth="yes"/>
      <point x="-410" y="1649"/>
      <point x="-376" y="1691"/>
    </contour>
    <contour>
      <point x="-391" y="1279" type="move" name="_top"/>
    </contour>
  </outline>
</glyph>
<glyph name="adeva" format="1">
  <advance width="1576"/>
  <unicode hex="0905"/>
  <outline>
    <contour>
      <point x="306" y="665" type="line"/>
      <point x="279" y="787" type="line"/>
      <point x="286" y="787" type="line" smooth="yes"/>
      <point x="545" y="787"/>
      <point x="672" y="899"/>
      <point x="672" y="1006" type="curve" smooth="yes"/>
      <point x="672" y="1099"/>
      <point x="598" y="1167"/>
      <point x="463" y="1167" type="curve" smooth="yes"/>
      <point x="369" y="1167"/>
      <point x="265" y="1130"/>
      <point x="181" y="1079" type="curve"/>
      <point x="136" y="1204" type="line"/>
      <point x="219" y="1251"/>
      <point x="339" y="1292"/>
      <point x="463" y="1292" type="curve" smooth="yes"/>
      <point x="684" y="1292"/>
      <point x="801" y="1165"/>
      <point x="801" y="1002" type="curve" smooth="yes"/>
      <point x="801" y="819"/>
      <point x="633" y="665"/>
      <point x="317" y="665" type="curve" smooth="yes"/>
    </contour>
    <contour>
      <point x="620" y="816" type="line"/>
      <point x="779" y="724"/>
      <point x="865" y="603"/>
      <point x="865" y="447" type="curve" smooth="yes"/>
      <point x="865" y="269"/>
      <point x="740" y="119"/>
      <point x="524" y="119" type="curve" smooth="yes"/>
      <point x="382" y="119"/>
      <point x="229" y="176"/>
      <point x="95" y="280" type="curve"/>
      <point x="137" y="406" type="line"/>
      <point x="269" y="296"/>
      <point x="388" y="252"/>
      <point x="505" y="252" type="curve" smooth="yes"/>
      <point x="648" y="252"/>
      <point x="731" y="344"/>
      <point x="731" y="457" type="curve" smooth="yes"/>
      <point x="731" y="579"/>
      <point x="650" y="676"/>
      <point x="517" y="732" type="curve"/>
    </contour>
    <contour>
      <point x="754" y="653" type="line"/>
      <point x="823" y="634"/>
      <point x="895" y="627"/>
      <point x="963" y="627" type="curve" smooth="yes"/>
      <point x="1045" y="627"/>
      <point x="1145" y="653"/>
      <point x="1208" y="698" type="curve"/>
      <point x="1208" y="549" type="line"/>
      <point x="1163" y="524"/>
      <point x="1074" y="503"/>
      <point x="989" y="503" type="curve" smooth="yes"/>
      <point x="921" y="503"/>
      <point x="835" y="514"/>
      <point x="768" y="531" type="curve"/>
    </contour>
    <contour>
      <point x="1188" y="1196" type="line"/>
      <point x="1336" y="1196" type="line"/>
      <point x="1336" y="0" type="line"/>
      <point x="1188" y="0" type="line"/>
    </contour>
    <contour>
      <point x="1606" y="1165" type="line"/>
      <point x="967" y="1165" type="line"/>
      <point x="967" y="1279" type="line"/>
      <point x="1606" y="1279" type="line"/>
    </contour>
  </outline>
</glyph>
<glyph name="aadeva" format="1">
  <advance width="2153"/>
  <unicode hex="0906"/>
  <outline>
    <contour>
      <point x="619" y="824" type="line"/>
      <point x="778" y="742"/>
      <point x="865" y="640"/>
      <point x="865" y="487" type="curve" smooth="yes"/>
      <point x="865" y="317"/>
      <point x="734" y="174"/>
      <point x="526" y="174" type="curve" smooth="yes"/>
      <point x="369" y="174"/>
      <point x="244" y="230"/>
      <point x="117" y="326" type="curve"/>
      <point x="155" y="447" type="line"/>
      <point x="277" y="350"/>
      <point x="383" y="302"/>
      <point x="503" y="302" type="curve" smooth="yes"/>
      <point x="650" y="302"/>
      <point x="731" y="384"/>
      <point x="731" y="499" type="curve" smooth="yes"/>
      <point x="731" y="603"/>
      <point x="660" y="687"/>
      <point x="527" y="743" type="curve"/>
    </contour>
    <contour>
      <point x="818" y="1003" type="curve" smooth="yes"/>
      <point x="818" y="832"/>
      <point x="659" y="685"/>
      <point x="343" y="685" type="curve" smooth="yes"/>
      <point x="332" y="685" type="line"/>
      <point x="305" y="805" type="line"/>
      <point x="312" y="805" type="line" smooth="yes"/>
      <point x="571" y="805"/>
      <point x="693" y="906"/>
      <point x="693" y="1014" type="curve" smooth="yes"/>
      <point x="693" y="1102"/>
      <point x="618" y="1162"/>
      <point x="495" y="1162" type="curve" smooth="yes"/>
      <point x="401" y="1162"/>
      <point x="308" y="1131"/>
      <point x="224" y="1082" type="curve"/>
      <point x="180" y="1206" type="line"/>
      <point x="264" y="1251"/>
      <point x="375" y="1286"/>
      <point x="495" y="1286" type="curve" smooth="yes"/>
      <point x="706" y="1286"/>
      <point x="818" y="1171"/>
    </contour>
    <contour>
      <point x="764" y="659" type="line"/>
      <point x="826" y="638"/>
      <point x="883" y="631"/>
      <point x="965" y="631" type="curve" smooth="yes"/>
      <point x="1050" y="631"/>
      <point x="1145" y="653"/>
      <point x="1208" y="698" type="curve"/>
      <point x="1208" y="549" type="line"/>
      <point x="1166" y="528"/>
      <point x="1082" y="509"/>
      <point x="993" y="509" type="curve" smooth="yes"/>
      <point x="914" y="509"/>
      <point x="845" y="520"/>
      <point x="778" y="533" type="curve"/>
    </contour>
    <contour>
      <point x="1765" y="1196" type="line"/>
      <point x="1913" y="1196" type="line"/>
      <point x="1913" y="0" type="line"/>
      <point x="1765" y="0" type="line"/>
    </contour>
    <contour>
      <point x="1188" y="1196" type="line"/>
      <point x="1336" y="1196" type="line"/>
      <point x="1336" y="0" type="line"/>
      <point x="1188" y="0" type="line"/>
    </contour>
    <contour>
      <point x="2181" y="1165" type="line"/>
      <point x="967" y="1165" type="line"/>
      <point x="967" y="1279" type="line"/>
      <point x="2181" y="1279" type="line"/>
    </contour>
  </outline>
</glyph>
<glyph name="ideva" format="1">
  <advance width="1011"/>
  <unicode hex="0907"/>
  <outline>
    <contour>
      <point x="501" y="128" type="line"/>
      <point x="755" y="-147" type="line"/>
      <point x="657" y="-221" type="line"/>
      <point x="350" y="114" type="line"/>
      <point x="429" y="54" type="line"/>
      <point x="213" y="54"/>
      <point x="136" y="121"/>
      <point x="136" y="191" type="curve" smooth="yes"/>
      <point x="136" y="250"/>
      <point x="185" y="300"/>
      <point x="254" y="300" type="curve" smooth="yes"/>
      <point x="325" y="300"/>
      <point x="390" y="263"/>
      <point x="491" y="150" type="curve"/>
    </contour>
    <contour>
      <point x="661" y="1200" type="line"/>
      <point x="809" y="1200" type="line"/>
      <point x="809" y="833" type="line"/>
      <point x="396" y="833" type="line" smooth="yes"/>
      <point x="293" y="833"/>
      <point x="246" y="776"/>
      <point x="246" y="709" type="curve" smooth="yes"/>
      <point x="246" y="638"/>
      <point x="297" y="577"/>
      <point x="389" y="547" type="curve"/>
      <point x="313" y="547" type="line"/>
      <point x="393" y="592"/>
      <point x="490" y="628"/>
      <point x="590" y="628" type="curve" smooth="yes"/>
      <point x="794" y="628"/>
      <point x="900" y="517"/>
      <point x="900" y="372" type="curve" smooth="yes"/>
      <point x="900" y="201"/>
      <point x="728" y="58"/>
      <point x="449" y="58" type="curve"/>
      <point x="406" y="177" type="line"/>
      <point x="646" y="177"/>
      <point x="769" y="272"/>
      <point x="769" y="372" type="curve" smooth="yes"/>
      <point x="769" y="450"/>
      <point x="709" y="503"/>
      <point x="590" y="503" type="curve" smooth="yes"/>
      <point x="517" y="503"/>
      <point x="426" y="465"/>
      <point x="361" y="424" type="curve"/>
      <point x="352" y="424" type="line"/>
      <point x="188" y="502"/>
      <point x="111" y="605"/>
      <point x="111" y="726" type="curve" smooth="yes"/>
      <point x="111" y="847"/>
      <point x="191" y="952"/>
      <point x="397" y="952" type="curve" smooth="yes"/>
      <point x="707" y="952" type="line"/>
      <point x="661" y="904" type="line"/>
    </contour>
    <contour>
      <point x="1041" y="1165" type="line"/>
      <point x="-30" y="1165" type="line"/>
      <point x="-30" y="1279" type="line"/>
      <point x="1041" y="1279" type="line"/>
    </contour>
  </outline>
</glyph>
<glyph name="udeva" format="1">
  <advance width="1066"/>
  <unicode hex="0909"/>
  <outline>
    <contour>
      <point x="295" y="632" type="line"/>
      <point x="266" y="756" type="line"/>
      <point x="296" y="757" type="line" smooth="yes"/>
      <point x="596" y="767"/>
      <point x="709" y="862"/>
      <point x="709" y="984" type="curve" smooth="yes"/>
      <point x="709" y="1065"/>
      <point x="664" y="1134"/>
      <point x="564" y="1185" type="curve"/>
      <point x="659" y="1264" type="line"/>
      <point x="784" y="1201"/>
      <point x="845" y="1112"/>
      <point x="845" y="972" type="curve" smooth="yes"/>
      <point x="845" y="788"/>
      <point x="672" y="632"/>
      <point x="324" y="632" type="curve" smooth="yes"/>
    </contour>
    <contour>
      <point x="-30" y="1165" type="line"/>
      <point x="-30" y="1279" type="line"/>
      <point x="1096" y="1279" type="line"/>
      <point x="1096" y="1165" type="line"/>
    </contour>
    <contour>
      <point x="641" y="777" type="line"/>
      <point x="836" y="681"/>
      <point x="932" y="542"/>
      <point x="932" y="382" type="curve" smooth="yes"/>
      <point x="932" y="188"/>
      <point x="781" y="32"/>
      <point x="546" y="32" type="curve" smooth="yes"/>
      <point x="365" y="32"/>
      <point x="226" y="82"/>
      <point x="66" y="191" type="curve"/>
      <point x="110" y="318" type="line"/>
      <point x="256" y="207"/>
      <point x="393" y="162"/>
      <point x="540" y="162" type="curve" smooth="yes"/>
      <point x="698" y="162"/>
      <point x="798" y="260"/>
      <point x="798" y="393" type="curve" smooth="yes"/>
      <point x="798" y="513"/>
      <point x="700" y="630"/>
      <point x="538" y="685" type="curve"/>
    </contour>
    <contour>
      <point x="598.0" y="1279.0" type="move" name="top"/>
    </contour>
  </outline>
</glyph>
<glyph name="uudeva" format="1">
  <advance width="1534"/>
  <unicode hex="090A"/>
  <outline>
    <contour>
      <point x="823" y="503" type="curve"/>
      <point x="762" y="640" type="line"/>
      <point x="843" y="702"/>
      <point x="969" y="765"/>
      <point x="1088" y="765" type="curve" smooth="yes"/>
      <point x="1295" y="765"/>
      <point x="1421" y="642"/>
      <point x="1421" y="448" type="curve" smooth="yes"/>
      <point x="1421" y="325"/>
      <point x="1371" y="200"/>
      <point x="1290" y="90" type="curve"/>
      <point x="1162" y="142" type="line"/>
      <point x="1246" y="258"/>
      <point x="1291" y="365"/>
      <point x="1291" y="464" type="curve" smooth="yes"/>
      <point x="1291" y="567"/>
      <point x="1224" y="639"/>
      <point x="1107" y="639" type="curve" smooth="yes"/>
      <point x="1004" y="639"/>
      <point x="903" y="584"/>
    </contour>
    <contour>
      <point x="1054" y="1165" type="line"/>
      <point x="1052" y="1279" type="line"/>
      <point x="1564" y="1279" type="line"/>
      <point x="1564" y="1165" type="line"/>
    </contour>
    <component base="udeva"/>
    <contour>
      <point x="598" y="1279" type="move" name="top"/>
    </contour>
  </outline>
</glyph>
<glyph name="rvocalicdeva" format="1">
  <advance width="1561"/>
  <unicode hex="090B"/>
  <outline>
    <contour>
      <point x="1059" y="1165" type="line"/>
      <point x="1059" y="1279" type="line"/>
      <point x="1591" y="1279" type="line"/>
      <point x="1591" y="1165" type="line"/>
    </contour>
    <contour>
      <point x="829" y="659" type="line"/>
      <point x="875" y="652"/>
      <point x="927" y="644"/>
      <point x="986" y="644" type="curve" smooth="yes"/>
      <point x="1089" y="644"/>
      <point x="1169" y="677"/>
      <point x="1243" y="746" type="curve"/>
      <point x="1184" y="669" type="line"/>
      <point x="1147" y="714"/>
      <point x="1134" y="752"/>
      <point x="1134" y="783" type="curve" smooth="yes"/>
      <point x="1134" y="820"/>
      <point x="1165" y="856"/>
      <point x="1242" y="855" type="curve" smooth="yes"/>
      <point x="1334" y="855"/>
      <point x="1418" y="823"/>
      <point x="1418" y="760" type="curve" smooth="yes"/>
      <point x="1418" y="669"/>
      <point x="1221" y="512"/>
      <point x="985" y="512" type="curve" smooth="yes"/>
      <point x="920" y="512"/>
      <point x="854" y="522"/>
      <point x="777" y="534" type="curve"/>
    </contour>
    <contour>
      <point x="1208" y="640" type="curve"/>
      <point x="1316" y="710" type="line"/>
      <point x="1403" y="593"/>
      <point x="1478" y="446"/>
      <point x="1478" y="339" type="curve" smooth="yes"/>
      <point x="1478" y="183"/>
      <point x="1388" y="82"/>
      <point x="1196" y="44" type="curve"/>
      <point x="1128" y="157" type="line"/>
      <point x="1289" y="196"/>
      <point x="1341" y="256"/>
      <point x="1341" y="363" type="curve" smooth="yes"/>
      <point x="1341" y="435"/>
      <point x="1286" y="539"/>
    </contour>
    <component base="taradeva"/>
    <contour>
      <point x="797.0" y="1253.0" type="move" name="mark0"/>
    </contour>
  </outline>
</glyph>
<glyph name="lvocalicdeva" format="1">
  <advance width="1514"/>
  <unicode hex="090C"/>
  <outline>
    <contour>
      <point x="862" y="689" type="curve"/>
      <point x="774" y="602" type="line"/>
      <point x="675" y="706"/>
      <point x="582" y="759"/>
      <point x="472" y="759" type="curve" smooth="yes"/>
      <point x="339" y="759"/>
      <point x="249" y="658"/>
      <point x="249" y="536" type="curve" smooth="yes"/>
      <point x="249" y="394"/>
      <point x="321" y="276"/>
      <point x="518" y="97" type="curve"/>
      <point x="411" y="26" type="line"/>
      <point x="217" y="205"/>
      <point x="109" y="369"/>
      <point x="109" y="564" type="curve" smooth="yes"/>
      <point x="109" y="747"/>
      <point x="241" y="892"/>
      <point x="443" y="892" type="curve" smooth="yes"/>
      <point x="604" y="892"/>
      <point x="729" y="826"/>
    </contour>
    <contour>
      <point x="-30" y="1165" type="line"/>
      <point x="-30" y="1279" type="line"/>
      <point x="1544" y="1279" type="line"/>
      <point x="1544" y="1165" type="line"/>
    </contour>
    <contour>
      <point x="1016" y="1196" type="line"/>
      <point x="1169" y="1196" type="line"/>
      <point x="1169" y="815" type="line"/>
      <point x="1016" y="815" type="line"/>
    </contour>
    <contour>
      <point x="1271" y="229" type="curve"/>
      <point x="1236" y="229" type="line"/>
      <point x="1096" y="229"/>
      <point x="1039" y="158"/>
      <point x="1039" y="92" type="curve" smooth="yes"/>
      <point x="1039" y="25"/>
      <point x="1090" y="-25"/>
      <point x="1188" y="-25" type="curve" smooth="yes"/>
      <point x="1245" y="-25"/>
      <point x="1287" y="-16"/>
      <point x="1361" y="16" type="curve"/>
      <point x="1382" y="-92" type="line"/>
      <point x="1311" y="-121"/>
      <point x="1256" y="-132"/>
      <point x="1184" y="-132" type="curve" smooth="yes"/>
      <point x="1026" y="-132"/>
      <point x="911" y="-35"/>
      <point x="911" y="94" type="curve" smooth="yes"/>
      <point x="911" y="219"/>
      <point x="1015" y="323"/>
      <point x="1183" y="323" type="curve" smooth="yes"/>
      <point x="1204" y="323"/>
      <point x="1230" y="322"/>
      <point x="1252" y="319" type="curve"/>
      <point x="1149" y="287" type="line"/>
      <point x="1199" y="351"/>
      <point x="1260" y="446"/>
      <point x="1260" y="555" type="curve" smooth="yes"/>
      <point x="1260" y="672"/>
      <point x="1197" y="754"/>
      <point x="1076" y="754" type="curve" smooth="yes"/>
      <point x="941" y="754"/>
      <point x="814" y="626"/>
      <point x="765" y="348" type="curve"/>
      <point x="637" y="396" type="line"/>
      <point x="689" y="691"/>
      <point x="840" y="888"/>
      <point x="1065" y="888" type="curve" smooth="yes"/>
      <point x="1275" y="888"/>
      <point x="1395" y="741"/>
      <point x="1395" y="550" type="curve" smooth="yes"/>
      <point x="1395" y="421"/>
      <point x="1333" y="313"/>
    </contour>
    <contour>
      <point x="1047" y="1253" type="move" name="mark0"/>
    </contour>
  </outline>
</glyph>
<glyph name="edeva" format="1">
  <advance width="1161"/>
  <unicode hex="090F"/>
  <outline>
    <contour>
      <point x="947" y="1215" type="line"/>
      <point x="947" y="799" type="line" smooth="yes"/>
      <point x="947" y="668"/>
      <point x="920" y="582"/>
      <point x="847" y="486" type="curve"/>
      <point x="726" y="551" type="line"/>
      <point x="777" y="629"/>
      <point x="799" y="697"/>
      <point x="799" y="826" type="curve" smooth="yes"/>
      <point x="799" y="1215" type="line"/>
    </contour>
    <contour>
      <point x="-30" y="1165" type="line"/>
      <point x="-30" y="1279" type="line"/>
      <point x="1191" y="1279" type="line"/>
      <point x="1191" y="1165" type="line"/>
    </contour>
    <contour>
      <point x="186" y="1215" type="line"/>
      <point x="334" y="1215" type="line"/>
      <point x="334" y="732" type="line" smooth="yes"/>
      <point x="334" y="594"/>
      <point x="369" y="541"/>
      <point x="478" y="467" type="curve" smooth="yes"/>
      <point x="831" y="228" type="line" smooth="yes"/>
      <point x="925" y="164"/>
      <point x="960" y="97"/>
      <point x="960" y="25" type="curve" smooth="yes"/>
      <point x="960" y="-31"/>
      <point x="947" y="-85"/>
      <point x="908" y="-160" type="curve"/>
      <point x="778" y="-119" type="line"/>
      <point x="809" y="-66"/>
      <point x="820" y="-26"/>
      <point x="820" y="14" type="curve" smooth="yes"/>
      <point x="820" y="57"/>
      <point x="792" y="98"/>
      <point x="725" y="143" type="curve" smooth="yes"/>
      <point x="377" y="375" type="line" smooth="yes"/>
      <point x="232" y="472"/>
      <point x="186" y="568"/>
      <point x="186" y="756" type="curve" smooth="yes"/>
    </contour>
    <contour>
      <point x="-53.0" y="8.0" type="move" name="x44"/>
    </contour>
  </outline>
</glyph>
<glyph name="kadeva" format="1">
  <advance width="1577"/>
  <unicode hex="0915"/>
  <outline>
    <contour>
      <point x="-30" y="1165" type="line"/>
      <point x="-30" y="1279" type="line"/>
      <point x="1607" y="1279" type="line"/>
      <point x="1607" y="1165" type="line"/>
    </contour>
    <contour>
      <point x="745" y="536" type="curve"/>
      <point x="745" y="366" type="line"/>
      <point x="678" y="303"/>
      <point x="571" y="260"/>
      <point x="461" y="260" type="curve" smooth="yes"/>
      <point x="250" y="260"/>
      <point x="108" y="418"/>
      <point x="108" y="611" type="curve" smooth="yes"/>
      <point x="108" y="775"/>
      <point x="213" y="909"/>
      <point x="438" y="909" type="curve" smooth="yes"/>
      <point x="553" y="909"/>
      <point x="679" y="874"/>
      <point x="751" y="832" type="curve"/>
      <point x="751" y="705" type="line"/>
      <point x="667" y="753"/>
      <point x="559" y="783"/>
      <point x="465" y="783" type="curve" smooth="yes"/>
      <point x="307" y="783"/>
      <point x="239" y="704"/>
      <point x="239" y="592" type="curve" smooth="yes"/>
      <point x="239" y="475"/>
      <point x="320" y="382"/>
      <point x="445" y="382" type="curve" smooth="yes"/>
      <point x="553" y="382"/>
      <point x="661" y="432"/>
    </contour>
    <contour>
      <point x="725" y="1196" type="line"/>
      <point x="873" y="1196" type="line"/>
      <point x="873" y="0" type="line"/>
      <point x="725" y="0" type="line"/>
    </contour>
    <contour>
      <point x="852" y="587" type="curve"/>
      <point x="834" y="749" type="line"/>
      <point x="895" y="795"/>
      <point x="999" y="839"/>
      <point x="1113" y="839" type="curve" smooth="yes"/>
      <point x="1306" y="839"/>
      <point x="1443" y="716"/>
      <point x="1443" y="531" type="curve" smooth="yes"/>
      <point x="1443" y="411"/>
      <point x="1395" y="285"/>
      <point x="1310" y="181" type="curve"/>
      <point x="1190" y="228" type="line"/>
      <point x="1275" y="339"/>
      <point x="1313" y="436"/>
      <point x="1313" y="533" type="curve" smooth="yes"/>
      <point x="1313" y="642"/>
      <point x="1244" y="712"/>
      <point x="1123" y="712" type="curve" smooth="yes"/>
      <point x="1020" y="712"/>
      <point x="925" y="663"/>
    </contour>
    <contour>
      <point x="725.0" y="0.0" type="move" name="btm"/>
    </contour>
    <contour>
      <point x="725.0" y="1279.0" type="move" name="top"/>
    </contour>
  </outline>
</glyph>
<glyph name="khadeva" format="1">
  <advance width="1728"/>
  <unicode hex="0916"/>
  <outline>
    <contour>
      <point x="1372" y="630" type="curve"/>
      <point x="1372" y="479" type="line"/>
      <point x="1304" y="426"/>
      <point x="1224" y="401"/>
      <point x="1124" y="401" type="curve" smooth="yes"/>
      <point x="946" y="401"/>
      <point x="798" y="527"/>
      <point x="798" y="707" type="curve" smooth="yes"/>
      <point x="798" y="857"/>
      <point x="912" y="963"/>
      <point x="1093" y="963" type="curve" smooth="yes"/>
      <point x="1212" y="963"/>
      <point x="1309" y="936"/>
      <point x="1388" y="897" type="curve"/>
      <point x="1388" y="772" type="line"/>
      <point x="1311" y="818"/>
      <point x="1217" y="847"/>
      <point x="1120" y="847" type="curve" smooth="yes"/>
      <point x="984" y="847"/>
      <point x="924" y="772"/>
      <point x="924" y="690" type="curve" smooth="yes"/>
      <point x="924" y="589"/>
      <point x="1002" y="519"/>
      <point x="1114" y="519" type="curve" smooth="yes"/>
      <point x="1217" y="519"/>
      <point x="1301" y="555"/>
    </contour>
    <contour>
      <point x="224" y="655" type="line"/>
      <point x="409" y="720"/>
      <point x="458" y="811"/>
      <point x="458" y="980" type="curve" smooth="yes"/>
      <point x="458" y="1209" type="line"/>
      <point x="606" y="1209" type="line"/>
      <point x="606" y="966" type="line" smooth="yes"/>
      <point x="606" y="784"/>
      <point x="558" y="625"/>
      <point x="307" y="525" type="curve"/>
    </contour>
    <contour>
      <point x="-30" y="1165" type="line"/>
      <point x="-30" y="1279" type="line"/>
      <point x="1758" y="1279" type="line"/>
      <point x="1758" y="1165" type="line"/>
    </contour>
    <contour>
      <point x="279" y="612" type="line"/>
      <point x="333" y="518"/>
      <point x="382" y="457"/>
      <point x="450" y="389" type="curve" smooth="yes"/>
      <point x="575" y="264"/>
      <point x="782" y="178"/>
      <point x="986" y="178" type="curve" smooth="yes"/>
      <point x="1153" y="178"/>
      <point x="1280" y="212"/>
      <point x="1397" y="276" type="curve"/>
      <point x="1424" y="142" type="line"/>
      <point x="1322" y="90"/>
      <point x="1185" y="51"/>
      <point x="993" y="51" type="curve" smooth="yes"/>
      <point x="751" y="51"/>
      <point x="509" y="144"/>
      <point x="346" y="307" type="curve" smooth="yes"/>
      <point x="248" y="405"/>
      <point x="148" y="561"/>
      <point x="95" y="664" type="curve" smooth="yes"/>
      <point x="78" y="698"/>
      <point x="66" y="728"/>
      <point x="66" y="750" type="curve" smooth="yes"/>
      <point x="66" y="788"/>
      <point x="93" y="815"/>
      <point x="128" y="815" type="curve" smooth="yes"/>
      <point x="164" y="815"/>
      <point x="187" y="798"/>
      <point x="216" y="753" type="curve" smooth="yes"/>
      <point x="283" y="638" type="line"/>
    </contour>
    <contour>
      <point x="1339" y="1196" type="line"/>
      <point x="1487" y="1196" type="line"/>
      <point x="1487" y="0" type="line"/>
      <point x="1339" y="0" type="line"/>
    </contour>
    <contour>
      <point x="1339" y="1279" type="move" name="top"/>
    </contour>
  </outline>
</glyph>
<glyph name="gadeva" format="1">
  <advance width="1271"/>
  <unicode hex="0917"/>
  <outline>
    <contour>
      <point x="448" y="1203" type="line"/>
      <point x="448" y="466" type="line" smooth="yes"/>
      <point x="448" y="422"/>
      <point x="430" y="397"/>
      <point x="386" y="397" type="curve" smooth="yes"/>
      <point x="298" y="397"/>
      <point x="136" y="560"/>
      <point x="136" y="633" type="curve" smooth="yes"/>
      <point x="136" y="666"/>
      <point x="153" y="688"/>
      <point x="202" y="688" type="curve" smooth="yes"/>
      <point x="331" y="688" type="line"/>
      <point x="300" y="654" type="line"/>
      <point x="300" y="1203" type="line"/>
    </contour>
    <contour>
      <point x="883" y="1196" type="line"/>
      <point x="1031" y="1196" type="line"/>
      <point x="1031" y="0" type="line"/>
      <point x="883" y="0" type="line"/>
    </contour>
    <contour>
      <point x="1301" y="1165" type="line"/>
      <point x="-30" y="1165" type="line"/>
      <point x="-30" y="1279" type="line"/>
      <point x="1301" y="1279" type="line"/>
    </contour>
    <contour>
      <point x="883" y="1279" type="move" name="top"/>
    </contour>
  </outline>
</glyph>
<glyph name="ghadeva" format="1">
  <advance width="1344"/>
  <unicode hex="0918"/>
  <outline>
    <contour>
      <point x="731" y="725" type="line"/>
      <point x="719" y="725" type="line" smooth="yes"/>
      <point x="507" y="725"/>
      <point x="429" y="619"/>
      <point x="429" y="513" type="curve" smooth="yes"/>
      <point x="429" y="406"/>
      <point x="513" y="327"/>
      <point x="642" y="327" type="curve" smooth="yes"/>
      <point x="779" y="327"/>
      <point x="902" y="389"/>
      <point x="991" y="504" type="curve"/>
      <point x="991" y="327" type="line"/>
      <point x="911" y="252"/>
      <point x="805" y="199"/>
      <point x="661" y="199" type="curve" smooth="yes"/>
      <point x="436" y="199"/>
      <point x="291" y="347"/>
      <point x="291" y="531" type="curve" smooth="yes"/>
      <point x="291" y="685"/>
      <point x="401" y="846"/>
      <point x="681" y="846" type="curve" smooth="yes"/>
      <point x="713" y="846" type="line"/>
    </contour>
    <contour>
      <point x="398" y="725" type="line"/>
      <point x="201" y="788"/>
      <point x="110" y="918"/>
      <point x="110" y="1064" type="curve" smooth="yes"/>
      <point x="110" y="1124"/>
      <point x="123" y="1183"/>
      <point x="155" y="1239" type="curve"/>
      <point x="306" y="1208" type="line"/>
      <point x="267" y="1158"/>
      <point x="254" y="1105"/>
      <point x="254" y="1049" type="curve" smooth="yes"/>
      <point x="254" y="953"/>
      <point x="335" y="855"/>
      <point x="522" y="820" type="curve"/>
    </contour>
    <contour>
      <point x="-30" y="1165" type="line"/>
      <point x="-30" y="1279" type="line"/>
      <point x="1374" y="1279" type="line"/>
      <point x="1374" y="1165" type="line"/>
    </contour>
    <contour>
      <point x="956" y="1196" type="line"/>
      <point x="1104" y="1196" type="line"/>
      <point x="1104" y="0" type="line"/>
      <point x="956" y="0" type="line"/>
    </contour>
    <contour>
      <point x="956.0" y="1279.0" type="move" name="top"/>
    </contour>
  </outline>
</glyph>
<glyph name="ngadeva" format="1">
  <advance width="1290"/>
  <unicode hex="0919"/>
  <outline>
    <contour>
      <point x="1085" y="1165" type="line"/>
      <point x="1085" y="1279" type="line"/>
      <point x="1320" y="1279" type="line"/>
      <point x="1320" y="1165" type="line"/>
    </contour>
    <contour>
      <point x="1149" y="813" type="curve" smooth="yes"/>
      <point x="1219" y="813"/>
      <point x="1249" y="771"/>
      <point x="1249" y="711" type="curve" smooth="yes"/>
      <point x="1249" y="652"/>
      <point x="1217" y="609"/>
      <point x="1149" y="609" type="curve" smooth="yes"/>
      <point x="1080" y="609"/>
      <point x="1051" y="652"/>
      <point x="1051" y="711" type="curve" smooth="yes"/>
      <point x="1051" y="771"/>
      <point x="1081" y="813"/>
    </contour>
    <component base="ddadeva"/>
    <contour>
      <point x="530" y="53" type="move" name="btm"/>
    </contour>
    <contour>
      <point x="759" y="1279" type="move" name="top"/>
    </contour>
  </outline>
</glyph>
<glyph name="cadeva" format="1">
  <advance width="1386.0"/>
  <unicode hex="091A"/>
  <outline>
    <contour>
      <point x="76" y="766" type="line"/>
      <point x="76" y="891" type="line"/>
      <point x="777" y="891" type="line"/>
      <point x="777" y="766" type="line"/>
    </contour>
    <contour>
      <point x="1031" y="513" type="curve"/>
      <point x="1031" y="328" type="line"/>
      <point x="963" y="256"/>
      <point x="841" y="207"/>
      <point x="709" y="207" type="curve" smooth="yes"/>
      <point x="477" y="207"/>
      <point x="320" y="355"/>
      <point x="320" y="545" type="curve" smooth="yes"/>
      <point x="320" y="722"/>
      <point x="457" y="869"/>
      <point x="693" y="869" type="curve"/>
      <point x="731" y="767" type="line"/>
      <point x="548" y="767"/>
      <point x="456" y="661"/>
      <point x="456" y="533" type="curve" smooth="yes"/>
      <point x="456" y="419"/>
      <point x="552" y="334"/>
      <point x="693" y="334" type="curve" smooth="yes"/>
      <point x="832" y="334"/>
      <point x="957" y="401"/>
    </contour>
    <contour>
      <point x="-30" y="1165" type="line"/>
      <point x="-30" y="1279" type="line"/>
      <point x="1416" y="1279" type="line"/>
      <point x="1416" y="1165" type="line"/>
    </contour>
    <contour>
      <point x="998" y="1196" type="line"/>
      <point x="1146" y="1196" type="line"/>
      <point x="1146" y="0" type="line"/>
      <point x="998" y="0" type="line"/>
    </contour>
    <contour>
      <point x="998" y="1279" type="move" name="top"/>
    </contour>
  </outline>
</glyph>
<glyph name="chadeva" format="1">
  <advance width="1523.0"/>
  <unicode hex="091B"/>
  <outline>
    <contour>
      <point x="665" y="774" type="curve"/>
      <point x="704" y="652" type="line"/>
      <point x="702" y="652"/>
      <point x="699" y="652"/>
      <point x="697" y="652" type="curve" smooth="yes"/>
      <point x="472" y="652"/>
      <point x="386" y="543"/>
      <point x="386" y="409" type="curve" smooth="yes"/>
      <point x="386" y="274"/>
      <point x="510" y="160"/>
      <point x="724" y="160" type="curve" smooth="yes"/>
      <point x="1060" y="160"/>
      <point x="1283" y="431"/>
      <point x="1283" y="653" type="curve" smooth="yes"/>
      <point x="1283" y="788"/>
      <point x="1223" y="856"/>
      <point x="1133" y="856" type="curve" smooth="yes"/>
      <point x="1051" y="856"/>
      <point x="1000" y="784"/>
      <point x="1000" y="693" type="curve" smooth="yes"/>
      <point x="1000" y="584"/>
      <point x="1075" y="487"/>
      <point x="1265" y="389" type="curve"/>
      <point x="1185" y="292" type="line"/>
      <point x="969" y="404"/>
      <point x="862" y="564"/>
      <point x="862" y="717" type="curve" smooth="yes"/>
      <point x="862" y="863"/>
      <point x="962" y="987"/>
      <point x="1127" y="987" type="curve" smooth="yes"/>
      <point x="1294" y="987"/>
      <point x="1413" y="860"/>
      <point x="1413" y="649" type="curve" smooth="yes"/>
      <point x="1413" y="362"/>
      <point x="1147" y="30"/>
      <point x="735" y="30" type="curve" smooth="yes"/>
      <point x="402" y="30"/>
      <point x="239" y="221"/>
      <point x="239" y="430" type="curve" smooth="yes"/>
      <point x="239" y="587"/>
      <point x="359" y="774"/>
      <point x="660" y="774" type="curve" smooth="yes"/>
      <point x="662" y="774"/>
      <point x="663" y="774"/>
    </contour>
    <contour>
      <point x="538" y="723" type="curve"/>
      <point x="401" y="648" type="line"/>
      <point x="204" y="718"/>
      <point x="125" y="850"/>
      <point x="125" y="974" type="curve" smooth="yes"/>
      <point x="125" y="1089"/>
      <point x="194" y="1208"/>
      <point x="347" y="1266" type="curve"/>
      <point x="479" y="1201" type="line"/>
      <point x="323" y="1153"/>
      <point x="266" y="1053"/>
      <point x="266" y="959" type="curve" smooth="yes"/>
      <point x="266" y="861"/>
      <point x="346" y="774"/>
    </contour>
    <contour>
      <point x="1553" y="1165" type="line"/>
      <point x="-30" y="1165" type="line"/>
      <point x="-30" y="1279" type="line"/>
      <point x="1553" y="1279" type="line"/>
    </contour>
    <contour>
      <point x="1135" y="1224" type="line"/>
      <point x="1283" y="1224" type="line"/>
      <point x="1283" y="920" type="line"/>
      <point x="1135" y="920" type="line"/>
    </contour>
    <contour>
      <point x="667" y="57" type="move" name="btm"/>
    </contour>
    <contour>
      <point x="1046" y="1279" type="move" name="top"/>
    </contour>
  </outline>
</glyph>
<glyph name="jadeva" format="1">
  <advance width="1598"/>
  <unicode hex="091C"/>
  <outline>
    <contour>
      <point x="-30" y="1165" type="line"/>
      <point x="-30" y="1279" type="line"/>
      <point x="1628" y="1279" type="line"/>
      <point x="1628" y="1165" type="line"/>
    </contour>
    <contour>
      <point x="673" y="764" type="line"/>
      <point x="681" y="814" type="line"/>
      <point x="843" y="740"/>
      <point x="938" y="591"/>
      <point x="938" y="436" type="curve" smooth="yes"/>
      <point x="938" y="268"/>
      <point x="822" y="128"/>
      <point x="617" y="128" type="curve" smooth="yes"/>
      <point x="410" y="128"/>
      <point x="232" y="258"/>
      <point x="68" y="554" type="curve"/>
      <point x="150" y="657" type="line"/>
      <point x="313" y="370"/>
      <point x="455" y="264"/>
      <point x="602" y="264" type="curve" smooth="yes"/>
      <point x="729" y="264"/>
      <point x="804" y="331"/>
      <point x="804" y="448" type="curve" smooth="yes"/>
      <point x="804" y="583"/>
      <point x="684" y="720"/>
      <point x="491" y="776" type="curve"/>
      <point x="491" y="891" type="line"/>
      <point x="1236" y="891" type="line"/>
      <point x="1236" y="764" type="line"/>
    </contour>
    <contour>
      <point x="1209" y="1196" type="line"/>
      <point x="1357" y="1196" type="line"/>
      <point x="1357" y="0" type="line"/>
      <point x="1209" y="0" type="line"/>
    </contour>
    <contour>
      <point x="1209.0" y="1279.0" type="move" name="top"/>
    </contour>
  </outline>
</glyph>
<glyph name="jhadeva" format="1">
  <advance width="1606.0"/>
  <unicode hex="091D"/>
  <outline>
    <contour>
      <point x="1287" y="566" type="curve"/>
      <point x="1344" y="438" type="line"/>
      <point x="1242" y="394"/>
      <point x="1144" y="373"/>
      <point x="1043" y="373" type="curve" smooth="yes"/>
      <point x="960" y="373"/>
      <point x="888" y="383"/>
      <point x="826" y="398" type="curve"/>
      <point x="823" y="522" type="line"/>
      <point x="885" y="504"/>
      <point x="951" y="497"/>
      <point x="1016" y="497" type="curve" smooth="yes"/>
      <point x="1109" y="497"/>
      <point x="1200" y="514"/>
    </contour>
    <contour>
      <point x="1217" y="1196" type="line"/>
      <point x="1365" y="1196" type="line"/>
      <point x="1365" y="0" type="line"/>
      <point x="1217" y="0" type="line"/>
    </contour>
    <contour>
      <point x="1636" y="1165" type="line"/>
      <point x="997" y="1165" type="line"/>
      <point x="997" y="1279" type="line"/>
      <point x="1636" y="1279" type="line"/>
    </contour>
    <component base="ideva"/>
    <contour>
      <point x="1217" y="1279" type="move" name="top"/>
    </contour>
  </outline>
</glyph>
<glyph name="nyadeva" format="1">
  <advance width="1668"/>
  <unicode hex="091E"/>
  <outline>
    <contour>
      <point x="831" y="656" type="line"/>
      <point x="902" y="638"/>
      <point x="978" y="627"/>
      <point x="1051" y="627" type="curve" smooth="yes"/>
      <point x="1147" y="627"/>
      <point x="1265" y="653"/>
      <point x="1336" y="693" type="curve"/>
      <point x="1336" y="546" type="line"/>
      <point x="1280" y="520"/>
      <point x="1170" y="498"/>
      <point x="1071" y="498" type="curve" smooth="yes"/>
      <point x="990" y="498"/>
      <point x="895" y="514"/>
      <point x="831" y="529" type="curve"/>
    </contour>
    <contour>
      <point x="-30" y="1165" type="line"/>
      <point x="-30" y="1279" type="line"/>
      <point x="1698" y="1279" type="line"/>
      <point x="1698" y="1165" type="line"/>
    </contour>
    <contour>
      <point x="1280" y="1196" type="line"/>
      <point x="1428" y="1196" type="line"/>
      <point x="1428" y="0" type="line"/>
      <point x="1280" y="0" type="line"/>
    </contour>
    <contour>
      <point x="917" y="553" type="curve" smooth="yes"/>
      <point x="917" y="343"/>
      <point x="774" y="207"/>
      <point x="577" y="207" type="curve" smooth="yes"/>
      <point x="397" y="207"/>
      <point x="244" y="281"/>
      <point x="51" y="470" type="curve"/>
      <point x="113" y="586" type="line"/>
      <point x="291" y="400"/>
      <point x="422" y="340"/>
      <point x="546" y="340" type="curve" smooth="yes"/>
      <point x="691" y="340"/>
      <point x="782" y="433"/>
      <point x="782" y="567" type="curve" smooth="yes"/>
      <point x="782" y="701"/>
      <point x="678" y="797"/>
      <point x="542" y="797" type="curve" smooth="yes"/>
      <point x="461" y="797"/>
      <point x="383" y="762"/>
      <point x="319" y="711" type="curve"/>
      <point x="257" y="823" type="line"/>
      <point x="329" y="877"/>
      <point x="439" y="924"/>
      <point x="542" y="924" type="curve" smooth="yes"/>
      <point x="755" y="924"/>
      <point x="917" y="778"/>
    </contour>
    <contour>
      <point x="1280.0" y="1279.0" type="move" name="top"/>
    </contour>
  </outline>
</glyph>
<glyph name="ttadeva" format="1">
  <advance width="1137"/>
  <unicode hex="091F"/>
  <outline>
    <contour>
      <point x="749" y="1204" type="line"/>
      <point x="897" y="1204" type="line"/>
      <point x="897" y="772" type="line"/>
      <point x="620" y="772" type="line" smooth="yes"/>
      <point x="369" y="772"/>
      <point x="277" y="651"/>
      <point x="277" y="493" type="curve" smooth="yes"/>
      <point x="277" y="327"/>
      <point x="413" y="207"/>
      <point x="629" y="207" type="curve" smooth="yes"/>
      <point x="745" y="207"/>
      <point x="832" y="221"/>
      <point x="951" y="268" type="curve"/>
      <point x="985" y="139" type="line"/>
      <point x="867" y="95"/>
      <point x="766" y="77"/>
      <point x="640" y="77" type="curve" smooth="yes"/>
      <point x="321" y="77"/>
      <point x="133" y="267"/>
      <point x="133" y="515" type="curve" smooth="yes"/>
      <point x="133" y="729"/>
      <point x="278" y="891"/>
      <point x="570" y="891" type="curve" smooth="yes"/>
      <point x="788" y="891" type="line"/>
      <point x="749" y="854" type="line"/>
    </contour>
    <contour>
      <point x="1167" y="1165" type="line"/>
      <point x="-30" y="1165" type="line"/>
      <point x="-30" y="1279" type="line"/>
      <point x="1167" y="1279" type="line"/>
    </contour>
    <contour>
      <point x="554.0" y="81.0" type="move" name="btm"/>
    </contour>
    <contour>
      <point x="748.0" y="1279.0" type="move" name="top"/>
    </contour>
  </outline>
</glyph>
<glyph name="tthadeva" format="1">
  <advance width="1245"/>
  <unicode hex="0920"/>
  <outline>
    <contour>
      <point x="1004" y="493" type="curve" smooth="yes"/>
      <point x="1004" y="593"/>
      <point x="960" y="695"/>
      <point x="871" y="772" type="curve"/>
      <point x="627" y="772" type="line" smooth="yes"/>
      <point x="368" y="772"/>
      <point x="268" y="657"/>
      <point x="268" y="498" type="curve" smooth="yes"/>
      <point x="268" y="331"/>
      <point x="405" y="196"/>
      <point x="627" y="196" type="curve" smooth="yes"/>
      <point x="886" y="196"/>
      <point x="1004" y="332"/>
    </contour>
    <contour>
      <point x="1275" y="1165" type="line"/>
      <point x="-30" y="1165" type="line"/>
      <point x="-30" y="1279" type="line"/>
      <point x="1275" y="1279" type="line"/>
    </contour>
    <contour>
      <point x="854" y="1200" type="line"/>
      <point x="1002" y="1200" type="line"/>
      <point x="1002" y="783" type="line"/>
      <point x="953" y="868" type="line"/>
      <point x="1055" y="780"/>
      <point x="1140" y="636"/>
      <point x="1141" y="482" type="curve" smooth="yes"/>
      <point x="1143" y="256"/>
      <point x="963" y="65"/>
      <point x="644" y="65" type="curve" smooth="yes"/>
      <point x="330" y="65"/>
      <point x="125" y="259"/>
      <point x="125" y="518" type="curve" smooth="yes"/>
      <point x="125" y="737"/>
      <point x="295" y="891"/>
      <point x="564" y="891" type="curve" smooth="yes"/>
      <point x="899" y="891" type="line"/>
      <point x="854" y="854" type="line"/>
    </contour>
    <contour>
      <point x="554.0" y="81.0" type="move" name="btm"/>
    </contour>
    <contour>
      <point x="813.0" y="1279.0" type="move" name="top"/>
    </contour>
  </outline>
</glyph>
<glyph name="ddadeva" format="1">
  <advance width="1156"/>
  <unicode hex="0921"/>
  <outline>
    <contour>
      <point x="761" y="1200" type="line"/>
      <point x="909" y="1200" type="line"/>
      <point x="909" y="833" type="line"/>
      <point x="451" y="833" type="line" smooth="yes"/>
      <point x="351" y="833"/>
      <point x="302" y="781"/>
      <point x="302" y="710" type="curve" smooth="yes"/>
      <point x="302" y="639"/>
      <point x="356" y="575"/>
      <point x="456" y="544" type="curve"/>
      <point x="372" y="546" type="line"/>
      <point x="460" y="594"/>
      <point x="560" y="626"/>
      <point x="671" y="626" type="curve" smooth="yes"/>
      <point x="892" y="626"/>
      <point x="1020" y="507"/>
      <point x="1020" y="347" type="curve" smooth="yes"/>
      <point x="1020" y="177"/>
      <point x="893" y="34"/>
      <point x="624" y="34" type="curve" smooth="yes"/>
      <point x="457" y="34"/>
      <point x="295" y="78"/>
      <point x="124" y="173" type="curve"/>
      <point x="163" y="299" type="line"/>
      <point x="319" y="203"/>
      <point x="469" y="159"/>
      <point x="610" y="159" type="curve" smooth="yes"/>
      <point x="792" y="159"/>
      <point x="884" y="246"/>
      <point x="884" y="350" type="curve" smooth="yes"/>
      <point x="884" y="437"/>
      <point x="807" y="498"/>
      <point x="676" y="498" type="curve" smooth="yes"/>
      <point x="581" y="498"/>
      <point x="484" y="464"/>
      <point x="419" y="421" type="curve"/>
      <point x="410" y="421" type="line"/>
      <point x="245" y="500"/>
      <point x="165" y="608"/>
      <point x="165" y="729" type="curve" smooth="yes"/>
      <point x="165" y="850"/>
      <point x="256" y="952"/>
      <point x="443" y="952" type="curve" smooth="yes"/>
      <point x="807" y="952" type="line"/>
      <point x="761" y="904" type="line"/>
    </contour>
    <contour>
      <point x="1186" y="1165" type="line"/>
      <point x="-30" y="1165" type="line"/>
      <point x="-30" y="1279" type="line"/>
      <point x="1186" y="1279" type="line"/>
    </contour>
    <contour>
      <point x="520.0" y="54.0" type="move" name="btm"/>
    </contour>
    <contour>
      <point x="759.0" y="1279.0" type="move" name="top"/>
    </contour>
  </outline>
</glyph>
<glyph name="ddhadeva" format="1">
  <advance width="1157"/>
  <unicode hex="0922"/>
  <outline>
    <contour>
      <point x="1187" y="1165" type="line"/>
      <point x="-30" y="1165" type="line"/>
      <point x="-30" y="1279" type="line"/>
      <point x="1187" y="1279" type="line"/>
    </contour>
    <contour>
      <point x="754" y="1195" type="line"/>
      <point x="902" y="1195" type="line"/>
      <point x="902" y="772" type="line"/>
      <point x="621" y="772" type="line" smooth="yes"/>
      <point x="355" y="772"/>
      <point x="259" y="656"/>
      <point x="259" y="484" type="curve" smooth="yes"/>
      <point x="259" y="317"/>
      <point x="447" y="154"/>
      <point x="688" y="154" type="curve" smooth="yes"/>
      <point x="872" y="154"/>
      <point x="955" y="223"/>
      <point x="955" y="314" type="curve" smooth="yes"/>
      <point x="955" y="376"/>
      <point x="901" y="426"/>
      <point x="803" y="426" type="curve" smooth="yes"/>
      <point x="689" y="426"/>
      <point x="637" y="361"/>
      <point x="637" y="278" type="curve" smooth="yes"/>
      <point x="637" y="212"/>
      <point x="661" y="158"/>
      <point x="695" y="119" type="curve"/>
      <point x="577" y="108" type="line"/>
      <point x="540" y="163"/>
      <point x="516" y="227"/>
      <point x="516" y="295" type="curve" smooth="yes"/>
      <point x="516" y="426"/>
      <point x="602" y="540"/>
      <point x="786" y="540" type="curve" smooth="yes"/>
      <point x="970" y="540"/>
      <point x="1074" y="445"/>
      <point x="1074" y="303" type="curve" smooth="yes"/>
      <point x="1074" y="155"/>
      <point x="941" y="44"/>
      <point x="698" y="44" type="curve" smooth="yes"/>
      <point x="345" y="44"/>
      <point x="122" y="271"/>
      <point x="122" y="515" type="curve" smooth="yes"/>
      <point x="122" y="732"/>
      <point x="283" y="891"/>
      <point x="566" y="891" type="curve" smooth="yes"/>
      <point x="795" y="891" type="line"/>
      <point x="754" y="857" type="line"/>
    </contour>
    <contour>
      <point x="577" y="75" type="move" name="btm"/>
    </contour>
    <contour>
      <point x="753" y="1279" type="move" name="top"/>
    </contour>
  </outline>
</glyph>
<glyph name="nnadeva" format="1">
  <advance width="1532"/>
  <unicode hex="0923"/>
  <outline>
    <contour>
      <point x="674" y="1200" type="line"/>
      <point x="822" y="1200" type="line"/>
      <point x="822" y="747" type="line" smooth="yes"/>
      <point x="822" y="535"/>
      <point x="718" y="367"/>
      <point x="492" y="367" type="curve" smooth="yes"/>
      <point x="270" y="367"/>
      <point x="147" y="528"/>
      <point x="147" y="744" type="curve" smooth="yes"/>
      <point x="147" y="1200" type="line"/>
      <point x="295" y="1200" type="line"/>
      <point x="295" y="700" type="line" smooth="yes"/>
      <point x="295" y="561"/>
      <point x="372" y="492"/>
      <point x="481" y="492" type="curve" smooth="yes"/>
      <point x="602" y="492"/>
      <point x="674" y="568"/>
      <point x="674" y="731" type="curve" smooth="yes"/>
    </contour>
    <contour>
      <point x="-30" y="1165" type="line"/>
      <point x="-30" y="1279" type="line"/>
      <point x="1562" y="1279" type="line"/>
      <point x="1562" y="1165" type="line"/>
    </contour>
    <contour>
      <point x="1144" y="1196" type="line"/>
      <point x="1292" y="1196" type="line"/>
      <point x="1292" y="0" type="line"/>
      <point x="1144" y="0" type="line"/>
    </contour>
    <contour>
      <point x="805.0" y="1279.0" type="move" name="top"/>
    </contour>
  </outline>
</glyph>
<glyph name="tadeva" format="1">
  <advance width="1188"/>
  <unicode hex="0924"/>
  <outline>
    <contour>
      <point x="851" y="891" type="line"/>
      <point x="851" y="763" type="line"/>
      <point x="553" y="763" type="line" smooth="yes"/>
      <point x="364" y="763"/>
      <point x="273" y="662"/>
      <point x="273" y="519" type="curve" smooth="yes"/>
      <point x="273" y="382"/>
      <point x="341" y="221"/>
      <point x="478" y="38" type="curve"/>
      <point x="352" y="-11" type="line"/>
      <point x="213" y="175"/>
      <point x="129" y="390"/>
      <point x="130" y="553" type="curve" smooth="yes"/>
      <point x="131" y="744"/>
      <point x="256" y="891"/>
      <point x="519" y="891" type="curve" smooth="yes"/>
    </contour>
    <contour>
      <point x="-30" y="1165" type="line"/>
      <point x="-30" y="1279" type="line"/>
      <point x="1218" y="1279" type="line"/>
      <point x="1218" y="1165" type="line"/>
    </contour>
    <contour>
      <point x="800" y="1196" type="line"/>
      <point x="948" y="1196" type="line"/>
      <point x="948" y="0" type="line"/>
      <point x="800" y="0" type="line"/>
    </contour>
    <contour>
      <point x="800.0" y="1279.0" type="move" name="top"/>
    </contour>
  </outline>
</glyph>
<glyph name="thadeva" format="1">
  <advance width="1322"/>
  <unicode hex="0925"/>
  <outline>
    <contour>
      <point x="663" y="984" type="curve" smooth="yes"/>
      <point x="663" y="786"/>
      <point x="512" y="654"/>
      <point x="287" y="587" type="curve"/>
      <point x="297" y="669" type="line"/>
      <point x="374" y="529"/>
      <point x="515" y="452"/>
      <point x="639" y="452" type="curve" smooth="yes"/>
      <point x="769" y="452"/>
      <point x="897" y="513"/>
      <point x="987" y="654" type="curve"/>
      <point x="987" y="459" type="line"/>
      <point x="901" y="367"/>
      <point x="800" y="322"/>
      <point x="661" y="322" type="curve" smooth="yes"/>
      <point x="474" y="322"/>
      <point x="269" y="444"/>
      <point x="147" y="662" type="curve"/>
      <point x="147" y="670" type="line"/>
      <point x="415" y="748"/>
      <point x="536" y="839"/>
      <point x="536" y="995" type="curve" smooth="yes"/>
      <point x="536" y="1107"/>
      <point x="458" y="1190"/>
      <point x="355" y="1190" type="curve" smooth="yes"/>
      <point x="270" y="1190"/>
      <point x="228" y="1134"/>
      <point x="228" y="1061" type="curve" smooth="yes"/>
      <point x="228" y="976"/>
      <point x="319" y="894"/>
      <point x="529" y="878" type="curve"/>
      <point x="472" y="779" type="line"/>
      <point x="222" y="796"/>
      <point x="95" y="934"/>
      <point x="95" y="1080" type="curve" smooth="yes"/>
      <point x="95" y="1201"/>
      <point x="183" y="1312"/>
      <point x="346" y="1312" type="curve" smooth="yes"/>
      <point x="528" y="1312"/>
      <point x="663" y="1179"/>
    </contour>
    <contour>
      <point x="934" y="1196" type="line"/>
      <point x="1082" y="1196" type="line"/>
      <point x="1082" y="0" type="line"/>
      <point x="934" y="0" type="line"/>
    </contour>
    <contour>
      <point x="1352" y="1165" type="line"/>
      <point x="825" y="1165" type="line"/>
      <point x="825" y="1279" type="line"/>
      <point x="1352" y="1279" type="line"/>
    </contour>
    <contour>
      <point x="934.0" y="1279.0" type="move" name="top"/>
    </contour>
  </outline>
</glyph>
<glyph name="dadeva" format="1">
  <advance width="1093"/>
  <unicode hex="0926"/>
  <outline>
    <contour>
      <point x="-30" y="1165" type="line"/>
      <point x="-30" y="1279" type="line"/>
      <point x="1123" y="1279" type="line"/>
      <point x="1123" y="1165" type="line"/>
    </contour>
    <contour>
      <point x="697" y="200" type="line"/>
      <point x="816" y="247" type="line"/>
      <point x="1006" y="-142" type="line"/>
      <point x="887" y="-192" type="line"/>
    </contour>
    <contour>
      <point x="625" y="128" type="curve" smooth="yes"/>
      <point x="327" y="128"/>
      <point x="117" y="290"/>
      <point x="117" y="547" type="curve" smooth="yes"/>
      <point x="117" y="730"/>
      <point x="251" y="895"/>
      <point x="535" y="895" type="curve" smooth="yes"/>
      <point x="751" y="895" type="line"/>
      <point x="705" y="847" type="line"/>
      <point x="705" y="1210" type="line"/>
      <point x="853" y="1210" type="line"/>
      <point x="853" y="776" type="line"/>
      <point x="578" y="776" type="line" smooth="yes"/>
      <point x="343" y="776"/>
      <point x="254" y="660"/>
      <point x="254" y="523" type="curve" smooth="yes"/>
      <point x="254" y="369"/>
      <point x="399" y="254"/>
      <point x="598" y="254" type="curve" smooth="yes"/>
      <point x="666" y="254"/>
      <point x="702" y="264"/>
      <point x="782" y="294" type="curve"/>
      <point x="673" y="230" type="line"/>
      <point x="644" y="278"/>
      <point x="630" y="315"/>
      <point x="633" y="354" type="curve" smooth="yes"/>
      <point x="636" y="395"/>
      <point x="671" y="429"/>
      <point x="747" y="429" type="curve" smooth="yes"/>
      <point x="861" y="429"/>
      <point x="968" y="376"/>
      <point x="968" y="312" type="curve" smooth="yes"/>
      <point x="968" y="239"/>
      <point x="860" y="128"/>
    </contour>
    <contour>
      <point x="866.0" y="-147.0" type="move" name="btm"/>
    </contour>
    <contour>
      <point x="690.0" y="1279.0" type="move" name="top"/>
    </contour>
  </outline>
</glyph>
<glyph name="dhadeva" format="1">
  <advance width="1350"/>
  <unicode hex="0927"/>
  <outline>
    <contour>
      <point x="737" y="708" type="line"/>
      <point x="725" y="708" type="line" smooth="yes"/>
      <point x="524" y="708"/>
      <point x="435" y="618"/>
      <point x="435" y="513" type="curve" smooth="yes"/>
      <point x="435" y="406"/>
      <point x="519" y="327"/>
      <point x="648" y="327" type="curve" smooth="yes"/>
      <point x="785" y="327"/>
      <point x="908" y="389"/>
      <point x="997" y="504" type="curve"/>
      <point x="997" y="327" type="line"/>
      <point x="917" y="252"/>
      <point x="811" y="199"/>
      <point x="667" y="199" type="curve" smooth="yes"/>
      <point x="442" y="199"/>
      <point x="297" y="347"/>
      <point x="297" y="531" type="curve" smooth="yes"/>
      <point x="297" y="684"/>
      <point x="418" y="829"/>
      <point x="687" y="829" type="curve" smooth="yes"/>
      <point x="719" y="829" type="line"/>
    </contour>
    <contour>
      <point x="962" y="1195" type="line"/>
      <point x="1110" y="1195" type="line"/>
      <point x="1110" y="0" type="line"/>
      <point x="962" y="0" type="line"/>
    </contour>
    <contour>
      <point x="1380" y="1165" type="line"/>
      <point x="812" y="1165" type="line"/>
      <point x="812" y="1279" type="line"/>
      <point x="1380" y="1279" type="line"/>
    </contour>
    <contour>
      <point x="402" y="696" type="line"/>
      <point x="284" y="720"/>
      <point x="189" y="766"/>
      <point x="124" y="831" type="curve" smooth="yes"/>
      <point x="60" y="895"/>
      <point x="24" y="978"/>
      <point x="24" y="1073" type="curve" smooth="yes"/>
      <point x="24" y="1225"/>
      <point x="130" y="1344"/>
      <point x="299" y="1344" type="curve" smooth="yes"/>
      <point x="467" y="1344"/>
      <point x="554" y="1243"/>
      <point x="554" y="1114" type="curve" smooth="yes"/>
      <point x="554" y="981"/>
      <point x="420" y="858"/>
      <point x="222" y="858" type="curve"/>
      <point x="158" y="960" type="line"/>
      <point x="347" y="960"/>
      <point x="430" y="1031"/>
      <point x="430" y="1122" type="curve" smooth="yes"/>
      <point x="430" y="1182"/>
      <point x="391" y="1227"/>
      <point x="316" y="1227" type="curve" smooth="yes"/>
      <point x="220" y="1227"/>
      <point x="151" y="1149"/>
      <point x="151" y="1057" type="curve" smooth="yes"/>
      <point x="151" y="1003"/>
      <point x="172" y="953"/>
      <point x="214" y="911" type="curve" smooth="yes"/>
      <point x="279" y="846"/>
      <point x="393" y="800"/>
      <point x="560" y="785" type="curve"/>
    </contour>
    <contour>
      <point x="962.0" y="1279.0" type="move" name="top"/>
    </contour>
  </outline>
</glyph>
<glyph name="nadeva" format="1">
  <advance width="1214.0"/>
  <unicode hex="0928"/>
  <outline>
    <contour>
      <point x="845" y="790" type="line"/>
      <point x="845" y="663" type="line"/>
      <point x="287" y="663" type="line"/>
      <point x="350" y="714" type="line"/>
      <point x="350" y="450" type="line" smooth="yes"/>
      <point x="350" y="404"/>
      <point x="324" y="381"/>
      <point x="293" y="381" type="curve" smooth="yes"/>
      <point x="274" y="381"/>
      <point x="256" y="390"/>
      <point x="236" y="410" type="curve" smooth="yes"/>
      <point x="192" y="454"/>
      <point x="126" y="608"/>
      <point x="126" y="708" type="curve" smooth="yes"/>
      <point x="126" y="759"/>
      <point x="155" y="790"/>
      <point x="216" y="790" type="curve" smooth="yes"/>
    </contour>
    <contour>
      <point x="-30" y="1165" type="line"/>
      <point x="-30" y="1279" type="line"/>
      <point x="1244" y="1279" type="line"/>
      <point x="1244" y="1165" type="line"/>
    </contour>
    <contour>
      <point x="826" y="1196" type="line"/>
      <point x="974" y="1196" type="line"/>
      <point x="974" y="0" type="line"/>
      <point x="826" y="0" type="line"/>
    </contour>
    <contour>
      <point x="826" y="1279" type="move" name="top"/>
    </contour>
  </outline>
</glyph>
<glyph name="padeva" format="1">
  <advance width="1151"/>
  <unicode hex="092A"/>
  <outline>
    <contour>
      <point x="1181" y="1165" type="line"/>
      <point x="-30" y="1165" type="line"/>
      <point x="-30" y="1279" type="line"/>
      <point x="1181" y="1279" type="line"/>
    </contour>
    <contour>
      <point x="302" y="1206" type="line"/>
      <point x="302" y="738" type="line" smooth="yes"/>
      <point x="302" y="585"/>
      <point x="384" y="520"/>
      <point x="516" y="520" type="curve" smooth="yes"/>
      <point x="614" y="520"/>
      <point x="707" y="548"/>
      <point x="794" y="615" type="curve"/>
      <point x="794" y="451" type="line"/>
      <point x="722" y="415"/>
      <point x="629" y="390"/>
      <point x="539" y="390" type="curve" smooth="yes"/>
      <point x="308" y="390"/>
      <point x="154" y="514"/>
      <point x="154" y="768" type="curve" smooth="yes"/>
      <point x="154" y="1206" type="line"/>
    </contour>
    <contour>
      <point x="763" y="1196" type="line"/>
      <point x="911" y="1196" type="line"/>
      <point x="911" y="0" type="line"/>
      <point x="763" y="0" type="line"/>
    </contour>
    <contour>
      <point x="763" y="1279" type="move" name="top"/>
    </contour>
  </outline>
</glyph>
<glyph name="phadeva" format="1">
  <advance width="1605"/>
  <unicode hex="092B"/>
  <outline>
    <contour>
      <point x="305" y="1223" type="line"/>
      <point x="305" y="773" type="line" smooth="yes"/>
      <point x="305" y="623"/>
      <point x="383" y="554"/>
      <point x="518" y="554" type="curve" smooth="yes"/>
      <point x="610" y="554"/>
      <point x="698" y="582"/>
      <point x="783" y="640" type="curve"/>
      <point x="783" y="478" type="line"/>
      <point x="708" y="445"/>
      <point x="627" y="425"/>
      <point x="543" y="425" type="curve" smooth="yes"/>
      <point x="307" y="425"/>
      <point x="157" y="550"/>
      <point x="157" y="806" type="curve" smooth="yes"/>
      <point x="157" y="1223" type="line"/>
    </contour>
    <contour>
      <point x="-30" y="1165" type="line"/>
      <point x="-30" y="1279" type="line"/>
      <point x="1635" y="1279" type="line"/>
      <point x="1635" y="1165" type="line"/>
    </contour>
    <contour>
      <point x="752" y="1196" type="line"/>
      <point x="900" y="1196" type="line"/>
      <point x="900" y="0" type="line"/>
      <point x="752" y="0" type="line"/>
    </contour>
    <contour>
      <point x="889" y="530" type="curve"/>
      <point x="871" y="694" type="line"/>
      <point x="935" y="743"/>
      <point x="1036" y="784"/>
      <point x="1153" y="784" type="curve" smooth="yes"/>
      <point x="1360" y="784"/>
      <point x="1483" y="641"/>
      <point x="1483" y="461" type="curve" smooth="yes"/>
      <point x="1483" y="345"/>
      <point x="1436" y="203"/>
      <point x="1364" y="105" type="curve"/>
      <point x="1235" y="151" type="line"/>
      <point x="1307" y="252"/>
      <point x="1349" y="361"/>
      <point x="1349" y="465" type="curve" smooth="yes"/>
      <point x="1349" y="575"/>
      <point x="1279" y="654"/>
      <point x="1161" y="654" type="curve" smooth="yes"/>
      <point x="1059" y="654"/>
      <point x="966" y="606"/>
    </contour>
    <contour>
      <point x="750" y="0" type="move" name="btm"/>
    </contour>
    <contour>
      <point x="752" y="1279" type="move" name="top"/>
    </contour>
  </outline>
</glyph>
<glyph name="badeva" format="1">
  <advance width="1173.0"/>
  <unicode hex="092C"/>
  <outline>
    <contour>
      <point x="773" y="426" type="line"/>
      <point x="675" y="348" type="line"/>
      <point x="291" y="796" type="line"/>
      <point x="385" y="875" type="line"/>
    </contour>
    <contour>
      <point x="1203" y="1165" type="line"/>
      <point x="-30" y="1165" type="line"/>
      <point x="-30" y="1279" type="line"/>
      <point x="1203" y="1279" type="line"/>
    </contour>
    <contour>
      <point x="817" y="520" type="curve"/>
      <point x="815" y="347" type="line"/>
      <point x="754" y="289"/>
      <point x="642" y="251"/>
      <point x="527" y="251" type="curve" smooth="yes"/>
      <point x="279" y="251"/>
      <point x="114" y="419"/>
      <point x="114" y="632" type="curve" smooth="yes"/>
      <point x="114" y="809"/>
      <point x="247" y="951"/>
      <point x="481" y="951" type="curve" smooth="yes"/>
      <point x="616" y="951"/>
      <point x="735" y="926"/>
      <point x="850" y="875" type="curve"/>
      <point x="850" y="744" type="line"/>
      <point x="720" y="801"/>
      <point x="611" y="828"/>
      <point x="513" y="828" type="curve" smooth="yes"/>
      <point x="333" y="828"/>
      <point x="247" y="735"/>
      <point x="247" y="610" type="curve" smooth="yes"/>
      <point x="247" y="477"/>
      <point x="350" y="376"/>
      <point x="511" y="376" type="curve" smooth="yes"/>
      <point x="632" y="376"/>
      <point x="740" y="425"/>
    </contour>
    <contour>
      <point x="785" y="1196" type="line"/>
      <point x="933" y="1196" type="line"/>
      <point x="933" y="0" type="line"/>
      <point x="785" y="0" type="line"/>
    </contour>
    <contour>
      <point x="795" y="1279" type="move" name="top"/>
    </contour>
  </outline>
</glyph>
<glyph name="bhadeva" format="1">
  <advance width="1404"/>
  <unicode hex="092D"/>
  <outline>
    <contour>
      <point x="1015" y="1196" type="line"/>
      <point x="1163" y="1196" type="line"/>
      <point x="1163" y="0" type="line"/>
      <point x="1015" y="0" type="line"/>
    </contour>
    <contour>
      <point x="1434" y="1165" type="line"/>
      <point x="867" y="1165" type="line"/>
      <point x="867" y="1279" type="line"/>
      <point x="1434" y="1279" type="line"/>
    </contour>
    <contour>
      <point x="469" y="657" type="line"/>
      <point x="439" y="628" type="line"/>
      <point x="439" y="1033" type="line" smooth="yes"/>
      <point x="439" y="1150"/>
      <point x="385" y="1209"/>
      <point x="287" y="1209" type="curve" smooth="yes"/>
      <point x="193" y="1209"/>
      <point x="159" y="1152"/>
      <point x="159" y="1087" type="curve" smooth="yes"/>
      <point x="159" y="993"/>
      <point x="234" y="913"/>
      <point x="473" y="911" type="curve"/>
      <point x="452" y="789" type="line"/>
      <point x="161" y="801"/>
      <point x="20" y="918"/>
      <point x="20" y="1101" type="curve" smooth="yes"/>
      <point x="20" y="1222"/>
      <point x="100" y="1337"/>
      <point x="277" y="1337" type="curve" smooth="yes"/>
      <point x="463" y="1337"/>
      <point x="586" y="1208"/>
      <point x="586" y="1016" type="curve" smooth="yes"/>
      <point x="586" y="628" type="line"/>
      <point x="553" y="657" type="line"/>
      <point x="1066" y="657" type="line"/>
      <point x="1066" y="529" type="line"/>
      <point x="551" y="529" type="line"/>
      <point x="586" y="557" type="line"/>
      <point x="586" y="422" type="line"/>
      <point x="586" y="381"/>
      <point x="570" y="357"/>
      <point x="533" y="357" type="curve" smooth="yes"/>
      <point x="497" y="357"/>
      <point x="442" y="386"/>
      <point x="393" y="436" type="curve" smooth="yes"/>
      <point x="336" y="492"/>
      <point x="296" y="558"/>
      <point x="296" y="600" type="curve" smooth="yes"/>
      <point x="296" y="634"/>
      <point x="316" y="657"/>
      <point x="363" y="657" type="curve" smooth="yes"/>
    </contour>
    <contour>
      <point x="1015" y="1279" type="move" name="top"/>
    </contour>
  </outline>
</glyph>
<glyph name="madeva" format="1">
  <advance width="1241"/>
  <unicode hex="092E"/>
  <outline>
    <contour>
      <point x="-30" y="1165" type="line"/>
      <point x="-30" y="1279" type="line"/>
      <point x="1271" y="1279" type="line"/>
      <point x="1271" y="1165" type="line"/>
    </contour>
    <contour>
      <point x="853" y="1196" type="line"/>
      <point x="1001" y="1196" type="line"/>
      <point x="1001" y="0" type="line"/>
      <point x="853" y="0" type="line"/>
    </contour>
    <contour>
      <point x="101" y="600" type="curve" smooth="yes"/>
      <point x="101" y="634"/>
      <point x="121" y="657"/>
      <point x="168" y="657" type="curve" smooth="yes"/>
      <point x="272" y="657" type="line"/>
      <point x="243" y="627" type="line"/>
      <point x="243" y="1205" type="line"/>
      <point x="391" y="1205" type="line"/>
      <point x="391" y="628" type="line"/>
      <point x="359" y="657" type="line"/>
      <point x="908" y="657" type="line"/>
      <point x="908" y="529" type="line"/>
      <point x="356" y="529" type="line"/>
      <point x="391" y="557" type="line"/>
      <point x="391" y="422" type="line" smooth="yes"/>
      <point x="391" y="381"/>
      <point x="375" y="357"/>
      <point x="338" y="357" type="curve" smooth="yes"/>
      <point x="302" y="357"/>
      <point x="247" y="386"/>
      <point x="198" y="436" type="curve" smooth="yes"/>
      <point x="141" y="492"/>
      <point x="101" y="558"/>
    </contour>
    <contour>
      <point x="853" y="1279" type="move" name="top"/>
    </contour>
  </outline>
</glyph>
<glyph name="yadeva" format="1">
  <advance width="1260"/>
  <unicode hex="092F"/>
  <outline>
    <contour>
      <point x="-30" y="1165" type="line"/>
      <point x="-30" y="1279" type="line"/>
      <point x="1290" y="1279" type="line"/>
      <point x="1290" y="1165" type="line"/>
    </contour>
    <contour>
      <point x="382" y="1190" type="line"/>
      <point x="530" y="1190" type="line"/>
      <point x="530" y="995" type="line" smooth="yes"/>
      <point x="530" y="795"/>
      <point x="441" y="657"/>
      <point x="229" y="586" type="curve"/>
      <point x="235" y="673" type="line"/>
      <point x="313" y="533"/>
      <point x="448" y="453"/>
      <point x="587" y="453" type="curve" smooth="yes"/>
      <point x="702" y="453"/>
      <point x="832" y="514"/>
      <point x="923" y="643" type="curve"/>
      <point x="922" y="455" type="line"/>
      <point x="847" y="372"/>
      <point x="733" y="322"/>
      <point x="596" y="322" type="curve" smooth="yes"/>
      <point x="414" y="322"/>
      <point x="216" y="435"/>
      <point x="80" y="659" type="curve"/>
      <point x="80" y="666" type="line"/>
      <point x="329" y="751"/>
      <point x="382" y="846"/>
      <point x="382" y="997" type="curve" smooth="yes"/>
    </contour>
    <contour>
      <point x="872" y="1196" type="line"/>
      <point x="1020" y="1196" type="line"/>
      <point x="1020" y="0" type="line"/>
      <point x="872" y="0" type="line"/>
    </contour>
    <contour>
      <point x="872.0" y="1279.0" type="move" name="top"/>
    </contour>
  </outline>
</glyph>
<glyph name="radeva" format="1">
  <advance width="864"/>
  <unicode hex="0930"/>
  <outline>
    <contour>
      <point x="713" y="63" type="line"/>
      <point x="604" y="-13" type="line"/>
      <point x="87" y="699" type="line" smooth="yes"/>
      <point x="63" y="731"/>
      <point x="50" y="755"/>
      <point x="50" y="783" type="curve" smooth="yes"/>
      <point x="50" y="818"/>
      <point x="75" y="846"/>
      <point x="116" y="846" type="curve" smooth="yes"/>
      <point x="143" y="846"/>
      <point x="165" y="831"/>
      <point x="184" y="806" type="curve" smooth="yes"/>
      <point x="339" y="590" type="line"/>
      <point x="345" y="569" type="line"/>
    </contour>
    <contour>
      <point x="262" y="613" type="line"/>
      <point x="442" y="655"/>
      <point x="519" y="763"/>
      <point x="519" y="934" type="curve" smooth="yes"/>
      <point x="519" y="1202" type="line"/>
      <point x="667" y="1202" type="line"/>
      <point x="667" y="911" type="line" smooth="yes"/>
      <point x="667" y="733"/>
      <point x="594" y="555"/>
      <point x="353" y="493" type="curve"/>
    </contour>
    <contour>
      <point x="-30" y="1165" type="line"/>
      <point x="-30" y="1279" type="line"/>
      <point x="894" y="1279" type="line"/>
      <point x="894" y="1165" type="line"/>
    </contour>
    <contour>
      <point x="395" y="0" type="move" name="btm"/>
    </contour>
    <contour>
      <point x="519" y="1279" type="move" name="top"/>
    </contour>
  </outline>
</glyph>
<glyph name="rradeva" format="1">
  <advance width="864"/>
  <unicode hex="0931"/>
  <outline>
    <component base="nuktadeva" xOffset="945" yOffset="308"/>
    <component base="radeva"/>
    <contour>
      <point x="395" y="-5" type="move" name="btm"/>
    </contour>
    <contour>
      <point x="519" y="1279" type="move" name="top"/>
    </contour>
  </outline>
</glyph>
<glyph name="ladeva" format="1">
  <advance width="1520.0"/>
  <unicode hex="0932"/>
  <outline>
    <contour>
      <point x="1132" y="1196" type="line"/>
      <point x="1280" y="1196" type="line"/>
      <point x="1280" y="0" type="line"/>
      <point x="1132" y="0" type="line"/>
    </contour>
    <contour>
      <point x="-30" y="1165" type="line"/>
      <point x="-30" y="1279" type="line"/>
      <point x="1550" y="1279" type="line"/>
      <point x="1550" y="1165" type="line"/>
    </contour>
    <contour>
      <point x="1182" y="937" type="line"/>
      <point x="1182" y="750" type="line"/>
      <point x="682" y="324" type="line"/>
      <point x="589" y="417" type="line"/>
    </contour>
    <contour>
      <point x="895" y="669" type="curve"/>
      <point x="801" y="577" type="line"/>
      <point x="712" y="687"/>
      <point x="585" y="756"/>
      <point x="472" y="756" type="curve" smooth="yes"/>
      <point x="331" y="756"/>
      <point x="245" y="657"/>
      <point x="245" y="537" type="curve" smooth="yes"/>
      <point x="245" y="395"/>
      <point x="310" y="277"/>
      <point x="517" y="98" type="curve"/>
      <point x="404" y="20" type="line"/>
      <point x="207" y="191"/>
      <point x="105" y="369"/>
      <point x="105" y="553" type="curve" smooth="yes"/>
      <point x="105" y="748"/>
      <point x="250" y="891"/>
      <point x="452" y="891" type="curve" smooth="yes"/>
      <point x="631" y="891"/>
      <point x="775" y="809"/>
    </contour>
    <contour>
      <point x="1132" y="1279" type="move" name="top"/>
    </contour>
  </outline>
</glyph>
<glyph name="lladeva" format="1">
  <advance width="1649"/>
  <unicode hex="0933"/>
  <outline>
    <contour>
      <point x="1679" y="1165" type="line"/>
      <point x="-30" y="1165" type="line"/>
      <point x="-30" y="1279" type="line"/>
      <point x="1679" y="1279" type="line"/>
    </contour>
    <contour>
      <point x="773" y="549" type="curve" smooth="yes"/>
      <point x="869" y="793"/>
      <point x="1011" y="915"/>
      <point x="1202" y="915" type="curve" smooth="yes"/>
      <point x="1431" y="915"/>
      <point x="1559" y="755"/>
      <point x="1559" y="511" type="curve" smooth="yes"/>
      <point x="1559" y="271"/>
      <point x="1398" y="126"/>
      <point x="1181" y="126" type="curve" smooth="yes"/>
      <point x="1019" y="126"/>
      <point x="887" y="198"/>
      <point x="742" y="340" type="curve"/>
      <point x="803" y="460" type="line"/>
      <point x="926" y="325"/>
      <point x="1050" y="258"/>
      <point x="1169" y="258" type="curve" smooth="yes"/>
      <point x="1322" y="258"/>
      <point x="1425" y="353"/>
      <point x="1425" y="534" type="curve" smooth="yes"/>
      <point x="1425" y="684"/>
      <point x="1345" y="783"/>
      <point x="1208" y="783" type="curve" smooth="yes"/>
      <point x="1095" y="783"/>
      <point x="979" y="701"/>
      <point x="907" y="507" type="curve" smooth="yes"/>
      <point x="813" y="255"/>
      <point x="695" y="123"/>
      <point x="488" y="123" type="curve" smooth="yes"/>
      <point x="277" y="123"/>
      <point x="120" y="272"/>
      <point x="120" y="517" type="curve" smooth="yes"/>
      <point x="120" y="744"/>
      <point x="269" y="911"/>
      <point x="497" y="911" type="curve" smooth="yes"/>
      <point x="673" y="911"/>
      <point x="803" y="845"/>
      <point x="935" y="711" type="curve"/>
      <point x="872" y="599" type="line"/>
      <point x="739" y="725"/>
      <point x="644" y="776"/>
      <point x="516" y="776" type="curve" smooth="yes"/>
      <point x="356" y="776"/>
      <point x="257" y="672"/>
      <point x="257" y="500" type="curve" smooth="yes"/>
      <point x="257" y="342"/>
      <point x="355" y="253"/>
      <point x="481" y="253" type="curve" smooth="yes"/>
      <point x="606" y="253"/>
      <point x="692" y="343"/>
    </contour>
    <contour>
      <point x="1409" y="833" type="line"/>
      <point x="1261" y="834" type="line"/>
      <point x="1261" y="1191" type="line"/>
      <point x="1409" y="1191" type="line"/>
    </contour>
    <contour>
      <point x="1131.0" y="25.0" type="move" name="btm"/>
    </contour>
    <contour>
      <point x="1221.0" y="1279.0" type="move" name="top"/>
    </contour>
  </outline>
</glyph>
<glyph name="vadeva" format="1">
  <advance width="1173.0"/>
  <unicode hex="0935"/>
  <outline>
    <contour>
      <point x="1203" y="1165" type="line"/>
      <point x="-30" y="1165" type="line"/>
      <point x="-30" y="1279" type="line"/>
      <point x="1203" y="1279" type="line"/>
    </contour>
    <contour>
      <point x="817" y="526" type="curve"/>
      <point x="815" y="351" type="line"/>
      <point x="750" y="289"/>
      <point x="643" y="253"/>
      <point x="527" y="253" type="curve" smooth="yes"/>
      <point x="280" y="253"/>
      <point x="115" y="419"/>
      <point x="115" y="633" type="curve" smooth="yes"/>
      <point x="115" y="810"/>
      <point x="251" y="949"/>
      <point x="481" y="949" type="curve" smooth="yes"/>
      <point x="616" y="949"/>
      <point x="735" y="926"/>
      <point x="850" y="875" type="curve"/>
      <point x="850" y="741" type="line"/>
      <point x="720" y="798"/>
      <point x="612" y="824"/>
      <point x="514" y="824" type="curve" smooth="yes"/>
      <point x="337" y="824"/>
      <point x="251" y="729"/>
      <point x="251" y="610" type="curve" smooth="yes"/>
      <point x="251" y="482"/>
      <point x="350" y="379"/>
      <point x="510" y="379" type="curve" smooth="yes"/>
      <point x="621" y="379"/>
      <point x="721" y="420"/>
    </contour>
    <contour>
      <point x="785" y="1196" type="line"/>
      <point x="933" y="1196" type="line"/>
      <point x="933" y="0" type="line"/>
      <point x="785" y="0" type="line"/>
    </contour>
    <contour>
      <point x="785" y="1279" type="move" name="top"/>
    </contour>
  </outline>
</glyph>
<glyph name="shadeva" format="1">
  <advance width="1471"/>
  <unicode hex="0936"/>
  <outline>
    <contour>
      <point x="420" y="515" type="line"/>
      <point x="783" y="84" type="line"/>
      <point x="683" y="-1" type="line"/>
      <point x="307" y="440" type="line"/>
    </contour>
    <contour>
      <point x="223" y="377" type="curve" smooth="yes"/>
      <point x="151" y="377"/>
      <point x="121" y="420"/>
      <point x="121" y="486" type="curve" smooth="yes"/>
      <point x="121" y="563"/>
      <point x="170" y="648"/>
      <point x="244" y="648" type="curve" smooth="yes"/>
      <point x="296" y="648"/>
      <point x="345" y="608"/>
      <point x="410" y="527" type="curve"/>
      <point x="311" y="523" type="line"/>
      <point x="536" y="581"/>
      <point x="672" y="728"/>
      <point x="672" y="914" type="curve" smooth="yes"/>
      <point x="672" y="1046"/>
      <point x="566" y="1176"/>
      <point x="431" y="1176" type="curve" smooth="yes"/>
      <point x="333" y="1176"/>
      <point x="283" y="1116"/>
      <point x="283" y="1045" type="curve" smooth="yes"/>
      <point x="283" y="938"/>
      <point x="400" y="843"/>
      <point x="714" y="843" type="curve"/>
      <point x="674" y="722" type="line"/>
      <point x="289" y="733"/>
      <point x="147" y="890"/>
      <point x="147" y="1055" type="curve" smooth="yes"/>
      <point x="147" y="1185"/>
      <point x="241" y="1301"/>
      <point x="417" y="1301" type="curve" smooth="yes"/>
      <point x="636" y="1301"/>
      <point x="800" y="1141"/>
      <point x="800" y="902" type="curve" smooth="yes"/>
      <point x="800" y="574"/>
      <point x="451" y="377"/>
    </contour>
    <contour>
      <point x="1083" y="1196" type="line"/>
      <point x="1231" y="1196" type="line"/>
      <point x="1231" y="0" type="line"/>
      <point x="1083" y="0" type="line"/>
    </contour>
    <contour>
      <point x="1501" y="1165" type="line"/>
      <point x="892" y="1165" type="line"/>
      <point x="892" y="1279" type="line"/>
      <point x="1501" y="1279" type="line"/>
    </contour>
    <contour>
      <point x="1083.0" y="1279.0" type="move" name="top"/>
    </contour>
  </outline>
</glyph>
<glyph name="ssadeva" format="1">
  <advance width="1151"/>
  <unicode hex="0937"/>
  <outline>
    <contour>
      <point x="831" y="596" type="line"/>
      <point x="734" y="518" type="line"/>
      <point x="218" y="1147" type="line"/>
      <point x="311" y="1226" type="line"/>
    </contour>
    <contour>
      <point x="1181" y="1165" type="line"/>
      <point x="-30" y="1165" type="line"/>
      <point x="-30" y="1279" type="line"/>
      <point x="1181" y="1279" type="line"/>
    </contour>
    <contour>
      <point x="299" y="1206" type="line"/>
      <point x="299" y="738" type="line" smooth="yes"/>
      <point x="299" y="585"/>
      <point x="384" y="520"/>
      <point x="516" y="520" type="curve" smooth="yes"/>
      <point x="614" y="520"/>
      <point x="707" y="544"/>
      <point x="794" y="614" type="curve"/>
      <point x="794" y="449" type="line"/>
      <point x="722" y="414"/>
      <point x="629" y="390"/>
      <point x="539" y="390" type="curve" smooth="yes"/>
      <point x="308" y="390"/>
      <point x="154" y="514"/>
      <point x="154" y="768" type="curve" smooth="yes"/>
      <point x="154" y="1206" type="line"/>
    </contour>
    <contour>
      <point x="763" y="1196" type="line"/>
      <point x="911" y="1196" type="line"/>
      <point x="911" y="0" type="line"/>
      <point x="763" y="0" type="line"/>
    </contour>
    <contour>
      <point x="763.0" y="1279.0" type="move" name="top"/>
    </contour>
  </outline>
</glyph>
<glyph name="sadeva" format="1">
  <advance width="1450"/>
  <unicode hex="0938"/>
  <outline>
    <contour>
      <point x="713" y="63" type="line"/>
      <point x="604" y="-13" type="line"/>
      <point x="87" y="699" type="line" smooth="yes"/>
      <point x="63" y="731"/>
      <point x="50" y="755"/>
      <point x="50" y="783" type="curve" smooth="yes"/>
      <point x="50" y="818"/>
      <point x="76" y="846"/>
      <point x="116" y="846" type="curve" smooth="yes"/>
      <point x="143" y="846"/>
      <point x="165" y="831"/>
      <point x="184" y="806" type="curve" smooth="yes"/>
      <point x="339" y="590" type="line"/>
      <point x="345" y="569" type="line"/>
    </contour>
    <contour>
      <point x="230" y="618" type="line"/>
      <point x="405" y="660"/>
      <point x="483" y="764"/>
      <point x="483" y="936" type="curve" smooth="yes"/>
      <point x="483" y="1202" type="line"/>
      <point x="631" y="1202" type="line"/>
      <point x="631" y="913" type="line" smooth="yes"/>
      <point x="631" y="736"/>
      <point x="561" y="561"/>
      <point x="318" y="494" type="curve"/>
    </contour>
    <contour>
      <point x="-30" y="1165" type="line"/>
      <point x="-30" y="1279" type="line"/>
      <point x="1480" y="1279" type="line"/>
      <point x="1480" y="1165" type="line"/>
    </contour>
    <contour>
      <point x="476" y="599" type="curve"/>
      <point x="525" y="714" type="line"/>
      <point x="637" y="669"/>
      <point x="737" y="650"/>
      <point x="815" y="650" type="curve" smooth="yes"/>
      <point x="907" y="650"/>
      <point x="1016" y="666"/>
      <point x="1085" y="691" type="curve"/>
      <point x="1085" y="554" type="line"/>
      <point x="1035" y="535"/>
      <point x="937" y="518"/>
      <point x="840" y="518" type="curve" smooth="yes"/>
      <point x="722" y="518"/>
      <point x="608" y="542"/>
    </contour>
    <contour>
      <point x="1062" y="1196" type="line"/>
      <point x="1210" y="1196" type="line"/>
      <point x="1210" y="0" type="line"/>
      <point x="1062" y="0" type="line"/>
    </contour>
    <contour>
      <point x="1062.0" y="1279.0" type="move" name="top"/>
    </contour>
  </outline>
</glyph>
<glyph name="hadeva" format="1">
  <advance width="1169"/>
  <unicode hex="0939"/>
  <outline>
    <contour>
      <point x="782" y="1198" type="line"/>
      <point x="930" y="1198" type="line"/>
      <point x="930" y="820" type="line"/>
      <point x="432" y="820" type="line" smooth="yes"/>
      <point x="304" y="820"/>
      <point x="250" y="767"/>
      <point x="250" y="694" type="curve" smooth="yes"/>
      <point x="250" y="625"/>
      <point x="310" y="563"/>
      <point x="422" y="530" type="curve"/>
      <point x="339" y="428" type="line"/>
      <point x="196" y="497"/>
      <point x="110" y="595"/>
      <point x="110" y="712" type="curve" smooth="yes"/>
      <point x="110" y="845"/>
      <point x="208" y="937"/>
      <point x="414" y="937" type="curve" smooth="yes"/>
      <point x="821" y="937" type="line"/>
      <point x="782" y="895" type="line"/>
    </contour>
    <contour>
      <point x="628" y="602" type="curve" smooth="yes"/>
      <point x="873" y="602"/>
      <point x="1008" y="473"/>
      <point x="1008" y="309" type="curve" smooth="yes"/>
      <point x="1008" y="231"/>
      <point x="988" y="162"/>
      <point x="950" y="103" type="curve"/>
      <point x="826" y="135" type="line"/>
      <point x="858" y="185"/>
      <point x="874" y="242"/>
      <point x="874" y="301" type="curve" smooth="yes"/>
      <point x="874" y="388"/>
      <point x="795" y="472"/>
      <point x="637" y="473" type="curve" smooth="yes"/>
      <point x="467" y="474"/>
      <point x="360" y="358"/>
      <point x="360" y="230" type="curve" smooth="yes"/>
      <point x="360" y="56"/>
      <point x="508" y="-79"/>
      <point x="927" y="-127" type="curve"/>
      <point x="888" y="-247" type="line"/>
      <point x="439" y="-199"/>
      <point x="217" y="-21"/>
      <point x="217" y="249" type="curve" smooth="yes"/>
      <point x="217" y="435"/>
      <point x="370" y="602"/>
    </contour>
    <contour>
      <point x="1199" y="1165" type="line"/>
      <point x="-30" y="1165" type="line"/>
      <point x="-30" y="1279" type="line"/>
      <point x="1199" y="1279" type="line"/>
    </contour>
    <contour>
      <point x="780.0" y="1279.0" type="move" name="top"/>
    </contour>
  </outline>
</glyph>
<glyph name="oevowelsigndevaKSH" format="1">
  <advance width="0"/>
  <unicode hex="093A"/>
  <outline>
    <component base="udattadeva" yOffset="-241"/>
    <contour>
      <point x="-391" y="1278" type="move" name="_top"/>
    </contour>
  </outline>
</glyph>
<glyph name="avagrahadeva" format="1">
  <advance width="1079"/>
  <unicode hex="093D"/>
  <outline>
    <contour>
      <point x="936" y="407" type="curve" smooth="yes"/>
      <point x="936" y="206"/>
      <point x="773" y="92"/>
      <point x="580" y="92" type="curve" smooth="yes"/>
      <point x="421" y="92"/>
      <point x="282" y="134"/>
      <point x="114" y="251" type="curve"/>
      <point x="155" y="377" type="line"/>
      <point x="304" y="268"/>
      <point x="432" y="222"/>
      <point x="547" y="222" type="curve" smooth="yes"/>
      <point x="702" y="222"/>
      <point x="800" y="298"/>
      <point x="800" y="413" type="curve" smooth="yes"/>
      <point x="800" y="523"/>
      <point x="701" y="601"/>
      <point x="504" y="710" type="curve" smooth="yes"/>
      <point x="317" y="813"/>
      <point x="234" y="919"/>
      <point x="234" y="1051" type="curve" smooth="yes"/>
      <point x="234" y="1163"/>
      <point x="317" y="1279"/>
      <point x="538" y="1279" type="curve" smooth="yes"/>
      <point x="900" y="1279" type="line"/>
      <point x="900" y="1165" type="line"/>
      <point x="574" y="1165" type="line" smooth="yes"/>
      <point x="429" y="1165"/>
      <point x="376" y="1113"/>
      <point x="376" y="1031" type="curve" smooth="yes"/>
      <point x="376" y="954"/>
      <point x="427" y="894"/>
      <point x="623" y="786" type="curve" smooth="yes"/>
      <point x="835" y="669"/>
      <point x="936" y="567"/>
    </contour>
  </outline>
</glyph>
<glyph name="aavowelsigndeva" format="1">
  <advance width="594"/>
  <unicode hex="093E"/>
  <outline>
    <contour>
      <point x="206" y="1196" type="line"/>
      <point x="354" y="1196" type="line"/>
      <point x="354" y="0" type="line"/>
      <point x="206" y="0" type="line"/>
    </contour>
    <contour>
      <point x="624" y="1165" type="line"/>
      <point x="-30" y="1165" type="line"/>
      <point x="-30" y="1279" type="line"/>
      <point x="624" y="1279" type="line"/>
    </contour>
  </outline>
</glyph>
<glyph name="iivowelsigndeva" format="1">
  <advance width="594"/>
  <unicode hex="0940"/>
  <outline>
    <contour>
      <point x="205" y="1239" type="line"/>
      <point x="105" y="1495"/>
      <point x="-37" y="1627"/>
      <point x="-191" y="1627" type="curve" smooth="yes"/>
      <point x="-288" y="1627"/>
      <point x="-338" y="1567"/>
      <point x="-338" y="1482" type="curve" smooth="yes"/>
      <point x="-338" y="1411"/>
      <point x="-306" y="1334"/>
      <point x="-247" y="1258" type="curve"/>
      <point x="-403" y="1258" type="line"/>
      <point x="-450" y="1339"/>
      <point x="-477" y="1422"/>
      <point x="-477" y="1512" type="curve" smooth="yes"/>
      <point x="-477" y="1645"/>
      <point x="-383" y="1763"/>
      <point x="-210" y="1763" type="curve" smooth="yes"/>
      <point x="36" y="1763"/>
      <point x="241" y="1574"/>
      <point x="361" y="1239" type="curve"/>
    </contour>
    <component base="aavowelsigndeva"/>
  </outline>
</glyph>
<glyph name="uvowelsigndeva" format="1">
  <advance width="0"/>
  <unicode hex="0941"/>
  <outline>
    <contour>
      <point x="-608" y="-97" type="line"/>
      <point x="-539" y="-31"/>
      <point x="-440" y="21"/>
      <point x="-316" y="21" type="curve" smooth="yes"/>
      <point x="-135" y="21"/>
      <point x="-7" y="-101"/>
      <point x="-7" y="-264" type="curve" smooth="yes"/>
      <point x="-7" y="-437"/>
      <point x="-137" y="-548"/>
      <point x="-340" y="-548" type="curve" smooth="yes"/>
      <point x="-514" y="-548"/>
      <point x="-726" y="-468"/>
      <point x="-910" y="-334" type="curve"/>
      <point x="-860" y="-217" type="line"/>
      <point x="-671" y="-354"/>
      <point x="-494" y="-421"/>
      <point x="-366" y="-421" type="curve" smooth="yes"/>
      <point x="-221" y="-421"/>
      <point x="-141" y="-353"/>
      <point x="-141" y="-255" type="curve" smooth="yes"/>
      <point x="-141" y="-170"/>
      <point x="-207" y="-105"/>
      <point x="-315" y="-105" type="curve" smooth="yes"/>
      <point x="-396" y="-105"/>
      <point x="-472" y="-144"/>
      <point x="-540" y="-205" type="curve"/>
    </contour>
    <contour>
      <point x="-389.0" y="0.0" type="move" name="_btm"/>
    </contour>
  </outline>
</glyph>
<glyph name="uuvowelsigndeva" format="1">
  <advance width="0"/>
  <unicode hex="0942"/>
  <outline>
    <contour>
      <point x="-99" y="-473" type="line"/>
      <point x="-160" y="-510"/>
      <point x="-227" y="-529"/>
      <point x="-315" y="-529" type="curve" smooth="yes"/>
      <point x="-489" y="-529"/>
      <point x="-630" y="-423"/>
      <point x="-630" y="-255" type="curve" smooth="yes"/>
      <point x="-630" y="-119"/>
      <point x="-531" y="17"/>
      <point x="-331" y="17" type="curve" smooth="yes"/>
      <point x="-127" y="17"/>
      <point x="87" y="-115"/>
      <point x="281" y="-370" type="curve"/>
      <point x="201" y="-463" type="line"/>
      <point x="11" y="-216"/>
      <point x="-176" y="-112"/>
      <point x="-315" y="-112" type="curve" smooth="yes"/>
      <point x="-436" y="-112"/>
      <point x="-498" y="-187"/>
      <point x="-498" y="-271" type="curve" smooth="yes"/>
      <point x="-498" y="-351"/>
      <point x="-435" y="-409"/>
      <point x="-320" y="-409" type="curve" smooth="yes"/>
      <point x="-257" y="-409"/>
      <point x="-200" y="-390"/>
      <point x="-141" y="-360" type="curve"/>
    </contour>
    <contour>
      <point x="-389.0" y="0.0" type="move" name="_btm"/>
    </contour>
  </outline>
</glyph>
<glyph name="rvocalicvowelsigndeva" format="1">
  <advance width="0"/>
  <unicode hex="0943"/>
  <outline>
    <contour>
      <point x="-124" y="-434" type="line"/>
      <point x="-191" y="-463"/>
      <point x="-265" y="-479"/>
      <point x="-363" y="-479" type="curve" smooth="yes"/>
      <point x="-528" y="-479"/>
      <point x="-657" y="-381"/>
      <point x="-657" y="-222" type="curve" smooth="yes"/>
      <point x="-657" y="-95"/>
      <point x="-559" y="19"/>
      <point x="-350" y="19" type="curve" smooth="yes"/>
      <point x="-313" y="19"/>
      <point x="-275" y="18"/>
      <point x="-240" y="16" type="curve"/>
      <point x="-240" y="-89" type="line"/>
      <point x="-264" y="-89"/>
      <point x="-301" y="-89"/>
      <point x="-328" y="-89" type="curve" smooth="yes"/>
      <point x="-469" y="-89"/>
      <point x="-531" y="-156"/>
      <point x="-531" y="-240" type="curve" smooth="yes"/>
      <point x="-531" y="-317"/>
      <point x="-463" y="-369"/>
      <point x="-363" y="-369" type="curve" smooth="yes"/>
      <point x="-281" y="-369"/>
      <point x="-223" y="-352"/>
      <point x="-148" y="-320" type="curve"/>
    </contour>
    <contour>
      <point x="-389" y="0" type="move" name="_btm"/>
    </contour>
  </outline>
</glyph>
<glyph name="rrvocalicvowelsigndeva" format="1">
  <advance width="0"/>
  <unicode hex="0944"/>
  <outline>
    <contour>
      <point x="-89" y="-644" type="line"/>
      <point x="-140" y="-667"/>
      <point x="-195" y="-683"/>
      <point x="-274" y="-683" type="curve" smooth="yes"/>
      <point x="-432" y="-683"/>
      <point x="-518" y="-587"/>
      <point x="-518" y="-492" type="curve" smooth="yes"/>
      <point x="-518" y="-379"/>
      <point x="-441" y="-306"/>
      <point x="-272" y="-305" type="curve"/>
      <point x="-257" y="-389" type="line"/>
      <point x="-350" y="-394"/>
      <point x="-400" y="-438"/>
      <point x="-400" y="-493" type="curve" smooth="yes"/>
      <point x="-400" y="-543"/>
      <point x="-357" y="-584"/>
      <point x="-271" y="-584" type="curve" smooth="yes"/>
      <point x="-222" y="-584"/>
      <point x="-169" y="-570"/>
      <point x="-110" y="-542" type="curve"/>
    </contour>
    <contour>
      <point x="-163" y="-373" type="line"/>
      <point x="-231" y="-397"/>
      <point x="-290" y="-407"/>
      <point x="-357" y="-407" type="curve" smooth="yes"/>
      <point x="-524" y="-407"/>
      <point x="-628" y="-302"/>
      <point x="-628" y="-186" type="curve" smooth="yes"/>
      <point x="-628" y="-75"/>
      <point x="-548" y="20"/>
      <point x="-345" y="20" type="curve" smooth="yes"/>
      <point x="-305" y="20"/>
      <point x="-265" y="18"/>
      <point x="-240" y="16" type="curve"/>
      <point x="-240" y="-84" type="line"/>
      <point x="-264" y="-84"/>
      <point x="-302" y="-84"/>
      <point x="-329" y="-84" type="curve" smooth="yes"/>
      <point x="-452" y="-84"/>
      <point x="-500" y="-140"/>
      <point x="-500" y="-198" type="curve" smooth="yes"/>
      <point x="-500" y="-254"/>
      <point x="-451" y="-298"/>
      <point x="-358" y="-298" type="curve" smooth="yes"/>
      <point x="-308" y="-298"/>
      <point x="-250" y="-289"/>
      <point x="-184" y="-266" type="curve"/>
    </contour>
    <contour>
      <point x="-389" y="0" type="move" name="_btm"/>
    </contour>
  </outline>
</glyph>
<glyph name="eshortvowelsigndeva" format="1">
  <advance width="0"/>
  <unicode hex="0946"/>
  <outline>
    <contour>
      <point x="-391" y="1244" type="line"/>
      <point x="-391" y="1379" type="line" smooth="yes"/>
      <point x="-391" y="1461"/>
      <point x="-430" y="1505"/>
      <point x="-499" y="1505" type="curve" smooth="yes"/>
      <point x="-574" y="1505"/>
      <point x="-649" y="1459"/>
      <point x="-759" y="1459" type="curve" smooth="yes"/>
      <point x="-873" y="1459"/>
      <point x="-951" y="1507"/>
      <point x="-1029" y="1597" type="curve"/>
      <point x="-971" y="1695" type="line"/>
      <point x="-886" y="1613"/>
      <point x="-835" y="1586"/>
      <point x="-765" y="1586" type="curve" smooth="yes"/>
      <point x="-675" y="1586"/>
      <point x="-581" y="1639"/>
      <point x="-465" y="1639" type="curve" smooth="yes"/>
      <point x="-338" y="1639"/>
      <point x="-243" y="1547"/>
      <point x="-243" y="1398" type="curve" smooth="yes"/>
      <point x="-243" y="1244" type="line"/>
    </contour>
    <contour>
      <point x="-391.0" y="1279.0" type="move" name="_top"/>
    </contour>
  </outline>
</glyph>
<glyph name="aivowelsigndeva" format="1">
  <advance width="0"/>
  <unicode hex="0948"/>
  <outline>
    <contour>
      <point x="-591" y="1244" type="line"/>
      <point x="-1119" y="1607" type="line"/>
      <point x="-1026" y="1715" type="line"/>
      <point x="-374" y="1244" type="line"/>
    </contour>
    <contour>
      <point x="-382" y="1244" type="line"/>
      <point x="-617" y="1793" type="line"/>
      <point x="-480" y="1838" type="line"/>
      <point x="-235" y="1244" type="line"/>
    </contour>
    <contour>
      <point x="-391" y="1279" type="move" name="_top"/>
    </contour>
  </outline>
</glyph>
<glyph name="viramadeva" format="1">
  <advance width="0"/>
  <unicode hex="094D"/>
  <outline>
    <contour>
      <point x="-388" y="-83" type="line"/>
      <point x="109" y="-330" type="line"/>
      <point x="50" y="-445" type="line"/>
      <point x="-447" y="-198" type="line"/>
    </contour>
    <contour>
      <point x="-389" y="0" type="move" name="_btm"/>
    </contour>
  </outline>
</glyph>
<glyph name="prishthaevowelsign" format="1">
  <advance width="594"/>
  <unicode hex="094E"/>
  <outline>
    <contour>
      <point x="206" y="1196" type="line"/>
      <point x="359" y="1196" type="line"/>
      <point x="359" y="0" type="line"/>
      <point x="206" y="0" type="line"/>
    </contour>
    <contour>
      <point x="624" y="1165" type="line"/>
      <point x="206" y="1165" type="line"/>
      <point x="206" y="1279" type="line"/>
      <point x="624" y="1279" type="line"/>
    </contour>
  </outline>
</glyph>
<glyph name="awvowelsigndevaKSH" format="1">
  <advance width="594"/>
  <unicode hex="094F"/>
  <outline>
    <contour>
      <point x="226" y="1235" type="line"/>
      <point x="226" y="1518" type="line" smooth="yes"/>
      <point x="226" y="1587"/>
      <point x="196" y="1627"/>
      <point x="127" y="1627" type="curve" smooth="yes"/>
      <point x="61" y="1627"/>
      <point x="7" y="1591"/>
      <point x="-91" y="1591" type="curve" smooth="yes"/>
      <point x="-191" y="1591"/>
      <point x="-268" y="1634"/>
      <point x="-338" y="1711" type="curve"/>
      <point x="-285" y="1800" type="line"/>
      <point x="-211" y="1729"/>
      <point x="-153" y="1704"/>
      <point x="-96" y="1704" type="curve" smooth="yes"/>
      <point x="-17" y="1704"/>
      <point x="54" y="1745"/>
      <point x="157" y="1745" type="curve" smooth="yes"/>
      <point x="280" y="1745"/>
      <point x="354" y="1669"/>
      <point x="354" y="1534" type="curve" smooth="yes"/>
      <point x="354" y="1235" type="line"/>
    </contour>
    <contour>
      <point x="175" y="1208" type="line"/>
      <point x="110" y="1310" type="line" smooth="yes"/>
      <point x="67" y="1378"/>
      <point x="24" y="1410"/>
      <point x="-51" y="1410" type="curve" smooth="yes"/>
      <point x="-126" y="1410"/>
      <point x="-209" y="1374"/>
      <point x="-309" y="1374" type="curve" smooth="yes"/>
      <point x="-413" y="1374"/>
      <point x="-508" y="1418"/>
      <point x="-586" y="1503" type="curve"/>
      <point x="-532" y="1590" type="line"/>
      <point x="-451" y="1514"/>
      <point x="-383" y="1487"/>
      <point x="-314" y="1487" type="curve" smooth="yes"/>
      <point x="-221" y="1487"/>
      <point x="-133" y="1532"/>
      <point x="-36" y="1532" type="curve" smooth="yes"/>
      <point x="87" y="1532"/>
      <point x="157" y="1481"/>
      <point x="232" y="1347" type="curve" smooth="yes"/>
      <point x="317" y="1208" type="line"/>
    </contour>
    <component base="aavowelsigndeva"/>
  </outline>
</glyph>
<glyph name="omdeva" format="1">
  <advance width="1952"/>
  <unicode hex="0950"/>
  <outline>
    <contour>
      <point x="1559" y="994" type="curve" smooth="yes"/>
      <point x="1464" y="994"/>
      <point x="1385" y="915"/>
      <point x="1306" y="742" type="curve" smooth="yes"/>
      <point x="1203" y="517"/>
      <point x="1120" y="417"/>
      <point x="970" y="417" type="curve" smooth="yes"/>
      <point x="917" y="417"/>
      <point x="853" y="426"/>
      <point x="820" y="435" type="curve"/>
      <point x="821" y="566" type="line"/>
      <point x="843" y="552"/>
      <point x="906" y="544"/>
      <point x="941" y="544" type="curve" smooth="yes"/>
      <point x="1019" y="544"/>
      <point x="1085" y="597"/>
      <point x="1174" y="784" type="curve" smooth="yes"/>
      <point x="1277" y="1000"/>
      <point x="1382" y="1125"/>
      <point x="1553" y="1125" type="curve" smooth="yes"/>
      <point x="1744" y="1125"/>
      <point x="1883" y="970"/>
      <point x="1883" y="739" type="curve" smooth="yes"/>
      <point x="1883" y="521"/>
      <point x="1727" y="376"/>
      <point x="1541" y="376" type="curve" smooth="yes"/>
      <point x="1391" y="376"/>
      <point x="1261" y="441"/>
      <point x="1110" y="578" type="curve"/>
      <point x="1182" y="683" type="line"/>
      <point x="1311" y="560"/>
      <point x="1420" y="501"/>
      <point x="1519" y="501" type="curve" smooth="yes"/>
      <point x="1658" y="501"/>
      <point x="1756" y="602"/>
      <point x="1756" y="763" type="curve" smooth="yes"/>
      <point x="1756" y="897"/>
      <point x="1672" y="994"/>
    </contour>
    <contour>
      <point x="345" y="665" type="line"/>
      <point x="318" y="787" type="line"/>
      <point x="325" y="787" type="line" smooth="yes"/>
      <point x="584" y="787"/>
      <point x="711" y="899"/>
      <point x="711" y="1006" type="curve" smooth="yes"/>
      <point x="711" y="1099"/>
      <point x="637" y="1167"/>
      <point x="502" y="1167" type="curve" smooth="yes"/>
      <point x="408" y="1167"/>
      <point x="304" y="1130"/>
      <point x="220" y="1079" type="curve"/>
      <point x="175" y="1204" type="line"/>
      <point x="258" y="1251"/>
      <point x="378" y="1292"/>
      <point x="502" y="1292" type="curve" smooth="yes"/>
      <point x="723" y="1292"/>
      <point x="840" y="1165"/>
      <point x="840" y="1002" type="curve" smooth="yes"/>
      <point x="840" y="819"/>
      <point x="672" y="665"/>
      <point x="356" y="665" type="curve" smooth="yes"/>
    </contour>
    <contour>
      <point x="659" y="816" type="line"/>
      <point x="818" y="724"/>
      <point x="904" y="603"/>
      <point x="904" y="447" type="curve" smooth="yes"/>
      <point x="904" y="269"/>
      <point x="779" y="119"/>
      <point x="563" y="119" type="curve" smooth="yes"/>
      <point x="421" y="119"/>
      <point x="268" y="176"/>
      <point x="134" y="280" type="curve"/>
      <point x="176" y="406" type="line"/>
      <point x="308" y="296"/>
      <point x="427" y="252"/>
      <point x="544" y="252" type="curve" smooth="yes"/>
      <point x="687" y="252"/>
      <point x="770" y="344"/>
      <point x="770" y="457" type="curve" smooth="yes"/>
      <point x="770" y="579"/>
      <point x="689" y="676"/>
      <point x="556" y="732" type="curve"/>
    </contour>
    <component base="candrabindudeva" xOffset="1452" yOffset="-167"/>
  </outline>
</glyph>
<glyph name="uni0954" format="1">
  <advance width="0"/>
  <unicode hex="0954"/>
  <outline>
    <contour>
      <point x="-233" y="1810" type="line"/>
      <point x="-25" y="1810" type="line"/>
      <point x="-244" y="1447" type="line"/>
      <point x="-371" y="1447" type="line"/>
    </contour>
    <contour>
      <point x="11" y="-21" type="move" name="x4"/>
    </contour>
  </outline>
</glyph>
<glyph name="candralongevowelsigndeva" format="1">
  <advance width="0"/>
  <unicode hex="0955"/>
  <outline>
    <component base="ecandravowelsigndeva" yScale="0.888837256881" xOffset="-285" yOffset="336"/>
    <component base="anudattadeva" xOffset="-20" yOffset="1652"/>
    <contour>
      <point x="-391" y="1279" type="move" name="_top"/>
    </contour>
  </outline>
</glyph>
<glyph name="uevowelsigndevaKSH" format="1">
  <advance width="0"/>
  <unicode hex="0956"/>
  <outline>
    <contour>
      <point x="105" y="-214" type="line"/>
      <point x="1" y="-322"/>
      <point x="-138" y="-382"/>
      <point x="-299" y="-382" type="curve" smooth="yes"/>
      <point x="-459" y="-382"/>
      <point x="-599" y="-327"/>
      <point x="-725" y="-222" type="curve"/>
      <point x="-684" y="-114" type="line"/>
      <point x="-568" y="-213"/>
      <point x="-438" y="-258"/>
      <point x="-307" y="-258" type="curve" smooth="yes"/>
      <point x="-166" y="-258"/>
      <point x="-40" y="-206"/>
      <point x="58" y="-110" type="curve"/>
    </contour>
    <contour>
      <point x="-389" y="0" type="move" name="_btm"/>
    </contour>
  </outline>
</glyph>
<glyph name="uuevowelsigndevaKSH" format="1">
  <advance width="0"/>
  <unicode hex="0957"/>
  <outline>
    <component base="uevowelsigndevaKSH" yScale="0.915369177824" yOffset="-9"/>
    <component base="uevowelsigndevaKSH" xScale="1.05154465042" yScale="0.889850714382" xOffset="18" yOffset="-267"/>
    <contour>
      <point x="-389" y="0" type="move" name="_btm"/>
    </contour>
  </outline>
</glyph>
<glyph name="rrvocalicdeva" format="1">
  <advance width="1642"/>
  <unicode hex="0960"/>
  <outline>
    <contour>
      <point x="1089" y="1165" type="line"/>
      <point x="1089" y="1279" type="line"/>
      <point x="1672" y="1279" type="line"/>
      <point x="1672" y="1165" type="line"/>
    </contour>
    <contour>
      <point x="1302" y="181" type="curve" smooth="yes"/>
      <point x="1302" y="115"/>
      <point x="1350" y="79"/>
      <point x="1439" y="79" type="curve" smooth="yes"/>
      <point x="1486" y="79"/>
      <point x="1530" y="93"/>
      <point x="1596" y="125" type="curve"/>
      <point x="1617" y="-2" type="line"/>
      <point x="1546" y="-31"/>
      <point x="1497" y="-45"/>
      <point x="1435" y="-45" type="curve" smooth="yes"/>
      <point x="1277" y="-45"/>
      <point x="1154" y="64"/>
      <point x="1154" y="188" type="curve" smooth="yes"/>
      <point x="1154" y="313"/>
      <point x="1234" y="412"/>
      <point x="1413" y="477" type="curve"/>
      <point x="1347" y="408" type="line"/>
      <point x="1201" y="643" type="line"/>
      <point x="1312" y="717" type="line"/>
      <point x="1494" y="419" type="line"/>
      <point x="1483" y="359" type="line"/>
      <point x="1334" y="320"/>
      <point x="1302" y="251"/>
    </contour>
    <contour>
      <point x="829" y="659" type="line"/>
      <point x="875" y="652"/>
      <point x="917" y="644"/>
      <point x="976" y="644" type="curve" smooth="yes"/>
      <point x="1079" y="644"/>
      <point x="1159" y="677"/>
      <point x="1233" y="746" type="curve"/>
      <point x="1174" y="669" type="line"/>
      <point x="1137" y="714"/>
      <point x="1124" y="752"/>
      <point x="1124" y="783" type="curve" smooth="yes"/>
      <point x="1124" y="820"/>
      <point x="1155" y="856"/>
      <point x="1232" y="855" type="curve" smooth="yes"/>
      <point x="1324" y="855"/>
      <point x="1408" y="823"/>
      <point x="1408" y="760" type="curve" smooth="yes"/>
      <point x="1408" y="669"/>
      <point x="1211" y="512"/>
      <point x="975" y="512" type="curve" smooth="yes"/>
      <point x="910" y="512"/>
      <point x="854" y="522"/>
      <point x="777" y="534" type="curve"/>
    </contour>
    <component base="taradeva"/>
  </outline>
</glyph>
<glyph name="llvocalicdeva" format="1">
  <advance width="1510"/>
  <unicode hex="0961"/>
  <outline>
    <contour>
      <point x="1435" y="-318" type="line"/>
      <point x="1384" y="-341"/>
      <point x="1309" y="-361"/>
      <point x="1244" y="-361" type="curve" smooth="yes"/>
      <point x="1086" y="-361"/>
      <point x="1006" y="-272"/>
      <point x="1006" y="-177" type="curve" smooth="yes"/>
      <point x="1006" y="-71"/>
      <point x="1092" y="6"/>
      <point x="1252" y="7" type="curve"/>
      <point x="1266" y="-63" type="line"/>
      <point x="1174" y="-68"/>
      <point x="1126" y="-117"/>
      <point x="1126" y="-178" type="curve" smooth="yes"/>
      <point x="1126" y="-228"/>
      <point x="1168" y="-266"/>
      <point x="1253" y="-266" type="curve" smooth="yes"/>
      <point x="1303" y="-266"/>
      <point x="1354" y="-253"/>
      <point x="1414" y="-225" type="curve"/>
    </contour>
    <contour>
      <point x="1011" y="1196" type="line"/>
      <point x="1164" y="1196" type="line"/>
      <point x="1164" y="815" type="line"/>
      <point x="1011" y="815" type="line"/>
    </contour>
    <contour>
      <point x="-30" y="1165" type="line"/>
      <point x="-30" y="1279" type="line"/>
      <point x="1540" y="1279" type="line"/>
      <point x="1540" y="1165" type="line"/>
    </contour>
    <contour>
      <point x="858" y="689" type="curve"/>
      <point x="769" y="602" type="line"/>
      <point x="671" y="706"/>
      <point x="578" y="759"/>
      <point x="467" y="759" type="curve" smooth="yes"/>
      <point x="334" y="759"/>
      <point x="245" y="658"/>
      <point x="245" y="536" type="curve" smooth="yes"/>
      <point x="245" y="394"/>
      <point x="316" y="276"/>
      <point x="513" y="97" type="curve"/>
      <point x="406" y="26" type="line"/>
      <point x="212" y="205"/>
      <point x="104" y="369"/>
      <point x="104" y="564" type="curve" smooth="yes"/>
      <point x="104" y="747"/>
      <point x="237" y="892"/>
      <point x="438" y="892" type="curve" smooth="yes"/>
      <point x="600" y="892"/>
      <point x="724" y="826"/>
    </contour>
    <contour>
      <point x="1391" y="550" type="curve" smooth="yes"/>
      <point x="1391" y="421"/>
      <point x="1328" y="313"/>
      <point x="1266" y="229" type="curve"/>
      <point x="1201" y="229" type="line"/>
      <point x="1076" y="229"/>
      <point x="1025" y="172"/>
      <point x="1025" y="115" type="curve" smooth="yes"/>
      <point x="1025" y="58"/>
      <point x="1071" y="16"/>
      <point x="1166" y="16" type="curve" smooth="yes"/>
      <point x="1215" y="16"/>
      <point x="1261" y="24"/>
      <point x="1339" y="50" type="curve"/>
      <point x="1361" y="-50" type="line"/>
      <point x="1287" y="-71"/>
      <point x="1221" y="-84"/>
      <point x="1166" y="-84" type="curve" smooth="yes"/>
      <point x="999" y="-84"/>
      <point x="896" y="8"/>
      <point x="896" y="124" type="curve" smooth="yes"/>
      <point x="896" y="234"/>
      <point x="998" y="327"/>
      <point x="1162" y="327" type="curve" smooth="yes"/>
      <point x="1172" y="327"/>
      <point x="1228" y="325"/>
      <point x="1236" y="324" type="curve"/>
      <point x="1144" y="287" type="line"/>
      <point x="1194" y="351"/>
      <point x="1255" y="446"/>
      <point x="1255" y="555" type="curve" smooth="yes"/>
      <point x="1255" y="673"/>
      <point x="1192" y="754"/>
      <point x="1072" y="754" type="curve" smooth="yes"/>
      <point x="937" y="754"/>
      <point x="809" y="626"/>
      <point x="761" y="348" type="curve"/>
      <point x="632" y="396" type="line"/>
      <point x="685" y="691"/>
      <point x="835" y="888"/>
      <point x="1060" y="888" type="curve" smooth="yes"/>
      <point x="1271" y="888"/>
      <point x="1391" y="741"/>
    </contour>
  </outline>
</glyph>
<glyph name="lvocalicvowelsigndeva" format="1">
  <advance width="0"/>
  <unicode hex="0962"/>
  <outline>
    <contour>
      <point x="-272" y="-48" type="curve"/>
      <point x="-343" y="-120" type="line"/>
      <point x="-391" y="-44"/>
      <point x="-450" y="-8"/>
      <point x="-511" y="-8" type="curve" smooth="yes"/>
      <point x="-576" y="-8"/>
      <point x="-617" y="-57"/>
      <point x="-617" y="-112" type="curve" smooth="yes"/>
      <point x="-617" y="-173"/>
      <point x="-590" y="-231"/>
      <point x="-476" y="-323" type="curve"/>
      <point x="-558" y="-380" type="line"/>
      <point x="-681" y="-281"/>
      <point x="-725" y="-190"/>
      <point x="-725" y="-96" type="curve" smooth="yes"/>
      <point x="-725" y="6"/>
      <point x="-650" y="94"/>
      <point x="-520" y="94" type="curve" smooth="yes"/>
      <point x="-414" y="94"/>
      <point x="-336" y="40"/>
    </contour>
    <contour>
      <point x="-67" y="-233" type="curve"/>
      <point x="-121.0" y="-273.0" type="line"/>
      <point x="-73.0" y="-219.0"/>
      <point x="-54.0" y="-176.0"/>
      <point x="-54.0" y="-119.0" type="curve" smooth="yes"/>
      <point x="-54.0" y="-72.0"/>
      <point x="-86.0" y="-27.0"/>
      <point x="-147.0" y="-27.0" type="curve" smooth="yes"/>
      <point x="-229.0" y="-27.0"/>
      <point x="-289.0" y="-108.0"/>
      <point x="-319.0" y="-222.0" type="curve"/>
      <point x="-413.0" y="-190.0" type="line"/>
      <point x="-382.0" y="-47.0"/>
      <point x="-292.0" y="75.0"/>
      <point x="-151.0" y="75.0" type="curve" smooth="yes"/>
      <point x="-28.0" y="75.0"/>
      <point x="44.0" y="-13.0"/>
      <point x="44.0" y="-117.0" type="curve" smooth="yes"/>
      <point x="44.0" y="-184.0"/>
      <point x="16.0" y="-261.0"/>
      <point x="-24.0" y="-313.0" type="curve"/>
      <point x="-106" y="-313"/>
      <point x="-148" y="-337"/>
      <point x="-148" y="-372" type="curve" smooth="yes"/>
      <point x="-148" y="-406"/>
      <point x="-124" y="-429"/>
      <point x="-68" y="-429" type="curve" smooth="yes"/>
      <point x="-34" y="-429"/>
      <point x="-7" y="-422"/>
      <point x="37" y="-402" type="curve"/>
      <point x="48.0" y="-480.0" type="line"/>
      <point x="7.0" y="-499.0"/>
      <point x="-27.0" y="-505.0"/>
      <point x="-71.0" y="-505.0" type="curve" smooth="yes"/>
      <point x="-178.0" y="-505.0"/>
      <point x="-240" y="-443"/>
      <point x="-240.0" y="-368.0" type="curve" smooth="yes"/>
      <point x="-240" y="-299"/>
      <point x="-185" y="-239"/>
    </contour>
    <contour>
      <point x="-389.0" y="0.0" type="move" name="_btm"/>
    </contour>
  </outline>
</glyph>
<glyph name="llvocalicvowelsigndeva" format="1">
  <advance width="0"/>
  <unicode hex="0963"/>
  <outline>
    <contour>
      <point x="91" y="-638" type="line"/>
      <point x="60" y="-654"/>
      <point x="19" y="-663"/>
      <point x="-20" y="-663" type="curve" smooth="yes"/>
      <point x="-115" y="-663"/>
      <point x="-166" y="-606"/>
      <point x="-166" y="-540" type="curve" smooth="yes"/>
      <point x="-166" y="-474"/>
      <point x="-117" y="-425"/>
      <point x="-17" y="-424" type="curve"/>
      <point x="-6" y="-491" type="line"/>
      <point x="-61" y="-492"/>
      <point x="-77" y="-516"/>
      <point x="-77" y="-546" type="curve" smooth="yes"/>
      <point x="-77" y="-574"/>
      <point x="-55" y="-590"/>
      <point x="-15" y="-590" type="curve" smooth="yes"/>
      <point x="15" y="-590"/>
      <point x="44" y="-582"/>
      <point x="79" y="-567" type="curve"/>
    </contour>
    <contour>
      <point x="-272" y="-48" type="curve"/>
      <point x="-343" y="-120" type="line"/>
      <point x="-391" y="-44"/>
      <point x="-450" y="-10"/>
      <point x="-511" y="-10" type="curve" smooth="yes"/>
      <point x="-576" y="-10"/>
      <point x="-617" y="-57"/>
      <point x="-617" y="-112" type="curve" smooth="yes"/>
      <point x="-617" y="-173"/>
      <point x="-590" y="-231"/>
      <point x="-476" y="-323" type="curve"/>
      <point x="-558" y="-380" type="line"/>
      <point x="-681" y="-281"/>
      <point x="-725" y="-190"/>
      <point x="-725" y="-96" type="curve" smooth="yes"/>
      <point x="-725" y="6"/>
      <point x="-650" y="94"/>
      <point x="-520" y="94" type="curve" smooth="yes"/>
      <point x="-414" y="94"/>
      <point x="-336" y="40"/>
    </contour>
    <contour>
      <point x="-61" y="-233" type="curve"/>
      <point x="-121" y="-273" type="line"/>
      <point x="-73" y="-219"/>
      <point x="-54" y="-176"/>
      <point x="-54" y="-119" type="curve" smooth="yes"/>
      <point x="-54" y="-72"/>
      <point x="-86" y="-29"/>
      <point x="-147" y="-29" type="curve" smooth="yes"/>
      <point x="-229" y="-29"/>
      <point x="-290" y="-118"/>
      <point x="-320" y="-232" type="curve"/>
      <point x="-416" y="-200" type="line"/>
      <point x="-385" y="-57"/>
      <point x="-294" y="75"/>
      <point x="-151" y="75" type="curve" smooth="yes"/>
      <point x="-28" y="75"/>
      <point x="46" y="-13"/>
      <point x="46" y="-117" type="curve" smooth="yes"/>
      <point x="46" y="-184"/>
      <point x="20" y="-261"/>
      <point x="-19" y="-313" type="curve"/>
      <point x="-49" y="-313" type="line" smooth="yes"/>
      <point x="-114" y="-313"/>
      <point x="-142" y="-338"/>
      <point x="-142" y="-369" type="curve" smooth="yes"/>
      <point x="-142" y="-401"/>
      <point x="-116" y="-421"/>
      <point x="-66" y="-421" type="curve" smooth="yes"/>
      <point x="-38" y="-421"/>
      <point x="-5" y="-415"/>
      <point x="36" y="-402" type="curve"/>
      <point x="49" y="-480" type="line"/>
      <point x="5" y="-496"/>
      <point x="-33" y="-500"/>
      <point x="-67" y="-500" type="curve" smooth="yes"/>
      <point x="-171" y="-500"/>
      <point x="-237" y="-436"/>
      <point x="-237" y="-363" type="curve" smooth="yes"/>
      <point x="-237" y="-294"/>
      <point x="-189" y="-236"/>
    </contour>
    <contour>
      <point x="-389" y="0" type="move" name="_btm"/>
    </contour>
  </outline>
</glyph>
<glyph name="zerodeva" format="1">
  <advance width="1117"/>
  <unicode hex="0966"/>
  <outline>
    <contour>
      <point x="554" y="1105" type="curve" smooth="yes"/>
      <point x="832" y="1105"/>
      <point x="1002" y="900"/>
      <point x="1002" y="657" type="curve" smooth="yes"/>
      <point x="1002" y="428"/>
      <point x="836" y="232"/>
      <point x="566" y="232" type="curve" smooth="yes"/>
      <point x="301" y="232"/>
      <point x="117" y="426"/>
      <point x="117" y="689" type="curve" smooth="yes"/>
      <point x="117" y="902"/>
      <point x="284" y="1105"/>
    </contour>
    <contour>
      <point x="559" y="368" type="curve" smooth="yes"/>
      <point x="740" y="368"/>
      <point x="860" y="492"/>
      <point x="860" y="671" type="curve" smooth="yes"/>
      <point x="860" y="839"/>
      <point x="738" y="971"/>
      <point x="562" y="971" type="curve" smooth="yes"/>
      <point x="381" y="971"/>
      <point x="263" y="835"/>
      <point x="263" y="670" type="curve" smooth="yes"/>
      <point x="263" y="489"/>
      <point x="400" y="368"/>
    </contour>
  </outline>
</glyph>
